<?xml version="1.0" encoding="UTF-8"?>
<svg width="110px" height="80px" viewBox="0 0 110 80" version="1.1" xmlns="http://www.w3.org/2000/svg" xmlns:xlink="http://www.w3.org/1999/xlink">
    <!-- Generator: Sketch 45.2 (43514) - http://www.bohemiancoding.com/sketch -->
    <title>androidDL</title>
    <desc>Created with Sketch.</desc>
    <defs></defs>
    <g id="Page-1" stroke="none" stroke-width="1" fill="none" fill-rule="evenodd">
        <g id="android" fill="#FFFFFF">
            <g id="Group" transform="translate(-4.000000, 4.000000)">
                <path d="M44.8271186,47.2 C44.8271186,48.52 45.8888136,49.6 47.1864407,49.6 L49.5457627,49.6 L49.5457627,58 C49.5457627,59.992 51.1265085,61.6 53.0847458,61.6 C55.0429831,61.6 56.6237288,59.992 56.6237288,58 L56.6237288,49.6 L61.3423729,49.6 L61.3423729,58 C61.3423729,59.992 62.9231186,61.6 64.8813559,61.6 C66.8395932,61.6 68.420339,59.992 68.420339,58 L68.420339,49.6 L70.779661,49.6 C72.0772881,49.6 73.1389831,48.52 73.1389831,47.2 L73.1389831,23.2 L44.8271186,23.2 L44.8271186,47.2 Z M38.9288136,23.2 C36.9705763,23.2 35.3898305,24.808 35.3898305,26.8 L35.3898305,43.6 C35.3898305,45.592 36.9705763,47.2 38.9288136,47.2 C40.8870508,47.2 42.4677966,45.592 42.4677966,43.6 L42.4677966,26.8 C42.4677966,24.808 40.8870508,23.2 38.9288136,23.2 Z M79.0372881,23.2 C77.0790508,23.2 75.4983051,24.808 75.4983051,26.8 L75.4983051,43.6 C75.4983051,45.592 77.0790508,47.2 79.0372881,47.2 C80.9955254,47.2 82.5762712,45.592 82.5762712,43.6 L82.5762712,26.8 C82.5762712,24.808 80.9955254,23.2 79.0372881,23.2 Z M67.3114576,9.184 L70.3785763,6.064 C70.8504407,5.584 70.8504407,4.84 70.3785763,4.36 C69.9067119,3.88 69.175322,3.88 68.7034576,4.36 L65.211661,7.912 C63.3477966,6.952 61.2244068,6.4 58.9830508,6.4 C56.7181017,6.4 54.5947119,6.952 52.7072542,7.912 L49.1918644,4.36 C48.72,3.88 47.9886102,3.88 47.5167458,4.36 C47.0448814,4.84 47.0448814,5.584 47.5167458,6.064 L50.6074576,9.208 C47.115661,11.824 44.8271186,16.024 44.8271186,20.8 L73.1389831,20.8 C73.1389831,16.024 70.8504407,11.8 67.3114576,9.184 L67.3114576,9.184 Z M54.2644068,16 L51.9050847,16 L51.9050847,13.6 L54.2644068,13.6 L54.2644068,16 Z M66.0610169,16 L63.7016949,16 L63.7016949,13.6 L66.0610169,13.6 L66.0610169,16 Z" id="Shape" fill-rule="nonzero"></path>
                <path d="M10,2 L10,69.4828125 L107.169998,69.4828125 L107.169998,2 L10,2 Z M8,0 L109.169998,0 L109.169998,71.4828125 L8,71.4828125 L8,0 Z" id="Rectangle-3" fill-rule="nonzero"></path>
                <path d="M21.3425556,61.168 L22.8545556,61.168 C23.4412252,61.168 23.9385536,61.2573324 24.3465556,61.436 C24.7545577,61.6146676 25.0865543,61.8453319 25.3425556,62.128 C25.5985569,62.4106681 25.7838884,62.7319982 25.8985556,63.092 C26.0132229,63.4520018 26.0705556,63.8106649 26.0705556,64.168 C26.0705556,64.6053355 25.9918897,64.9986649 25.8345556,65.348 C25.6772215,65.6973351 25.4652236,65.9946654 25.1985556,66.24 C24.9318876,66.4853346 24.6212241,66.6733327 24.2665556,66.804 C23.9118872,66.9346673 23.5372243,67 23.1425556,67 L21.3425556,67 L21.3425556,61.168 Z M22.9905556,66.072 C23.2945571,66.072 23.5745543,66.0293338 23.8305556,65.944 C24.0865569,65.8586662 24.307888,65.7320008 24.4945556,65.564 C24.6812232,65.3959992 24.8265551,65.1906679 24.9305556,64.948 C25.0345561,64.7053321 25.0865556,64.4240016 25.0865556,64.104 C25.0865556,63.7413315 25.0238896,63.4333346 24.8985556,63.18 C24.7732217,62.9266654 24.6145566,62.7213341 24.4225556,62.564 C24.2305547,62.4066659 24.0172235,62.2920004 23.7825556,62.22 C23.5478878,62.1479996 23.32389,62.112 23.1105556,62.112 L22.3265556,62.112 L22.3265556,66.072 L22.9905556,66.072 Z M26.5425556,65.296 C26.5425556,65.0506654 26.5892218,64.8200011 26.6825556,64.604 C26.7758894,64.3879989 26.9052215,64.2000008 27.0705556,64.04 C27.2358898,63.8799992 27.4292212,63.7533338 27.6505556,63.66 C27.8718901,63.5666662 28.1078877,63.52 28.3585556,63.52 C28.6145569,63.52 28.8518879,63.5666662 29.0705556,63.66 C29.2892234,63.7533338 29.4772215,63.8799992 29.6345556,64.04 C29.7918897,64.2000008 29.9158885,64.3879989 30.0065556,64.604 C30.0972227,64.8200011 30.1425556,65.0506654 30.1425556,65.296 C30.1425556,65.5413346 30.0985561,65.7733322 30.0105556,65.992 C29.9225552,66.2106678 29.7985564,66.4013325 29.6385556,66.564 C29.4785548,66.7266675 29.2892234,66.8546662 29.0705556,66.948 C28.8518879,67.0413338 28.6118903,67.088 28.3505556,67.088 C28.0998877,67.088 27.8652234,67.0453338 27.6465556,66.96 C27.4278879,66.8746662 27.2372231,66.7533341 27.0745556,66.596 C26.9118881,66.4386659 26.7825561,66.2493344 26.6865556,66.028 C26.5905551,65.8066656 26.5425556,65.562668 26.5425556,65.296 Z M27.3025556,65.304 C27.3025556,65.4480007 27.329222,65.582666 27.3825556,65.708 C27.4358892,65.833334 27.5092218,65.9426662 27.6025556,66.036 C27.6958894,66.1293338 27.8052217,66.2026664 27.9305556,66.256 C28.0558896,66.3093336 28.1905549,66.336 28.3345556,66.336 C28.4785563,66.336 28.6132217,66.3093336 28.7385556,66.256 C28.8638896,66.2026664 28.9732218,66.1293338 29.0665556,66.036 C29.1598894,65.9426662 29.2345553,65.833334 29.2905556,65.708 C29.3465559,65.582666 29.3745556,65.4480007 29.3745556,65.304 C29.3745556,65.1599993 29.3465559,65.025334 29.2905556,64.9 C29.2345553,64.774666 29.1598894,64.6653338 29.0665556,64.572 C28.9732218,64.4786662 28.8638896,64.4040003 28.7385556,64.348 C28.6132217,64.2919997 28.4785563,64.264 28.3345556,64.264 C28.1905549,64.264 28.0558896,64.2919997 27.9305556,64.348 C27.8052217,64.4040003 27.6958894,64.4786662 27.6025556,64.572 C27.5092218,64.6653338 27.4358892,64.774666 27.3825556,64.9 C27.329222,65.025334 27.3025556,65.1599993 27.3025556,65.304 Z M32.6065556,64.096 L32.3745556,63.6 L33.0385556,63.6 C33.1985564,63.9466684 33.3318884,64.2426654 33.4385556,64.488 C33.5452228,64.7333346 33.6332219,64.9399992 33.7025556,65.108 C33.7718893,65.2760008 33.8265554,65.4119995 33.8665556,65.516 C33.9065558,65.6200005 33.9372222,65.7039997 33.9585556,65.768 C33.9798891,65.6239993 34.0078888,65.4933339 34.0425556,65.376 C34.0772225,65.2586661 34.1265553,65.1253341 34.1905556,64.976 C34.2545559,64.8266659 34.3358885,64.6453344 34.4345556,64.432 C34.5332228,64.2186656 34.6545549,63.941335 34.7985556,63.6 L35.5665556,63.6 L33.9585556,67.2 C33.8572218,66.9973323 33.766556,66.7986676 33.6865556,66.604 C33.6065552,66.4093324 33.526556,66.216001 33.4465556,66.024 C33.3665552,65.831999 33.2852227,65.6386676 33.2025556,65.444 C33.1198885,65.2493324 33.0278895,65.0506677 32.9265556,64.848 C32.7452214,65.2533354 32.5732231,65.6453314 32.4105556,66.024 C32.2478881,66.4026686 32.0785565,66.7946646 31.9025556,67.2 L30.3745556,63.6 L31.1425556,63.6 C31.2865563,63.9466684 31.4038885,64.2266656 31.4945556,64.44 C31.5852227,64.6533344 31.657222,64.8346659 31.7105556,64.984 C31.7638892,65.1333341 31.8038888,65.2653328 31.8305556,65.38 C31.8572224,65.4946672 31.8812222,65.6239993 31.9025556,65.768 C31.9185557,65.7199998 31.9385555,65.6640003 31.9625556,65.6 C31.9865557,65.5359997 32.0225554,65.4440006 32.0705556,65.324 C32.1185559,65.2039994 32.1852219,65.0466676 32.2705556,64.852 C32.3558894,64.6573324 32.4678883,64.4053349 32.6065556,64.096 Z M36.0705556,63.6 L36.7425556,63.6 C36.7532223,63.792001 36.7652222,63.9479994 36.7785556,64.068 C36.791889,64.1880006 36.8038889,64.3226659 36.8145556,64.472 C36.9372229,64.1839986 37.1105545,63.9520009 37.3345556,63.776 C37.5585567,63.5999991 37.8385539,63.512 38.1745556,63.512 C38.521224,63.512 38.7972213,63.6066657 39.0025556,63.796 C39.20789,63.9853343 39.3158889,64.2319985 39.3265556,64.536 L39.3265556,67 L38.5665556,67 L38.5665556,64.896 C38.5558889,64.7306658 38.4972228,64.5880006 38.3905556,64.468 C38.2838884,64.3479994 38.1185567,64.2826667 37.8945556,64.272 C37.7398882,64.272 37.5972229,64.2999997 37.4665556,64.356 C37.3358883,64.4120003 37.2238894,64.4879995 37.1305556,64.584 C37.0372218,64.6800005 36.9652225,64.794666 36.9145556,64.928 C36.8638887,65.061334 36.8385556,65.2053326 36.8385556,65.36 L36.8385556,67 L36.0705556,67 L36.0705556,63.6 Z M41.0065556,67 L40.2465556,67 L40.2465556,60.752 L41.0065556,60.752 L41.0065556,67 Z M41.7345556,65.296 C41.7345556,65.0506654 41.7812218,64.8200011 41.8745556,64.604 C41.9678894,64.3879989 42.0972215,64.2000008 42.2625556,64.04 C42.4278898,63.8799992 42.6212212,63.7533338 42.8425556,63.66 C43.0638901,63.5666662 43.2998877,63.52 43.5505556,63.52 C43.8065569,63.52 44.0438879,63.5666662 44.2625556,63.66 C44.4812234,63.7533338 44.6692215,63.8799992 44.8265556,64.04 C44.9838897,64.2000008 45.1078885,64.3879989 45.1985556,64.604 C45.2892227,64.8200011 45.3345556,65.0506654 45.3345556,65.296 C45.3345556,65.5413346 45.2905561,65.7733322 45.2025556,65.992 C45.1145552,66.2106678 44.9905564,66.4013325 44.8305556,66.564 C44.6705548,66.7266675 44.4812234,66.8546662 44.2625556,66.948 C44.0438879,67.0413338 43.8038903,67.088 43.5425556,67.088 C43.2918877,67.088 43.0572234,67.0453338 42.8385556,66.96 C42.6198879,66.8746662 42.4292231,66.7533341 42.2665556,66.596 C42.1038881,66.4386659 41.9745561,66.2493344 41.8785556,66.028 C41.7825551,65.8066656 41.7345556,65.562668 41.7345556,65.296 Z M42.4945556,65.304 C42.4945556,65.4480007 42.521222,65.582666 42.5745556,65.708 C42.6278892,65.833334 42.7012218,65.9426662 42.7945556,66.036 C42.8878894,66.1293338 42.9972217,66.2026664 43.1225556,66.256 C43.2478896,66.3093336 43.3825549,66.336 43.5265556,66.336 C43.6705563,66.336 43.8052217,66.3093336 43.9305556,66.256 C44.0558896,66.2026664 44.1652218,66.1293338 44.2585556,66.036 C44.3518894,65.9426662 44.4265553,65.833334 44.4825556,65.708 C44.5385559,65.582666 44.5665556,65.4480007 44.5665556,65.304 C44.5665556,65.1599993 44.5385559,65.025334 44.4825556,64.9 C44.4265553,64.774666 44.3518894,64.6653338 44.2585556,64.572 C44.1652218,64.4786662 44.0558896,64.4040003 43.9305556,64.348 C43.8052217,64.2919997 43.6705563,64.264 43.5265556,64.264 C43.3825549,64.264 43.2478896,64.2919997 43.1225556,64.348 C42.9972217,64.4040003 42.8878894,64.4786662 42.7945556,64.572 C42.7012218,64.6653338 42.6278892,64.774666 42.5745556,64.9 C42.521222,65.025334 42.4945556,65.1599993 42.4945556,65.304 Z M45.8465556,65.336 C45.8465556,65.0906654 45.8945551,64.8573344 45.9905556,64.636 C46.0865561,64.4146656 46.2158881,64.2213342 46.3785556,64.056 C46.5412231,63.8906658 46.7305545,63.7586672 46.9465556,63.66 C47.1625567,63.5613328 47.3905544,63.512 47.6305556,63.512 C47.7905564,63.512 47.934555,63.5319998 48.0625556,63.572 C48.1905563,63.6120002 48.3012218,63.6586664 48.3945556,63.712 C48.4878894,63.7653336 48.561222,63.8199997 48.6145556,63.876 C48.6678892,63.9320003 48.7025555,63.9759998 48.7185556,64.008 L48.7505556,63.6 L49.4945556,63.6 L49.4945556,67 L48.7185556,67 L48.7185556,66.776 C48.7185556,66.7493332 48.7198889,66.7240001 48.7225556,66.7 C48.7252223,66.6759999 48.7265556,66.6586667 48.7265556,66.648 C48.7052222,66.6746668 48.6678892,66.7133331 48.6145556,66.764 C48.561222,66.8146669 48.4892227,66.8639998 48.3985556,66.912 C48.3078885,66.9600002 48.1998896,67.0013332 48.0745556,67.036 C47.9492217,67.0706668 47.8038898,67.088 47.6385556,67.088 C47.377221,67.088 47.1372234,67.0400005 46.9185556,66.944 C46.6998879,66.8479995 46.5105564,66.7200008 46.3505556,66.56 C46.1905548,66.3999992 46.0665561,66.2146677 45.9785556,66.004 C45.8905552,65.7933323 45.8465556,65.5706678 45.8465556,65.336 Z M46.6225556,65.288 C46.6225556,65.4373341 46.6478887,65.5759994 46.6985556,65.704 C46.7492225,65.8320006 46.8212218,65.9426662 46.9145556,66.036 C47.0078894,66.1293338 47.118555,66.2026664 47.2465556,66.256 C47.3745563,66.3093336 47.5158882,66.336 47.6705556,66.336 C47.8252231,66.336 47.966555,66.3093336 48.0945556,66.256 C48.2225563,66.2026664 48.3332218,66.1280005 48.4265556,66.032 C48.5198894,65.9359995 48.5918887,65.8240006 48.6425556,65.696 C48.6932225,65.5679994 48.7185556,65.4320007 48.7185556,65.288 C48.7185556,65.1439993 48.6932225,65.009334 48.6425556,64.884 C48.5918887,64.758666 48.5198894,64.6506671 48.4265556,64.56 C48.3332218,64.4693329 48.2225563,64.3973336 48.0945556,64.344 C47.966555,64.2906664 47.8252231,64.264 47.6705556,64.264 C47.5158882,64.264 47.3745563,64.2893331 47.2465556,64.34 C47.118555,64.3906669 47.0078894,64.4626662 46.9145556,64.556 C46.8212218,64.6493338 46.7492225,64.758666 46.6985556,64.884 C46.6478887,65.009334 46.6225556,65.1439993 46.6225556,65.288 Z M50.2305556,65.304 C50.2305556,65.037332 50.2745552,64.7946678 50.3625556,64.576 C50.4505561,64.3573322 50.5732215,64.1693341 50.7305556,64.012 C50.8878897,63.8546659 51.0718879,63.7320004 51.2825556,63.644 C51.4932233,63.5559996 51.7238877,63.512 51.9745556,63.512 C52.1452231,63.512 52.294555,63.5306665 52.4225556,63.568 C52.5505563,63.6053335 52.6598885,63.6506664 52.7505556,63.704 C52.8412227,63.7573336 52.9145553,63.8146664 52.9705556,63.876 C53.0265559,63.9373336 53.0705555,63.9893331 53.1025556,64.032 L53.1025556,60.752 L53.8705556,60.752 L53.8705556,67 L53.1025556,67 L53.1025556,66.776 C53.1025556,66.7493332 53.1052223,66.7200002 53.1105556,66.688 C53.115889,66.6559998 53.1185556,66.6320001 53.1185556,66.616 C53.0705554,66.6640002 53.0118893,66.7159997 52.9425556,66.772 C52.8732219,66.8280003 52.7905561,66.8799998 52.6945556,66.928 C52.5985551,66.9760002 52.4905562,67.0146665 52.3705556,67.044 C52.250555,67.0733335 52.1132231,67.088 51.9585556,67.088 C51.6865543,67.088 51.4425567,67.0413338 51.2265556,66.948 C51.0105545,66.8546662 50.829223,66.7266675 50.6825556,66.564 C50.5358882,66.4013325 50.4238893,66.2120011 50.3465556,65.996 C50.2692219,65.7799989 50.2305556,65.5493346 50.2305556,65.304 Z M50.9985556,65.288 C50.9985556,65.4373341 51.0238887,65.5759994 51.0745556,65.704 C51.1252225,65.8320006 51.1972218,65.9426662 51.2905556,66.036 C51.3838894,66.1293338 51.494555,66.2026664 51.6225556,66.256 C51.7505563,66.3093336 51.8918882,66.336 52.0465556,66.336 C52.2012231,66.336 52.3438883,66.3093336 52.4745556,66.256 C52.6052229,66.2026664 52.7172218,66.1280005 52.8105556,66.032 C52.9038894,65.9359995 52.9758887,65.8240006 53.0265556,65.696 C53.0772225,65.5679994 53.1025556,65.4320007 53.1025556,65.288 C53.1025556,65.1439993 53.0772225,65.009334 53.0265556,64.884 C52.9758887,64.758666 52.9038894,64.6506671 52.8105556,64.56 C52.7172218,64.4693329 52.6052229,64.3973336 52.4745556,64.344 C52.3438883,64.2906664 52.2012231,64.264 52.0465556,64.264 C51.8918882,64.264 51.7505563,64.2893331 51.6225556,64.34 C51.494555,64.3906669 51.3838894,64.4626662 51.2905556,64.556 C51.1972218,64.6493338 51.1252225,64.758666 51.0745556,64.884 C51.0238887,65.009334 50.9985556,65.1439993 50.9985556,65.288 Z M56.8385556,60.912 C56.8652224,60.9493335 56.9238885,61.0333327 57.0145556,61.164 C57.1052227,61.2946673 57.2185549,61.4546657 57.3545556,61.644 C57.4905563,61.8333343 57.6425548,62.0426655 57.8105556,62.272 C57.9785565,62.5013345 58.1492214,62.7346655 58.3225556,62.972 C58.4958898,63.2093345 58.6652215,63.4413322 58.8305556,63.668 C58.9958898,63.8946678 59.1452216,64.1013324 59.2785556,64.288 C59.4118896,64.4746676 59.5252218,64.630666 59.6185556,64.756 C59.7118894,64.881334 59.7692222,64.9599998 59.7905556,64.992 C59.8012223,64.9759999 59.8492219,64.9080006 59.9345556,64.788 C60.0198894,64.6679994 60.1278883,64.5173342 60.2585556,64.336 C60.3892229,64.1546658 60.5372215,63.9480012 60.7025556,63.716 C60.8678898,63.4839988 61.0385547,63.2480012 61.2145556,63.008 C61.3905565,62.7679988 61.5625548,62.5306678 61.7305556,62.296 C61.8985565,62.0613322 62.0532216,61.848001 62.1945556,61.656 C62.3358897,61.463999 62.4545551,61.301334 62.5505556,61.168 C62.6465561,61.034666 62.7078888,60.9493335 62.7345556,60.912 L62.7345556,67 L61.6865556,67 L61.6865556,64.024 C61.6865556,63.9813331 61.6918889,63.9360002 61.7025556,63.888 C61.7132223,63.8399998 61.7185556,63.8106667 61.7185556,63.8 L59.7905556,66.576 C59.7638888,66.5439998 59.6985561,66.4560007 59.5945556,66.312 C59.4905551,66.1679993 59.3665563,65.9973343 59.2225556,65.8 C59.0785549,65.6026657 58.9265564,65.3906678 58.7665556,65.164 C58.6065548,64.9373322 58.4558897,64.7266676 58.3145556,64.532 C58.1732216,64.3373324 58.0532228,64.1720007 57.9545556,64.036 C57.8558885,63.8999993 57.8012223,63.8213334 57.7905556,63.8 C57.7905556,63.8106667 57.7958889,63.8399998 57.8065556,63.888 C57.8172223,63.9360002 57.8225556,63.9813331 57.8225556,64.024 L57.8225556,67 L56.8385556,67 L56.8385556,60.912 Z M63.5185556,65.296 C63.5185556,65.0506654 63.5652218,64.8200011 63.6585556,64.604 C63.7518894,64.3879989 63.8812215,64.2000008 64.0465556,64.04 C64.2118898,63.8799992 64.4052212,63.7533338 64.6265556,63.66 C64.8478901,63.5666662 65.0838877,63.52 65.3345556,63.52 C65.5905569,63.52 65.8278879,63.5666662 66.0465556,63.66 C66.2652234,63.7533338 66.4532215,63.8799992 66.6105556,64.04 C66.7678897,64.2000008 66.8918885,64.3879989 66.9825556,64.604 C67.0732227,64.8200011 67.1185556,65.0506654 67.1185556,65.296 C67.1185556,65.5413346 67.0745561,65.7733322 66.9865556,65.992 C66.8985552,66.2106678 66.7745564,66.4013325 66.6145556,66.564 C66.4545548,66.7266675 66.2652234,66.8546662 66.0465556,66.948 C65.8278879,67.0413338 65.5878903,67.088 65.3265556,67.088 C65.0758877,67.088 64.8412234,67.0453338 64.6225556,66.96 C64.4038879,66.8746662 64.2132231,66.7533341 64.0505556,66.596 C63.8878881,66.4386659 63.7585561,66.2493344 63.6625556,66.028 C63.5665551,65.8066656 63.5185556,65.562668 63.5185556,65.296 Z M64.2785556,65.304 C64.2785556,65.4480007 64.305222,65.582666 64.3585556,65.708 C64.4118892,65.833334 64.4852218,65.9426662 64.5785556,66.036 C64.6718894,66.1293338 64.7812217,66.2026664 64.9065556,66.256 C65.0318896,66.3093336 65.1665549,66.336 65.3105556,66.336 C65.4545563,66.336 65.5892217,66.3093336 65.7145556,66.256 C65.8398896,66.2026664 65.9492218,66.1293338 66.0425556,66.036 C66.1358894,65.9426662 66.2105553,65.833334 66.2665556,65.708 C66.3225559,65.582666 66.3505556,65.4480007 66.3505556,65.304 C66.3505556,65.1599993 66.3225559,65.025334 66.2665556,64.9 C66.2105553,64.774666 66.1358894,64.6653338 66.0425556,64.572 C65.9492218,64.4786662 65.8398896,64.4040003 65.7145556,64.348 C65.5892217,64.2919997 65.4545563,64.264 65.3105556,64.264 C65.1665549,64.264 65.0318896,64.2919997 64.9065556,64.348 C64.7812217,64.4040003 64.6718894,64.4786662 64.5785556,64.572 C64.4852218,64.6653338 64.4118892,64.774666 64.3585556,64.9 C64.305222,65.025334 64.2785556,65.1599993 64.2785556,65.304 Z M71.4865556,65.312 C71.4865556,65.5680013 71.4438894,65.8039989 71.3585556,66.02 C71.2732219,66.2360011 71.1518897,66.4239992 70.9945556,66.584 C70.8372215,66.7440008 70.6492234,66.8679996 70.4305556,66.956 C70.2118879,67.0440004 69.9718903,67.088 69.7105556,67.088 C69.449221,67.088 69.2185566,67.0386672 69.0185556,66.94 C68.8185546,66.8413328 68.6812227,66.7360006 68.6065556,66.624 C68.6065556,66.6453334 68.6078889,66.6653332 68.6105556,66.684 C68.6132223,66.7026668 68.6145556,66.7253332 68.6145556,66.752 L68.6145556,67 L67.8465556,67 L67.8465556,60.752 L68.6145556,60.752 L68.6145556,64.032 C68.6572225,63.9786664 68.7118886,63.9213336 68.7785556,63.86 C68.8452226,63.7986664 68.9265551,63.7426669 69.0225556,63.692 C69.1185561,63.6413331 69.226555,63.5986668 69.3465556,63.564 C69.4665562,63.5293332 69.5985549,63.512 69.7425556,63.512 C70.0038903,63.512 70.2412212,63.5533329 70.4545556,63.636 C70.66789,63.7186671 70.8505549,63.8386659 71.0025556,63.996 C71.1545564,64.1533341 71.2732219,64.3426656 71.3585556,64.564 C71.4438894,64.7853344 71.4865556,65.0346653 71.4865556,65.312 Z M70.6545556,65.296 C70.6545556,64.9973318 70.5678898,64.7506676 70.3945556,64.556 C70.2212214,64.3613324 69.9798905,64.264 69.6705556,64.264 C69.5158882,64.264 69.3745563,64.2893331 69.2465556,64.34 C69.118555,64.3906669 69.0078894,64.4626662 68.9145556,64.556 C68.8212218,64.6493338 68.7478892,64.758666 68.6945556,64.884 C68.641222,65.009334 68.6145556,65.1439993 68.6145556,65.288 C68.6145556,65.4373341 68.641222,65.5759994 68.6945556,65.704 C68.7478892,65.8320006 68.8212218,65.9426662 68.9145556,66.036 C69.0078894,66.1293338 69.118555,66.2026664 69.2465556,66.256 C69.3745563,66.3093336 69.5158882,66.336 69.6705556,66.336 C69.8252231,66.336 69.9638883,66.3093336 70.0865556,66.256 C70.2092229,66.2026664 70.3118885,66.1280005 70.3945556,66.032 C70.4772227,65.9359995 70.5412221,65.825334 70.5865556,65.7 C70.6318892,65.574666 70.6545556,65.4400007 70.6545556,65.296 Z M72.1425556,62.28 C72.1425556,62.1413326 72.1932218,62.0266671 72.2945556,61.936 C72.3958895,61.8453329 72.5052217,61.8 72.6225556,61.8 C72.7398895,61.8 72.8478885,61.8453329 72.9465556,61.936 C73.0452228,62.0266671 73.0945556,62.1413326 73.0945556,62.28 C73.0945556,62.4240007 73.0452228,62.5399996 72.9465556,62.628 C72.8478885,62.7160004 72.7398895,62.76 72.6225556,62.76 C72.5052217,62.76 72.3958895,62.7160004 72.2945556,62.628 C72.1932218,62.5399996 72.1425556,62.4240007 72.1425556,62.28 Z M72.9985556,67 L72.2305556,67 L72.2305556,63.6 L72.9985556,63.6 L72.9985556,67 Z M74.7025556,67 L73.9425556,67 L73.9425556,60.752 L74.7025556,60.752 L74.7025556,67 Z M78.5665556,66.608 C78.4012215,66.7573341 78.2012235,66.8746662 77.9665556,66.96 C77.7318878,67.0453338 77.4918902,67.088 77.2465556,67.088 C76.9958877,67.088 76.7598901,67.0413338 76.5385556,66.948 C76.3172212,66.8546662 76.1252231,66.7266675 75.9625556,66.564 C75.7998881,66.4013325 75.6705561,66.2120011 75.5745556,65.996 C75.4785551,65.7799989 75.4305556,65.5493346 75.4305556,65.304 C75.4305556,65.0586654 75.4785551,64.8280011 75.5745556,64.612 C75.6705561,64.3959989 75.7998881,64.2066675 75.9625556,64.044 C76.1252231,63.8813325 76.3145545,63.7533338 76.5305556,63.66 C76.7465567,63.5666662 76.9745544,63.52 77.2145556,63.52 C77.5985575,63.52 77.9358875,63.6359988 78.2265556,63.868 C78.5172237,64.1000012 78.7238883,64.4053314 78.8465556,64.784 C78.6865548,64.842667 78.5012233,64.9133329 78.2905556,64.996 C78.0798879,65.0786671 77.8598901,65.1653329 77.6305556,65.256 C77.4012211,65.3466671 77.1718901,65.4386662 76.9425556,65.532 C76.7132211,65.6253338 76.5025566,65.709333 76.3105556,65.784 C76.4012227,65.9493342 76.5265548,66.0826662 76.6865556,66.184 C76.8465564,66.2853338 77.0278879,66.336 77.2305556,66.336 C77.369223,66.336 77.5092216,66.3106669 77.6505556,66.26 C77.7918897,66.2093331 77.9078885,66.1413338 77.9985556,66.056 L78.5665556,66.608 Z M77.8945556,64.608 C77.8305553,64.4906661 77.7345563,64.4040003 77.6065556,64.348 C77.478555,64.2919997 77.3532229,64.264 77.2305556,64.264 C77.0865549,64.264 76.9505563,64.2919997 76.8225556,64.348 C76.694555,64.4040003 76.5852227,64.4786662 76.4945556,64.572 C76.4038885,64.6653338 76.3318892,64.7719994 76.2785556,64.892 C76.225222,65.0120006 76.1985556,65.1359994 76.1985556,65.264 L76.1985556,65.296 C76.3318896,65.2426664 76.4745549,65.1853336 76.6265556,65.124 C76.7785564,65.0626664 76.9305549,65.0000003 77.0825556,64.936 C77.2345564,64.8719997 77.3798883,64.8120003 77.5185556,64.756 C77.657223,64.6999997 77.7825551,64.6506669 77.8945556,64.608 Z M84.8145556,67 C84.7985555,66.9626665 84.7705558,66.8960005 84.7305556,66.8 C84.6905554,66.7039995 84.6412226,66.5866674 84.5825556,66.448 C84.5238887,66.3093326 84.4598893,66.1560008 84.3905556,65.988 C84.3212219,65.8199992 84.2492227,65.6453342 84.1745556,65.464 L82.1665556,65.464 L81.5265556,67 L80.5585556,67 C80.5798891,66.9519998 80.6305552,66.8333343 80.7105556,66.644 C80.790556,66.4546657 80.890555,66.2200014 81.0105556,65.94 C81.1305562,65.6599986 81.2638882,65.3480017 81.4105556,65.004 C81.557223,64.6599983 81.7078882,64.3093351 81.8625556,63.952 C82.0172231,63.5946649 82.1678882,63.2440017 82.3145556,62.9 C82.461223,62.5559983 82.594555,62.2440014 82.7145556,61.964 C82.8345562,61.6839986 82.9345552,61.4493343 83.0145556,61.26 C83.094556,61.0706657 83.1452222,60.9520002 83.1665556,60.904 C83.1878891,60.9520002 83.2398885,61.0706657 83.3225556,61.26 C83.4052227,61.4493343 83.506555,61.6839986 83.6265556,61.964 C83.7465562,62.2440014 83.8798882,62.5559983 84.0265556,62.9 C84.173223,63.2440017 84.3238882,63.5946649 84.4785556,63.952 C84.6332231,64.3093351 84.7838882,64.6599983 84.9305556,65.004 C85.077223,65.3480017 85.210555,65.6599986 85.3305556,65.94 C85.4505562,66.2200014 85.5505552,66.4546657 85.6305556,66.644 C85.710556,66.8333343 85.7612222,66.9519998 85.7825556,67 L84.8145556,67 Z M82.5025556,64.64 L83.8305556,64.64 L83.2545556,63.248 C83.2492223,63.2426666 83.2358891,63.206667 83.2145556,63.14 C83.1932222,63.073333 83.1772223,63.0133336 83.1665556,62.96 C83.1558889,63.0133336 83.1398891,63.073333 83.1185556,63.14 C83.0972222,63.206667 83.0865556,63.2426666 83.0865556,63.248 L82.5025556,64.64 Z M89.0625556,65.296 C89.0625556,64.9973318 88.9758898,64.7506676 88.8025556,64.556 C88.6292214,64.3613324 88.3878905,64.264 88.0785556,64.264 C87.9238882,64.264 87.7825563,64.2893331 87.6545556,64.34 C87.526555,64.3906669 87.4158894,64.4626662 87.3225556,64.556 C87.2292218,64.6493338 87.1558892,64.758666 87.1025556,64.884 C87.049222,65.009334 87.0225556,65.1439993 87.0225556,65.288 C87.0225556,65.4373341 87.049222,65.5759994 87.1025556,65.704 C87.1558892,65.8320006 87.2292218,65.9426662 87.3225556,66.036 C87.4158894,66.1293338 87.526555,66.2026664 87.6545556,66.256 C87.7825563,66.3093336 87.9238882,66.336 88.0785556,66.336 C88.2332231,66.336 88.3718883,66.3093336 88.4945556,66.256 C88.6172229,66.2026664 88.7198885,66.1280005 88.8025556,66.032 C88.8852227,65.9359995 88.9492221,65.825334 88.9945556,65.7 C89.0398892,65.574666 89.0625556,65.4400007 89.0625556,65.296 Z M89.8945556,65.312 C89.8945556,65.5680013 89.8518894,65.8039989 89.7665556,66.02 C89.6812219,66.2360011 89.5598897,66.4239992 89.4025556,66.584 C89.2452215,66.7440008 89.0572234,66.8679996 88.8385556,66.956 C88.6198879,67.0440004 88.3798903,67.088 88.1185556,67.088 C87.857221,67.088 87.6265566,67.0386672 87.4265556,66.94 C87.2265546,66.8413328 87.0892227,66.7360006 87.0145556,66.624 C87.0145556,66.6453334 87.0158889,66.6653332 87.0185556,66.684 C87.0212223,66.7026668 87.0225556,66.7253332 87.0225556,66.752 L87.0225556,68.632 L86.2545556,68.632 L86.2545556,63.6 L86.9905556,63.6 C86.9905556,63.674667 86.9958889,63.749333 87.0065556,63.824 C87.0172223,63.898667 87.0225556,63.9679997 87.0225556,64.032 C87.0652225,63.9786664 87.1198886,63.9213336 87.1865556,63.86 C87.2532226,63.7986664 87.3345551,63.7426669 87.4305556,63.692 C87.5265561,63.6413331 87.634555,63.5986668 87.7545556,63.564 C87.8745562,63.5293332 88.0065549,63.512 88.1505556,63.512 C88.4118903,63.512 88.6492212,63.5533329 88.8625556,63.636 C89.07589,63.7186671 89.2585549,63.8386659 89.4105556,63.996 C89.5625564,64.1533341 89.6812219,64.3426656 89.7665556,64.564 C89.8518894,64.7853344 89.8945556,65.0346653 89.8945556,65.312 Z M93.4385556,65.296 C93.4385556,64.9973318 93.3518898,64.7506676 93.1785556,64.556 C93.0052214,64.3613324 92.7638905,64.264 92.4545556,64.264 C92.2998882,64.264 92.1585563,64.2893331 92.0305556,64.34 C91.902555,64.3906669 91.7918894,64.4626662 91.6985556,64.556 C91.6052218,64.6493338 91.5318892,64.758666 91.4785556,64.884 C91.425222,65.009334 91.3985556,65.1439993 91.3985556,65.288 C91.3985556,65.4373341 91.425222,65.5759994 91.4785556,65.704 C91.5318892,65.8320006 91.6052218,65.9426662 91.6985556,66.036 C91.7918894,66.1293338 91.902555,66.2026664 92.0305556,66.256 C92.1585563,66.3093336 92.2998882,66.336 92.4545556,66.336 C92.6092231,66.336 92.7478883,66.3093336 92.8705556,66.256 C92.9932229,66.2026664 93.0958885,66.1280005 93.1785556,66.032 C93.2612227,65.9359995 93.3252221,65.825334 93.3705556,65.7 C93.4158892,65.574666 93.4385556,65.4400007 93.4385556,65.296 Z M94.2705556,65.312 C94.2705556,65.5680013 94.2278894,65.8039989 94.1425556,66.02 C94.0572219,66.2360011 93.9358897,66.4239992 93.7785556,66.584 C93.6212215,66.7440008 93.4332234,66.8679996 93.2145556,66.956 C92.9958879,67.0440004 92.7558903,67.088 92.4945556,67.088 C92.233221,67.088 92.0025566,67.0386672 91.8025556,66.94 C91.6025546,66.8413328 91.4652227,66.7360006 91.3905556,66.624 C91.3905556,66.6453334 91.3918889,66.6653332 91.3945556,66.684 C91.3972223,66.7026668 91.3985556,66.7253332 91.3985556,66.752 L91.3985556,68.632 L90.6305556,68.632 L90.6305556,63.6 L91.3665556,63.6 C91.3665556,63.674667 91.3718889,63.749333 91.3825556,63.824 C91.3932223,63.898667 91.3985556,63.9679997 91.3985556,64.032 C91.4412225,63.9786664 91.4958886,63.9213336 91.5625556,63.86 C91.6292226,63.7986664 91.7105551,63.7426669 91.8065556,63.692 C91.9025561,63.6413331 92.010555,63.5986668 92.1305556,63.564 C92.2505562,63.5293332 92.3825549,63.512 92.5265556,63.512 C92.7878903,63.512 93.0252212,63.5533329 93.2385556,63.636 C93.45189,63.7186671 93.6345549,63.8386659 93.7865556,63.996 C93.9385564,64.1533341 94.0572219,64.3426656 94.1425556,64.564 C94.2278894,64.7853344 94.2705556,65.0346653 94.2705556,65.312 Z" id="Download-Mobile-App"></path>
            </g>
        </g>
    </g>
</svg>