<?xml version="1.0" encoding="UTF-8"?>
<svg width="134px" height="80px" viewBox="0 0 134 80" version="1.1" xmlns="http://www.w3.org/2000/svg" xmlns:xlink="http://www.w3.org/1999/xlink">
    <!-- Generator: Sketch 45.2 (43514) - http://www.bohemiancoding.com/sketch -->
    <title>android-text-too-wideDL</title>
    <desc>Created with Sketch.</desc>
    <defs></defs>
    <g id="Page-1" stroke="none" stroke-width="1" fill="none" fill-rule="evenodd">
        <g id="android-text-too-wide" fill="#FFFFFF">
            <g id="Group" transform="translate(4.000000, 4.000000)">
                <path d="M48.1360001,48.6120003 C48.1360001,50.0057003 49.2763001,51.1460003 50.6700001,51.1460003 L53.2040001,51.1460003 L53.2040001,60.0150003 C53.2040001,62.1182204 54.9017801,63.8160004 57.0050001,63.8160004 C59.1082201,63.8160004 60.8060001,62.1182204 60.8060001,60.0150003 L60.8060001,51.1460003 L65.8740002,51.1460003 L65.8740002,60.0150003 C65.8740002,62.1182204 67.5717802,63.8160004 69.6750002,63.8160004 C71.7782202,63.8160004 73.4760002,62.1182204 73.4760002,60.0150003 L73.4760002,51.1460003 L76.0100002,51.1460003 C77.4037002,51.1460003 78.5440002,50.0057003 78.5440002,48.6120003 L78.5440002,23.2720001 L48.1360001,23.2720001 L48.1360001,48.6120003 Z M41.801,23.2720001 C39.69778,23.2720001 38,24.9697801 38,27.0730001 L38,44.8110003 C38,46.9142203 39.69778,48.6120003 41.801,48.6120003 C43.90422,48.6120003 45.602,46.9142203 45.602,44.8110003 L45.602,27.0730001 C45.602,24.9697801 43.90422,23.2720001 41.801,23.2720001 Z M84.8790003,23.2720001 C82.7757803,23.2720001 81.0780003,24.9697801 81.0780003,27.0730001 L81.0780003,44.8110003 C81.0780003,46.9142203 82.7757803,48.6120003 84.8790003,48.6120003 C86.9822203,48.6120003 88.6800003,46.9142203 88.6800003,44.8110003 L88.6800003,27.0730001 C88.6800003,24.9697801 86.9822203,23.2720001 84.8790003,23.2720001 Z M72.2850202,8.47344003 L75.5792202,5.17924001 C76.0860202,4.67244001 76.0860202,3.88690001 75.5792202,3.3801 C75.0724202,2.8733 74.2868802,2.8733 73.7800802,3.3801 L70.0297602,7.13042002 C68.0279002,6.11682002 65.7473002,5.53400002 63.3400002,5.53400002 C60.9073601,5.53400002 58.6267601,6.11682002 56.5995601,7.13042002 L52.8239001,3.3801 C52.3171001,2.8733 51.5315601,2.8733 51.0247601,3.3801 C50.5179601,3.88690001 50.5179601,4.67244001 51.0247601,5.17924001 L54.3443001,8.49878003 C50.5939801,11.26084 48.1360001,15.6953401 48.1360001,20.7380001 L78.5440002,20.7380001 C78.5440002,15.6953401 76.0860202,11.2355 72.2850202,8.47344003 L72.2850202,8.47344003 Z M58.2720001,15.6700001 L55.7380001,15.6700001 L55.7380001,13.1360001 L58.2720001,13.1360001 L58.2720001,15.6700001 Z M70.9420002,15.6700001 L68.4080002,15.6700001 L68.4080002,13.1360001 L70.9420002,13.1360001 L70.9420002,15.6700001 Z" id="Shape" fill-rule="nonzero"></path>
                <path d="M2,2 L2,71.1464844 L124.082031,71.1464844 L124.082031,2 L2,2 Z M0,0 L126.082031,0 L126.082031,73.1464844 L0,73.1464844 L0,0 Z" id="Rectangle-3" fill-rule="nonzero"></path>
                <path d="M33,64.3447082 L34.2528818,64.3447082 C34.7390111,64.3447082 35.1511101,64.4187313 35.489191,64.5667798 C35.8272719,64.7148283 36.1023728,64.9059627 36.314502,65.1401887 C36.5266312,65.3744147 36.6802016,65.640677 36.7752178,65.9389837 C36.870234,66.2372903 36.9177414,66.5344877 36.9177414,66.8305847 C36.9177414,67.1929721 36.8525568,67.5188948 36.7221857,67.8083628 C36.5918147,68.0978307 36.4161478,68.3442063 36.1951799,68.5474967 C35.974212,68.7507872 35.7167883,68.9065672 35.422901,69.0148415 C35.1290136,69.1231158 34.8185584,69.1772521 34.4915259,69.1772521 L33,69.1772521 L33,64.3447082 Z M34.3655748,68.4082876 C34.6174782,68.4082876 34.8494911,68.3729333 35.0616202,68.3022236 C35.2737494,68.2315139 35.45715,68.1265557 35.6118276,67.9873459 C35.7665051,67.8481361 35.8869308,67.6779934 35.9731083,67.4769126 C36.0592858,67.2758318 36.1023739,67.0427142 36.1023739,66.7775527 C36.1023739,66.4770363 36.0504472,66.2218222 35.9465923,66.0119027 C35.8427374,65.8019832 35.7112634,65.6318405 35.5521665,65.5014694 C35.3930696,65.3710983 35.216298,65.2760836 35.0218462,65.2164222 C34.8273945,65.1567609 34.6417842,65.1269307 34.4650099,65.1269307 L33.8153675,65.1269307 L33.8153675,68.4082876 L34.3655748,68.4082876 Z M37.3088526,67.7652743 C37.3088526,67.5619838 37.3475214,67.3708494 37.4248602,67.1918654 C37.5021989,67.0128814 37.6093668,66.8571014 37.7463669,66.7245206 C37.883367,66.5919399 38.0435663,66.4869817 38.2269696,66.4096429 C38.410373,66.3323042 38.6059267,66.2936354 38.8136365,66.2936354 C39.0257657,66.2936354 39.2224242,66.3323042 39.4036178,66.4096429 C39.5848115,66.4869817 39.7405916,66.5919399 39.8709626,66.7245206 C40.0013337,66.8571014 40.1040822,67.0128814 40.1792113,67.1918654 C40.2543404,67.3708494 40.2919044,67.5619838 40.2919044,67.7652743 C40.2919044,67.9685647 40.2554452,68.1608039 40.1825258,68.3419976 C40.1096064,68.5231913 40.0068579,68.681181 39.8742771,68.8159714 C39.7416964,68.9507618 39.5848115,69.0568248 39.4036178,69.1341636 C39.2224242,69.2115024 39.023556,69.2501712 38.8070075,69.2501712 C38.5992977,69.2501712 38.4048488,69.2148168 38.2236551,69.1441071 C38.0424615,69.0733974 37.8844718,68.9728585 37.7496814,68.8424874 C37.6148909,68.7121163 37.5077231,68.5552315 37.4281747,68.3718281 C37.3486262,68.1884248 37.3088526,67.9862422 37.3088526,67.7652743 Z M37.938608,67.7719033 C37.938608,67.8912259 37.9607044,68.0028131 38.004898,68.106668 C38.0490916,68.2105229 38.1098568,68.3011184 38.1871956,68.3784571 C38.2645344,68.4557959 38.3551299,68.5165612 38.4589848,68.5607547 C38.5628397,68.6049483 38.6744268,68.6270448 38.7937495,68.6270448 C38.9130721,68.6270448 39.0246593,68.6049483 39.1285142,68.5607547 C39.2323691,68.5165612 39.3229646,68.4557959 39.4003033,68.3784571 C39.4776421,68.3011184 39.5395122,68.2105229 39.5859155,68.106668 C39.6323187,68.0028131 39.65552,67.8912259 39.65552,67.7719033 C39.65552,67.6525806 39.6323187,67.5409935 39.5859155,67.4371386 C39.5395122,67.3332836 39.4776421,67.2426882 39.4003033,67.1653494 C39.3229646,67.0880106 39.2323691,67.0261406 39.1285142,66.9797373 C39.0246593,66.933334 38.9130721,66.9101327 38.7937495,66.9101327 C38.6744268,66.9101327 38.5628397,66.933334 38.4589848,66.9797373 C38.3551299,67.0261406 38.2645344,67.0880106 38.1871956,67.1653494 C38.1098568,67.2426882 38.0490916,67.3332836 38.004898,67.4371386 C37.9607044,67.5409935 37.938608,67.6525806 37.938608,67.7719033 Z M42.3336376,66.7709237 L42.1413965,66.3599254 L42.6916038,66.3599254 C42.8241846,66.6471837 42.9346669,66.8924544 43.023054,67.0957449 C43.1114412,67.2990353 43.1843595,67.4702829 43.2418112,67.6094927 C43.2992628,67.7487024 43.3445605,67.8613944 43.3777057,67.9475719 C43.4108509,68.0337494 43.4362618,68.1033532 43.4539393,68.1563855 C43.4716167,68.0370628 43.494818,67.9287902 43.5235438,67.8315643 C43.5522696,67.7343384 43.5931481,67.6238561 43.6461804,67.5001141 C43.6992127,67.3763721 43.7666069,67.2261162 43.848365,67.0493418 C43.9301231,66.8725675 44.030662,66.6427643 44.1499847,66.3599254 L44.7863691,66.3599254 L43.4539393,69.3429772 C43.3699715,69.1750416 43.2948435,69.010423 43.2285531,68.8491164 C43.1622628,68.6878098 43.0959734,68.5276105 43.029683,68.3685136 C42.9633927,68.2094167 42.8959985,68.0492174 42.8274984,67.8879108 C42.7589984,67.7266043 42.6827656,67.5619856 42.5987978,67.39405 C42.4485396,67.7299213 42.3060174,68.0547392 42.171227,68.3685136 C42.0364366,68.682288 41.8961241,69.007106 41.7502853,69.3429772 L40.4841455,66.3599254 L41.1205299,66.3599254 C41.2398525,66.6471837 41.337077,66.8791965 41.4122061,67.0559708 C41.4873351,67.2327452 41.5469956,67.3830011 41.5911892,67.5067431 C41.6353827,67.6304851 41.6685274,67.7398626 41.6906242,67.8348788 C41.712721,67.929895 41.7326078,68.0370628 41.7502853,68.1563855 C41.7635433,68.1166113 41.7801157,68.0702087 41.8000028,68.0171764 C41.8198899,67.9641441 41.8497201,67.8879113 41.8894943,67.7884758 C41.9292686,67.6890402 41.9845097,67.5586711 42.0552194,67.3973645 C42.1259292,67.236058 42.2187343,67.0272464 42.3336376,66.7709237 Z M45.2039963,66.3599254 L45.7608327,66.3599254 C45.7696714,66.5190223 45.7796148,66.6482866 45.7906632,66.7477222 C45.8017116,66.8471577 45.811655,66.9587448 45.8204937,67.0824869 C45.9221389,66.8438415 46.0657659,66.6516023 46.251379,66.5057635 C46.436992,66.3599247 46.6690048,66.2870064 46.9474244,66.2870064 C47.2346827,66.2870064 47.463381,66.3654488 47.6335263,66.522336 C47.8036716,66.6792232 47.8931622,66.8836155 47.902001,67.1355189 L47.902001,69.1772521 L47.2722456,69.1772521 L47.2722456,67.4338241 C47.2634069,67.296824 47.2147946,67.1786079 47.1264075,67.0791723 C47.0380203,66.9797368 46.9010223,66.9256005 46.7154092,66.9167618 C46.5872479,66.9167618 46.4690318,66.939963 46.3607575,66.9863663 C46.2524833,67.0327696 46.1596781,67.0957445 46.0823394,67.1752929 C46.0050006,67.2548414 45.9453402,67.3498561 45.9033563,67.4603401 C45.8613724,67.570824 45.8403807,67.6901449 45.8403807,67.8183063 L45.8403807,69.1772521 L45.2039963,69.1772521 L45.2039963,66.3599254 Z M49.2940918,69.1772521 L48.6643364,69.1772521 L48.6643364,64 L49.2940918,64 L49.2940918,69.1772521 Z M49.8973312,67.7652743 C49.8973312,67.5619838 49.936,67.3708494 50.0133387,67.1918654 C50.0906775,67.0128814 50.1978453,66.8571014 50.3348454,66.7245206 C50.4718455,66.5919399 50.6320448,66.4869817 50.8154482,66.4096429 C50.9988516,66.3323042 51.1944052,66.2936354 51.4021151,66.2936354 C51.6142442,66.2936354 51.8109027,66.3323042 51.9920964,66.4096429 C52.1732901,66.4869817 52.3290701,66.5919399 52.4594412,66.7245206 C52.5898123,66.8571014 52.6925608,67.0128814 52.7676899,67.1918654 C52.842819,67.3708494 52.8803829,67.5619838 52.8803829,67.7652743 C52.8803829,67.9685647 52.8439238,68.1608039 52.7710044,68.3419976 C52.698085,68.5231913 52.5953364,68.681181 52.4627557,68.8159714 C52.330175,68.9507618 52.1732901,69.0568248 51.9920964,69.1341636 C51.8109027,69.2115024 51.6120346,69.2501712 51.3954861,69.2501712 C51.1877762,69.2501712 50.9933274,69.2148168 50.8121337,69.1441071 C50.63094,69.0733974 50.4729503,68.9728585 50.3381599,68.8424874 C50.2033695,68.7121163 50.0962017,68.5552315 50.0166532,68.3718281 C49.9371048,68.1884248 49.8973312,67.9862422 49.8973312,67.7652743 Z M50.5270865,67.7719033 C50.5270865,67.8912259 50.549183,68.0028131 50.5933766,68.106668 C50.6375702,68.2105229 50.6983354,68.3011184 50.7756742,68.3784571 C50.8530129,68.4557959 50.9436084,68.5165612 51.0474633,68.5607547 C51.1513183,68.6049483 51.2629054,68.6270448 51.382228,68.6270448 C51.5015507,68.6270448 51.6131378,68.6049483 51.7169927,68.5607547 C51.8208477,68.5165612 51.9114431,68.4557959 51.9887819,68.3784571 C52.0661207,68.3011184 52.1279908,68.2105229 52.174394,68.106668 C52.2207973,68.0028131 52.2439986,67.8912259 52.2439986,67.7719033 C52.2439986,67.6525806 52.2207973,67.5409935 52.174394,67.4371386 C52.1279908,67.3332836 52.0661207,67.2426882 51.9887819,67.1653494 C51.9114431,67.0880106 51.8208477,67.0261406 51.7169927,66.9797373 C51.6131378,66.933334 51.5015507,66.9101327 51.382228,66.9101327 C51.2629054,66.9101327 51.1513183,66.933334 51.0474633,66.9797373 C50.9436084,67.0261406 50.8530129,67.0880106 50.7756742,67.1653494 C50.6983354,67.2426882 50.6375702,67.3332836 50.5933766,67.4371386 C50.549183,67.5409935 50.5270865,67.6525806 50.5270865,67.7719033 Z M53.3046392,67.7984193 C53.3046392,67.5951288 53.3444128,67.4017848 53.4239613,67.2183814 C53.5035097,67.0349781 53.6106775,66.8747787 53.745468,66.7377786 C53.8802584,66.6007785 54.0371432,66.4914011 54.2161272,66.4096429 C54.3951112,66.3278848 54.584036,66.2870064 54.7829071,66.2870064 C54.9154878,66.2870064 55.0348087,66.3035787 55.1408733,66.3367239 C55.2469379,66.3698691 55.3386382,66.4085379 55.415977,66.4527315 C55.4933157,66.4969251 55.554081,66.5422228 55.5982746,66.5886261 C55.6424682,66.6350293 55.6711936,66.6714885 55.6844516,66.6980046 L55.7109676,66.3599254 L56.327465,66.3599254 L56.327465,69.1772521 L55.6844516,69.1772521 L55.6844516,68.99164 C55.6844516,68.9695432 55.6855565,68.9485516 55.6877661,68.9286645 C55.6899758,68.9087773 55.6910806,68.8944147 55.6910806,68.8855759 C55.6734032,68.9076727 55.6424682,68.9397126 55.5982746,68.9816965 C55.554081,69.0236804 55.4944206,69.0645588 55.4192915,69.1043331 C55.3441624,69.1441073 55.2546717,69.1783568 55.1508168,69.2070826 C55.0469619,69.2358085 54.9265362,69.2501712 54.7895361,69.2501712 C54.5729875,69.2501712 54.3741194,69.2103975 54.1929257,69.1308491 C54.0117321,69.0513006 53.8548472,68.9452376 53.7222664,68.8126569 C53.5896857,68.6800761 53.4869372,68.5265058 53.4140178,68.3519411 C53.3410984,68.1773765 53.3046392,67.992871 53.3046392,67.7984193 Z M53.9476526,67.7586453 C53.9476526,67.8823873 53.9686442,67.9972889 54.0106281,68.1033535 C54.052612,68.2094181 54.1122725,68.3011184 54.1896112,68.3784571 C54.26695,68.4557959 54.3586503,68.5165612 54.4647149,68.5607547 C54.5707795,68.6049483 54.6878907,68.6270448 54.8160521,68.6270448 C54.9442135,68.6270448 55.0613247,68.6049483 55.1673893,68.5607547 C55.2734539,68.5165612 55.3651542,68.4546911 55.442493,68.3751426 C55.5198317,68.2955942 55.5794922,68.2027891 55.6214761,68.0967245 C55.66346,67.9906599 55.6844516,67.8779679 55.6844516,67.7586453 C55.6844516,67.6393226 55.66346,67.5277355 55.6214761,67.4238806 C55.5794922,67.3200256 55.5198317,67.230535 55.442493,67.1554059 C55.3651542,67.0802768 55.2734539,67.0206164 55.1673893,66.9764228 C55.0613247,66.9322292 54.9442135,66.9101327 54.8160521,66.9101327 C54.6878907,66.9101327 54.5707795,66.9311244 54.4647149,66.9731083 C54.3586503,67.0150922 54.26695,67.0747526 54.1896112,67.1520914 C54.1122725,67.2294302 54.052612,67.3200256 54.0106281,67.4238806 C53.9686442,67.5277355 53.9476526,67.6393226 53.9476526,67.7586453 Z M56.9373334,67.7719033 C56.9373334,67.5509354 56.9737925,67.3498576 57.0467119,67.1686639 C57.1196314,66.9874702 57.2212751,66.8316902 57.3516461,66.7013191 C57.4820172,66.5709481 57.6344828,66.4693043 57.8090474,66.3963849 C57.983612,66.3234655 58.1747464,66.2870064 58.3824562,66.2870064 C58.5238757,66.2870064 58.6476159,66.3024739 58.7536805,66.3334094 C58.8597451,66.3643449 58.9503405,66.4019089 59.0254696,66.4461025 C59.1005987,66.4902961 59.161364,66.5378034 59.2077672,66.5886261 C59.2541705,66.6394487 59.2906297,66.6825368 59.3171458,66.7178916 L59.3171458,64 L59.9535302,64 L59.9535302,69.1772521 L59.3171458,69.1772521 L59.3171458,68.99164 C59.3171458,68.9695432 59.3193555,68.9452371 59.3237748,68.918721 C59.3281942,68.8922048 59.3304038,68.872318 59.3304038,68.8590599 C59.2906296,68.8988341 59.2420174,68.9419222 59.1845657,68.9883255 C59.1271141,69.0347288 59.0586151,69.0778169 58.9790666,69.1175911 C58.8995182,69.1573653 58.8100275,69.1894052 58.7105919,69.2137116 C58.6111564,69.2380181 58.4973596,69.2501712 58.3691982,69.2501712 C58.143811,69.2501712 57.9416284,69.2115024 57.7626444,69.1341636 C57.5836604,69.0568248 57.4334045,68.9507618 57.3118721,68.8159714 C57.1903398,68.681181 57.0975346,68.5242961 57.0334539,68.3453121 C56.9693732,68.1663281 56.9373334,67.9751937 56.9373334,67.7719033 Z M57.5737178,67.7586453 C57.5737178,67.8823873 57.5947094,67.9972889 57.6366933,68.1033535 C57.6786772,68.2094181 57.7383376,68.3011184 57.8156764,68.3784571 C57.8930152,68.4557959 57.9847155,68.5165612 58.0907801,68.5607547 C58.1968447,68.6049483 58.3139559,68.6270448 58.4421173,68.6270448 C58.5702787,68.6270448 58.6884947,68.6049483 58.796769,68.5607547 C58.9050433,68.5165612 58.9978484,68.4546911 59.0751872,68.3751426 C59.1525259,68.2955942 59.2121864,68.2027891 59.2541703,68.0967245 C59.2961542,67.9906599 59.3171458,67.8779679 59.3171458,67.7586453 C59.3171458,67.6393226 59.2961542,67.5277355 59.2541703,67.4238806 C59.2121864,67.3200256 59.1525259,67.230535 59.0751872,67.1554059 C58.9978484,67.0802768 58.9050433,67.0206164 58.796769,66.9764228 C58.6884947,66.9322292 58.5702787,66.9101327 58.4421173,66.9101327 C58.3139559,66.9101327 58.1968447,66.9311244 58.0907801,66.9731083 C57.9847155,67.0150922 57.8930152,67.0747526 57.8156764,67.1520914 C57.7383376,67.2294302 57.6786772,67.3200256 57.6366933,67.4238806 C57.5947094,67.5277355 57.5737178,67.6393226 57.5737178,67.7586453 Z M62.4128907,64.1325801 C62.4349875,64.1635156 62.4835997,64.2331194 62.5587288,64.3413937 C62.6338578,64.449668 62.7277678,64.5822467 62.8404614,64.7391339 C62.9531551,64.8960212 63.0791049,65.0694784 63.2183147,65.2595108 C63.3575244,65.4495432 63.4989418,65.6428872 63.6425709,65.8395486 C63.7862,66.03621 63.9265126,66.2284492 64.0635127,66.416272 C64.2005128,66.6040947 64.3242529,66.7753422 64.4347369,66.9300198 C64.5452208,67.0846973 64.6391308,67.2139616 64.7164696,67.3178165 C64.7938083,67.4216714 64.8413157,67.486856 64.8589931,67.5133721 C64.8678319,67.500114 64.9076055,67.4437681 64.9783152,67.3443325 C65.0490249,67.244897 65.1385156,67.120052 65.2467899,66.9697938 C65.3550641,66.8195356 65.4776995,66.6482881 65.6146996,66.456046 C65.7516997,66.2638039 65.893117,66.0682502 66.0389558,65.8693791 C66.1847947,65.670508 66.3273168,65.4738495 66.4665266,65.2793978 C66.6057364,65.084946 66.7338958,64.9081743 66.8510088,64.7490775 C66.9681218,64.5899806 67.0664511,64.4551922 67.1459995,64.3447082 C67.225548,64.2342243 67.2763698,64.1635156 67.2984666,64.1325801 L67.2984666,69.1772521 L66.4300671,69.1772521 L66.4300671,66.7112626 C66.4300671,66.6759078 66.4344864,66.6383438 66.4433251,66.5985696 C66.4521638,66.5587953 66.4565831,66.5344892 66.4565831,66.5256505 L64.8589931,68.8259149 C64.8368963,68.7993988 64.78276,68.7264804 64.6965825,68.6071578 C64.6104051,68.4878351 64.5076565,68.3464178 64.3883339,68.1829015 C64.2690112,68.0193853 64.1430614,67.8437184 64.0104806,67.6558957 C63.8778999,67.468073 63.7530549,67.293511 63.6359419,67.1322044 C63.5188289,66.9708978 63.4193949,66.8338998 63.3376367,66.7212061 C63.2558786,66.6085125 63.2105809,66.5433279 63.2017421,66.5256505 C63.2017421,66.5344892 63.2061614,66.5587953 63.2150002,66.5985696 C63.2238389,66.6383438 63.2282582,66.6759078 63.2282582,66.7112626 L63.2282582,69.1772521 L62.4128907,69.1772521 L62.4128907,64.1325801 Z M67.948109,67.7652743 C67.948109,67.5619838 67.9867778,67.3708494 68.0641166,67.1918654 C68.1414553,67.0128814 68.2486232,66.8571014 68.3856233,66.7245206 C68.5226234,66.5919399 68.6828227,66.4869817 68.866226,66.4096429 C69.0496294,66.3323042 69.2451831,66.2936354 69.4528929,66.2936354 C69.6650221,66.2936354 69.8616806,66.3323042 70.0428743,66.4096429 C70.2240679,66.4869817 70.379848,66.5919399 70.510219,66.7245206 C70.6405901,66.8571014 70.7433386,67.0128814 70.8184677,67.1918654 C70.8935968,67.3708494 70.9311608,67.5619838 70.9311608,67.7652743 C70.9311608,67.9685647 70.8947016,68.1608039 70.8217822,68.3419976 C70.7488628,68.5231913 70.6461143,68.681181 70.5135335,68.8159714 C70.3809528,68.9507618 70.2240679,69.0568248 70.0428743,69.1341636 C69.8616806,69.2115024 69.6628124,69.2501712 69.4462639,69.2501712 C69.2385541,69.2501712 69.0441052,69.2148168 68.8629115,69.1441071 C68.6817179,69.0733974 68.5237282,68.9728585 68.3889378,68.8424874 C68.2541473,68.7121163 68.1469795,68.5552315 68.0674311,68.3718281 C67.9878826,68.1884248 67.948109,67.9862422 67.948109,67.7652743 Z M68.5778644,67.7719033 C68.5778644,67.8912259 68.5999608,68.0028131 68.6441544,68.106668 C68.688348,68.2105229 68.7491133,68.3011184 68.826452,68.3784571 C68.9037908,68.4557959 68.9943863,68.5165612 69.0982412,68.5607547 C69.2020961,68.6049483 69.3136832,68.6270448 69.4330059,68.6270448 C69.5523286,68.6270448 69.6639157,68.6049483 69.7677706,68.5607547 C69.8716255,68.5165612 69.962221,68.4557959 70.0395598,68.3784571 C70.1168985,68.3011184 70.1787686,68.2105229 70.2251719,68.106668 C70.2715751,68.0028131 70.2947764,67.8912259 70.2947764,67.7719033 C70.2947764,67.6525806 70.2715751,67.5409935 70.2251719,67.4371386 C70.1787686,67.3332836 70.1168985,67.2426882 70.0395598,67.1653494 C69.962221,67.0880106 69.8716255,67.0261406 69.7677706,66.9797373 C69.6639157,66.933334 69.5523286,66.9101327 69.4330059,66.9101327 C69.3136832,66.9101327 69.2020961,66.933334 69.0982412,66.9797373 C68.9943863,67.0261406 68.9037908,67.0880106 68.826452,67.1653494 C68.7491133,67.2426882 68.688348,67.3332836 68.6441544,67.4371386 C68.5999608,67.5409935 68.5778644,67.6525806 68.5778644,67.7719033 Z M74.550597,67.7785323 C74.550597,67.9906615 74.5152426,68.1862151 74.4445329,68.3651991 C74.3738232,68.5441831 74.2732843,68.6999632 74.1429132,68.8325439 C74.0125422,68.9651246 73.8567621,69.0678732 73.6755684,69.1407926 C73.4943748,69.213712 73.2955066,69.2501712 73.0789581,69.2501712 C72.8624095,69.2501712 72.6712752,69.2092927 72.5055492,69.1275346 C72.3398233,69.0457765 72.2260265,68.9584954 72.1641555,68.8656889 C72.1641555,68.8833664 72.1652604,68.8999387 72.16747,68.9154065 C72.1696797,68.9308742 72.1707845,68.9496562 72.1707845,68.971753 L72.1707845,69.1772521 L71.5344002,69.1772521 L71.5344002,64 L72.1707845,64 L72.1707845,66.7178916 C72.2061394,66.6736981 72.2514371,66.6261907 72.3066791,66.575368 C72.3619211,66.5245454 72.4293153,66.4781429 72.5088637,66.436159 C72.5884122,66.3941751 72.6779028,66.3588207 72.7773384,66.3300949 C72.876774,66.3013691 72.9861514,66.2870064 73.1054741,66.2870064 C73.3220226,66.2870064 73.5186811,66.3212559 73.6954554,66.3897559 C73.8722298,66.458256 74.0235905,66.5576901 74.1495422,66.6880611 C74.2754939,66.8184322 74.3738232,66.975317 74.4445329,67.1587204 C74.5152426,67.3421238 74.550597,67.5487256 74.550597,67.7785323 Z M73.8611805,67.7652743 C73.8611805,67.5177902 73.7893671,67.313398 73.6457379,67.1520914 C73.5021088,66.9907848 73.3021358,66.9101327 73.0458131,66.9101327 C72.9176517,66.9101327 72.8005404,66.9311244 72.6944758,66.9731083 C72.5884113,67.0150922 72.4967109,67.0747526 72.4193722,67.1520914 C72.3420334,67.2294302 72.2812682,67.3200256 72.2370746,67.4238806 C72.192881,67.5277355 72.1707845,67.6393226 72.1707845,67.7586453 C72.1707845,67.8823873 72.192881,67.9972889 72.2370746,68.1033535 C72.2812682,68.2094181 72.3420334,68.3011184 72.4193722,68.3784571 C72.4967109,68.4557959 72.5884113,68.5165612 72.6944758,68.5607547 C72.8005404,68.6049483 72.9176517,68.6270448 73.0458131,68.6270448 C73.1739744,68.6270448 73.288876,68.6049483 73.3905213,68.5607547 C73.4921665,68.5165612 73.5772379,68.4546911 73.6457379,68.3751426 C73.714238,68.2955942 73.7672695,68.2038939 73.804834,68.100039 C73.8423986,67.996184 73.8611805,67.8845969 73.8611805,67.7652743 Z M75.0941753,65.2661398 C75.0941753,65.1512365 75.1361586,65.0562217 75.2201264,64.9810926 C75.3040942,64.9059635 75.3946897,64.8683995 75.4919155,64.8683995 C75.5891414,64.8683995 75.6786321,64.9059635 75.7603902,64.9810926 C75.8421483,65.0562217 75.8830268,65.1512365 75.8830268,65.2661398 C75.8830268,65.3854624 75.8421483,65.481582 75.7603902,65.5545014 C75.6786321,65.6274208 75.5891414,65.66388 75.4919155,65.66388 C75.3946897,65.66388 75.3040942,65.6274208 75.2201264,65.5545014 C75.1361586,65.481582 75.0941753,65.3854624 75.0941753,65.2661398 Z M75.8034787,69.1772521 L75.1670943,69.1772521 L75.1670943,66.3599254 L75.8034787,66.3599254 L75.8034787,69.1772521 Z M77.2154566,69.1772521 L76.5857012,69.1772521 L76.5857012,64 L77.2154566,64 L77.2154566,69.1772521 Z M80.4172655,68.8524309 C80.2802654,68.9761729 80.1145419,69.0733974 79.9200902,69.1441071 C79.7256384,69.2148168 79.5267703,69.2501712 79.3234798,69.2501712 C79.11577,69.2501712 78.9202163,69.2115024 78.736813,69.1341636 C78.5534096,69.0568248 78.3943151,68.9507618 78.2595247,68.8159714 C78.1247343,68.681181 78.0175664,68.5242961 77.938018,68.3453121 C77.8584696,68.1663281 77.8186959,67.9751937 77.8186959,67.7719033 C77.8186959,67.5686128 77.8584696,67.3774784 77.938018,67.1984944 C78.0175664,67.0195104 78.1247343,66.8626256 78.2595247,66.7278351 C78.3943151,66.5930447 78.5512,66.4869817 78.730184,66.4096429 C78.909168,66.3323042 79.0980927,66.2936354 79.2969638,66.2936354 C79.6151576,66.2936354 79.8946778,66.389755 80.1355328,66.5819971 C80.3763878,66.7742391 80.5476354,67.0272436 80.6492806,67.341018 C80.5166999,67.3896309 80.3631295,67.4481866 80.1885648,67.5166866 C80.0140002,67.5851867 79.8317044,67.6570002 79.641672,67.7321292 C79.4516396,67.8072583 79.2616101,67.8834911 79.0715777,67.9608299 C78.8815453,68.0381686 78.7069833,68.1077725 78.5478864,68.1696435 C78.6230155,68.3066436 78.7268688,68.4171259 78.8594496,68.5010937 C78.9920303,68.5850615 79.1422862,68.6270448 79.3102218,68.6270448 C79.4251251,68.6270448 79.5411315,68.6060531 79.6582445,68.5640692 C79.7753575,68.5220853 79.8714771,68.4657394 79.9466062,68.3950296 L80.4172655,68.8524309 Z M79.8604292,67.1951799 C79.8073969,67.097954 79.7278496,67.0261406 79.621785,66.9797373 C79.5157204,66.933334 79.4118671,66.9101327 79.3102218,66.9101327 C79.1908992,66.9101327 79.0782072,66.933334 78.9721426,66.9797373 C78.866078,67.0261406 78.7754825,67.0880106 78.7003535,67.1653494 C78.6252244,67.2426882 78.5655639,67.331074 78.5213703,67.4305096 C78.4771768,67.5299451 78.4550803,67.6326937 78.4550803,67.7387582 L78.4550803,67.7652743 C78.5655643,67.7210807 78.6837803,67.6735733 78.809732,67.6227507 C78.9356837,67.5719281 79.0616335,67.5200014 79.1875852,67.4669691 C79.313537,67.4139368 79.4339627,67.3642198 79.548866,67.3178165 C79.6637693,67.2714132 79.7676226,67.2305348 79.8604292,67.1951799 Z M85.5945176,69.1772521 C85.5812595,69.1463166 85.5580582,69.0910755 85.5249131,69.011527 C85.4917679,68.9319786 85.4508894,68.8347541 85.4022765,68.7198508 C85.3536635,68.6049475 85.300632,68.4778929 85.2431804,68.3386831 C85.1857287,68.1994733 85.1260683,68.0547415 85.0641973,67.9044833 L83.4003173,67.9044833 L82.869997,69.1772521 L82.0678875,69.1772521 C82.0855649,69.1374779 82.1275482,69.0391486 82.1938386,68.8822614 C82.2601289,68.7253742 82.3429906,68.5309254 82.4424262,68.2989091 C82.5418618,68.0668928 82.6523441,67.8083642 82.7738764,67.5233156 C82.8954088,67.238267 83.0202537,66.9476986 83.1484151,66.6516016 C83.2765765,66.3555046 83.4014215,66.0649362 83.5229539,65.7798876 C83.6444862,65.494839 83.7549685,65.2363104 83.8544041,65.0042941 C83.9538396,64.7722778 84.0367013,64.577829 84.1029917,64.4209418 C84.1692821,64.2640545 84.2112653,64.1657253 84.2289428,64.1259511 C84.2466202,64.1657253 84.2897083,64.2640545 84.3582084,64.4209418 C84.4267084,64.577829 84.5106749,64.7722778 84.6101105,65.0042941 C84.7095461,65.2363104 84.8200284,65.494839 84.9415607,65.7798876 C85.0630931,66.0649362 85.187938,66.3555046 85.3160994,66.6516016 C85.4442608,66.9476986 85.5691058,67.238267 85.6906382,67.5233156 C85.8121705,67.8083642 85.9226528,68.0668928 86.0220884,68.2989091 C86.1215239,68.5309254 86.2043856,68.7253742 86.270676,68.8822614 C86.3369664,69.0391486 86.3789496,69.1374779 86.3966271,69.1772521 L85.5945176,69.1772521 Z M83.6787354,67.2216959 L84.7791501,67.2216959 L84.3018618,66.0682492 C84.2974425,66.0638299 84.2863942,66.0339997 84.2687168,65.9787577 C84.2510394,65.9235157 84.2377815,65.8737987 84.2289428,65.8296051 C84.2201041,65.8737987 84.2068462,65.9235157 84.1891688,65.9787577 C84.1714913,66.0339997 84.1626527,66.0638299 84.1626527,66.0682492 L83.6787354,67.2216959 Z M89.1145187,67.7652743 C89.1145187,67.5177902 89.0427052,67.313398 88.8990761,67.1520914 C88.7554469,66.9907848 88.555474,66.9101327 88.2991512,66.9101327 C88.1709898,66.9101327 88.0538786,66.9311244 87.947814,66.9731083 C87.8417494,67.0150922 87.7500491,67.0747526 87.6727103,67.1520914 C87.5953716,67.2294302 87.5346063,67.3200256 87.4904127,67.4238806 C87.4462192,67.5277355 87.4241227,67.6393226 87.4241227,67.7586453 C87.4241227,67.8823873 87.4462192,67.9972889 87.4904127,68.1033535 C87.5346063,68.2094181 87.5953716,68.3011184 87.6727103,68.3784571 C87.7500491,68.4557959 87.8417494,68.5165612 87.947814,68.5607547 C88.0538786,68.6049483 88.1709898,68.6270448 88.2991512,68.6270448 C88.4273126,68.6270448 88.5422142,68.6049483 88.6438594,68.5607547 C88.7455047,68.5165612 88.830576,68.4546911 88.8990761,68.3751426 C88.9675761,68.2955942 89.0206076,68.2038939 89.0581722,68.100039 C89.0957367,67.996184 89.1145187,67.8845969 89.1145187,67.7652743 Z M89.8039351,67.7785323 C89.8039351,67.9906615 89.7685808,68.1862151 89.6978711,68.3651991 C89.6271613,68.5441831 89.5266224,68.6999632 89.3962514,68.8325439 C89.2658803,68.9651246 89.1101003,69.0678732 88.9289066,69.1407926 C88.7477129,69.213712 88.5488448,69.2501712 88.3322962,69.2501712 C88.1157477,69.2501712 87.9246133,69.2092927 87.7588874,69.1275346 C87.5931615,69.0457765 87.4793647,68.9584954 87.4174937,68.8656889 C87.4174937,68.8833664 87.4185985,68.8999387 87.4208082,68.9154065 C87.4230179,68.9308742 87.4241227,68.9496562 87.4241227,68.971753 L87.4241227,70.5295689 L86.7877383,70.5295689 L86.7877383,66.3599254 L87.3976067,66.3599254 C87.3976067,66.4217964 87.402026,66.4836665 87.4108647,66.5455375 C87.4197034,66.6074085 87.4241227,66.6648593 87.4241227,66.7178916 C87.4594776,66.6736981 87.5047753,66.6261907 87.5600173,66.575368 C87.6152593,66.5245454 87.6826535,66.4781429 87.7622019,66.436159 C87.8417503,66.3941751 87.931241,66.3588207 88.0306766,66.3300949 C88.1301121,66.3013691 88.2394896,66.2870064 88.3588123,66.2870064 C88.5753608,66.2870064 88.7720193,66.3212559 88.9487936,66.3897559 C89.1255679,66.458256 89.2769287,66.5576901 89.4028804,66.6880611 C89.5288321,66.8184322 89.6271613,66.975317 89.6978711,67.1587204 C89.7685808,67.3421238 89.8039351,67.5487256 89.8039351,67.7785323 Z M92.7405839,67.7652743 C92.7405839,67.5177902 92.6687704,67.313398 92.5251413,67.1520914 C92.3815121,66.9907848 92.1815392,66.9101327 91.9252164,66.9101327 C91.797055,66.9101327 91.6799438,66.9311244 91.5738792,66.9731083 C91.4678146,67.0150922 91.3761143,67.0747526 91.2987755,67.1520914 C91.2214368,67.2294302 91.1606715,67.3200256 91.1164779,67.4238806 C91.0722843,67.5277355 91.0501879,67.6393226 91.0501879,67.7586453 C91.0501879,67.8823873 91.0722843,67.9972889 91.1164779,68.1033535 C91.1606715,68.2094181 91.2214368,68.3011184 91.2987755,68.3784571 C91.3761143,68.4557959 91.4678146,68.5165612 91.5738792,68.5607547 C91.6799438,68.6049483 91.797055,68.6270448 91.9252164,68.6270448 C92.0533778,68.6270448 92.1682794,68.6049483 92.2699246,68.5607547 C92.3715698,68.5165612 92.4566412,68.4546911 92.5251413,68.3751426 C92.5936413,68.2955942 92.6466728,68.2038939 92.6842374,68.100039 C92.7218019,67.996184 92.7405839,67.8845969 92.7405839,67.7652743 Z M93.4300003,67.7785323 C93.4300003,67.9906615 93.394646,68.1862151 93.3239362,68.3651991 C93.2532265,68.5441831 93.1526876,68.6999632 93.0223166,68.8325439 C92.8919455,68.9651246 92.7361655,69.0678732 92.5549718,69.1407926 C92.3737781,69.213712 92.17491,69.2501712 91.9583614,69.2501712 C91.7418129,69.2501712 91.5506785,69.2092927 91.3849526,69.1275346 C91.2192266,69.0457765 91.1054299,68.9584954 91.0435589,68.8656889 C91.0435589,68.8833664 91.0446637,68.8999387 91.0468734,68.9154065 C91.0490831,68.9308742 91.0501879,68.9496562 91.0501879,68.971753 L91.0501879,70.5295689 L90.4138035,70.5295689 L90.4138035,66.3599254 L91.0236719,66.3599254 C91.0236719,66.4217964 91.0280912,66.4836665 91.0369299,66.5455375 C91.0457686,66.6074085 91.0501879,66.6648593 91.0501879,66.7178916 C91.0855427,66.6736981 91.1308405,66.6261907 91.1860825,66.575368 C91.2413244,66.5245454 91.3087186,66.4781429 91.3882671,66.436159 C91.4678155,66.3941751 91.5573062,66.3588207 91.6567417,66.3300949 C91.7561773,66.3013691 91.8655548,66.2870064 91.9848774,66.2870064 C92.201426,66.2870064 92.3980845,66.3212559 92.5748588,66.3897559 C92.7516331,66.458256 92.9029939,66.5576901 93.0289456,66.6880611 C93.1548973,66.8184322 93.2532265,66.975317 93.3239362,67.1587204 C93.394646,67.3421238 93.4300003,67.5487256 93.4300003,67.7785323 Z" id="Download-Mobile-App"></path>
            </g>
        </g>
    </g>
</svg>