<?xml version="1.0" encoding="UTF-8"?>
<svg width="150px" height="150px" viewBox="0 0 150 150" version="1.1" xmlns="http://www.w3.org/2000/svg" xmlns:xlink="http://www.w3.org/1999/xlink">
    <!-- Generator: Sketch 45.2 (43514) - http://www.bohemiancoding.com/sketch -->
    <title>Artboard 2DL</title>
    <desc>Created with Sketch.</desc>
    <defs></defs>
    <g id="Page-1" stroke="none" stroke-width="1" fill="none" fill-rule="evenodd">
        <g id="Artboard-2" fill="#FFFFFF">
            <path d="M51,92 C51,94.2 52.8,96 55,96 L59,96 L59,110 C59,113.32 61.68,116 65,116 C68.32,116 71,113.32 71,110 L71,96 L79,96 L79,110 C79,113.32 81.68,116 85,116 C88.32,116 91,113.32 91,110 L91,96 L95,96 C97.2,96 99,94.2 99,92 L99,52 L51,52 L51,92 Z M41,52 C37.68,52 35,54.68 35,58 L35,86 C35,89.32 37.68,92 41,92 C44.32,92 47,89.32 47,86 L47,58 C47,54.68 44.32,52 41,52 Z M109,52 C105.68,52 103,54.68 103,58 L103,86 C103,89.32 105.68,92 109,92 C112.32,92 115,89.32 115,86 L115,58 C115,54.68 112.32,52 109,52 Z M89.12,28.64 L94.32,23.44 C95.12,22.64 95.12,21.4 94.32,20.6 C93.52,19.8 92.28,19.8 91.48,20.6 L85.56,26.52 C82.4,24.92 78.8,24 75,24 C71.16,24 67.56,24.92 64.36,26.52 L58.4,20.6 C57.6,19.8 56.36,19.8 55.56,20.6 C54.76,21.4 54.76,22.64 55.56,23.44 L60.8,28.68 C54.88,33.04 51,40.04 51,48 L99,48 C99,40.04 95.12,33 89.12,28.64 L89.12,28.64 Z M67,40 L63,40 L63,36 L67,36 L67,40 Z M87,40 L83,40 L83,36 L87,36 L87,40 Z" id="Shape" fill-rule="nonzero"></path>
            <path d="M9,124.752583 L11.7353498,124.752583 C12.7966902,124.752583 13.6964039,124.914194 14.4345178,125.23742 C15.1726318,125.560647 15.7732449,125.97794 16.2363753,126.489313 C16.6995056,127.000686 17.0347876,127.582002 17.2422314,128.23328 C17.4496752,128.884557 17.5533956,129.533412 17.5533956,130.179864 C17.5533956,130.971045 17.4110816,131.682615 17.1264494,132.314595 C16.8418172,132.946575 16.4582932,133.484474 15.9758658,133.928307 C15.4934383,134.37214 14.9314188,134.712246 14.2897903,134.948636 C13.6481618,135.185025 12.9703615,135.303218 12.2563689,135.303218 L9,135.303218 L9,124.752583 Z M11.9813866,133.624379 C12.5313539,133.624379 13.0378951,133.547192 13.5010254,133.392815 C13.9641557,133.238438 14.3645645,133.009289 14.7022637,132.705359 C15.0399629,132.40143 15.3028819,132.029967 15.4910286,131.590958 C15.6791753,131.151949 15.7732472,130.642995 15.7732472,130.064082 C15.7732472,129.407981 15.6598785,128.850786 15.4331376,128.39248 C15.2063967,127.934174 14.9193567,127.56271 14.572009,127.278078 C14.2246612,126.993446 13.838725,126.786005 13.4141889,126.65575 C12.9896528,126.525494 12.5844198,126.460368 12.1984779,126.460368 L10.7801483,126.460368 L10.7801483,133.624379 L11.9813866,133.624379 Z M18.4072878,132.220522 C18.4072878,131.776689 18.4917114,131.359396 18.660561,130.968629 C18.8294106,130.577863 19.0633844,130.237757 19.3624894,129.9483 C19.6615944,129.658844 20.011349,129.429694 20.4117638,129.260845 C20.8121786,129.091995 21.2391204,129.007572 21.6926022,129.007572 C22.1557325,129.007572 22.5850865,129.091995 22.980677,129.260845 C23.3762675,129.429694 23.7163737,129.658844 24.0010059,129.9483 C24.2856381,130.237757 24.5099635,130.577863 24.6739888,130.968629 C24.8380141,131.359396 24.9200256,131.776689 24.9200256,132.220522 C24.9200256,132.664356 24.8404262,133.084061 24.6812252,133.479652 C24.5220241,133.875242 24.2976987,134.220173 24.0082423,134.514453 C23.7187858,134.808734 23.3762675,135.040296 22.980677,135.209145 C22.5850865,135.377995 22.1509083,135.462418 21.6781295,135.462418 C21.2246477,135.462418 20.8001179,135.385231 20.4045274,135.230854 C20.0089369,135.076478 19.6640065,134.856976 19.3697257,134.572344 C19.075445,134.287712 18.8414712,133.945194 18.6677973,133.544779 C18.4941235,133.144364 18.4072878,132.70295 18.4072878,132.220522 Z M19.7821991,132.234995 C19.7821991,132.495506 19.8304412,132.739128 19.9269266,132.965869 C20.0234121,133.19261 20.1560777,133.390402 20.3249273,133.559252 C20.4937769,133.728101 20.6915692,133.860767 20.9183101,133.957252 C21.1450509,134.053738 21.3886731,134.10198 21.649184,134.10198 C21.9096948,134.10198 22.153317,134.053738 22.3800579,133.957252 C22.6067987,133.860767 22.804591,133.728101 22.9734406,133.559252 C23.1422902,133.390402 23.2773679,133.19261 23.3786776,132.965869 C23.4799874,132.739128 23.5306415,132.495506 23.5306415,132.234995 C23.5306415,131.974484 23.4799874,131.730862 23.3786776,131.504121 C23.2773679,131.27738 23.1422902,131.079588 22.9734406,130.910738 C22.804591,130.741889 22.6067987,130.606811 22.3800579,130.505501 C22.153317,130.404192 21.9096948,130.353537 21.649184,130.353537 C21.3886731,130.353537 21.1450509,130.404192 20.9183101,130.505501 C20.6915692,130.606811 20.4937769,130.741889 20.3249273,130.910738 C20.1560777,131.079588 20.0234121,131.27738 19.9269266,131.504121 C19.8304412,131.730862 19.7821991,131.974484 19.7821991,132.234995 Z M29.3776327,130.04961 L28.957923,129.152299 L30.1591613,129.152299 C30.4486177,129.779455 30.6898278,130.314941 30.8827988,130.758774 C31.0757698,131.202608 31.2349684,131.576483 31.3603996,131.880413 C31.4858307,132.184342 31.5847268,132.430376 31.6570909,132.618523 C31.7294551,132.80667 31.7849334,132.958632 31.8235276,133.074415 C31.8621218,132.813904 31.9127759,132.577518 31.9754915,132.36525 C32.038207,132.152982 32.1274548,131.911772 32.2432373,131.641612 C32.3590199,131.371453 32.5061581,131.043407 32.6846562,130.657465 C32.8631544,130.271523 33.0826556,129.769806 33.3431664,129.152299 L34.7325504,129.152299 L31.8235276,135.665037 C31.6402051,135.298392 31.4761823,134.938989 31.3314541,134.586817 C31.1867258,134.234645 31.0419998,133.88489 30.8972715,133.537543 C30.7525433,133.190195 30.6054052,132.84044 30.4558526,132.488268 C30.3063001,132.136096 30.1398652,131.776693 29.9565428,131.410048 C29.6284921,132.143338 29.3173311,132.852496 29.0230503,133.537543 C28.7287696,134.22259 28.4224328,134.931747 28.1040307,135.665037 L25.3397353,129.152299 L26.7291194,129.152299 C26.9896302,129.779455 27.2018951,130.285996 27.3659204,130.671938 C27.5299457,131.05788 27.6601992,131.385926 27.7566847,131.656085 C27.8531702,131.926244 27.9255332,132.165042 27.9737759,132.372486 C28.0220187,132.57993 28.0654365,132.813904 28.1040307,133.074415 C28.1329763,132.987578 28.1691578,132.886269 28.2125763,132.770487 C28.2559948,132.654704 28.3211215,132.488269 28.4079584,132.271177 C28.4947954,132.054085 28.6154004,131.769457 28.7697772,131.417285 C28.924154,131.065113 29.1267705,130.609226 29.3776327,130.04961 Z M35.6443337,129.152299 L36.8600448,129.152299 C36.8793419,129.499647 36.9010508,129.781863 36.9251721,129.998955 C36.9492935,130.216047 36.9710024,130.45967 36.9902995,130.729829 C37.2122161,130.208807 37.5257893,129.789102 37.9310283,129.4707 C38.3362673,129.152298 38.8428085,128.993099 39.4506671,128.993099 C40.0778228,128.993099 40.5771277,129.164358 40.9485968,129.506882 C41.3200659,129.849405 41.5154461,130.295644 41.5347432,130.845611 L41.5347432,135.303218 L40.1598319,135.303218 L40.1598319,131.496885 C40.1405348,131.19778 40.0344023,130.939685 39.8414314,130.722593 C39.6484604,130.5055 39.3493599,130.387307 38.9441208,130.36801 C38.6643129,130.36801 38.4062181,130.418664 38.1698287,130.519974 C37.9334392,130.621284 37.7308228,130.758774 37.5619732,130.932447 C37.3931236,131.106121 37.2628701,131.313562 37.1712089,131.554776 C37.0795477,131.795989 37.0337178,132.056496 37.0337178,132.336304 L37.0337178,135.303218 L35.6443337,135.303218 L35.6443337,129.152299 Z M44.5740208,135.303218 L43.1991095,135.303218 L43.1991095,124 L44.5740208,124 L44.5740208,135.303218 Z M45.8910411,132.220522 C45.8910411,131.776689 45.9754646,131.359396 46.1443142,130.968629 C46.3131638,130.577863 46.5471376,130.237757 46.8462426,129.9483 C47.1453476,129.658844 47.4951023,129.429694 47.895517,129.260845 C48.2959318,129.091995 48.7228737,129.007572 49.1763554,129.007572 C49.6394858,129.007572 50.0688398,129.091995 50.4644302,129.260845 C50.8600207,129.429694 51.200127,129.658844 51.4847592,129.9483 C51.7693913,130.237757 51.9937167,130.577863 52.1577421,130.968629 C52.3217674,131.359396 52.4037788,131.776689 52.4037788,132.220522 C52.4037788,132.664356 52.3241795,133.084061 52.1649784,133.479652 C52.0057774,133.875242 51.781452,134.220173 51.4919955,134.514453 C51.2025391,134.808734 50.8600207,135.040296 50.4644302,135.209145 C50.0688398,135.377995 49.6346616,135.462418 49.1618827,135.462418 C48.7084009,135.462418 48.2838711,135.385231 47.8882807,135.230854 C47.4926902,135.076478 47.1477597,134.856976 46.853479,134.572344 C46.5591983,134.287712 46.3252245,133.945194 46.1515506,133.544779 C45.9778767,133.144364 45.8910411,132.70295 45.8910411,132.220522 Z M47.2659524,132.234995 C47.2659524,132.495506 47.3141944,132.739128 47.4106799,132.965869 C47.5071654,133.19261 47.6398309,133.390402 47.8086805,133.559252 C47.9775301,133.728101 48.1753224,133.860767 48.4020633,133.957252 C48.6288042,134.053738 48.8724264,134.10198 49.1329372,134.10198 C49.393448,134.10198 49.6370702,134.053738 49.8638111,133.957252 C50.090552,133.860767 50.2883443,133.728101 50.4571939,133.559252 C50.6260435,133.390402 50.7611211,133.19261 50.8624309,132.965869 C50.9637406,132.739128 51.0143948,132.495506 51.0143948,132.234995 C51.0143948,131.974484 50.9637406,131.730862 50.8624309,131.504121 C50.7611211,131.27738 50.6260435,131.079588 50.4571939,130.910738 C50.2883443,130.741889 50.090552,130.606811 49.8638111,130.505501 C49.6370702,130.404192 49.393448,130.353537 49.1329372,130.353537 C48.8724264,130.353537 48.6288042,130.404192 48.4020633,130.505501 C48.1753224,130.606811 47.9775301,130.741889 47.8086805,130.910738 C47.6398309,131.079588 47.5071654,131.27738 47.4106799,131.504121 C47.3141944,131.730862 47.2659524,131.974484 47.2659524,132.234995 Z M53.3300348,132.292886 C53.3300348,131.849053 53.4168705,131.426935 53.5905444,131.02652 C53.7642182,130.626106 53.998192,130.276351 54.2924728,129.977246 C54.5867535,129.678141 54.9292718,129.439343 55.320038,129.260845 C55.7108043,129.082347 56.1232735,128.993099 56.5574582,128.993099 C56.8469147,128.993099 57.1074216,129.02928 57.3389867,129.101645 C57.5705519,129.174009 57.7707563,129.258432 57.9396059,129.354918 C58.1084555,129.451403 58.241121,129.550299 58.3376065,129.651609 C58.434092,129.752919 58.4968066,129.832518 58.5257523,129.890409 L58.5836433,129.152299 L59.9296091,129.152299 L59.9296091,135.303218 L58.5257523,135.303218 L58.5257523,134.897981 C58.5257523,134.849738 58.5281644,134.803908 58.5329887,134.76049 C58.5378129,134.717072 58.540225,134.685714 58.540225,134.666417 C58.5016308,134.71466 58.434092,134.784611 58.3376065,134.876272 C58.241121,134.967933 58.1108676,135.057181 57.9468423,135.144018 C57.7828169,135.230855 57.5874368,135.30563 57.3606959,135.368346 C57.133955,135.431061 56.871036,135.462418 56.571931,135.462418 C56.0991521,135.462418 55.6649739,135.375583 55.2693834,135.201909 C54.8737929,135.028235 54.5312746,134.796673 54.2418181,134.507217 C53.9523617,134.21776 53.7280363,133.882478 53.5688352,133.501361 C53.4096342,133.120243 53.3300348,132.717422 53.3300348,132.292886 Z M54.7338916,132.20605 C54.7338916,132.476209 54.7797216,132.727067 54.8713828,132.958633 C54.963044,133.190198 55.0932974,133.390402 55.262147,133.559252 C55.4309966,133.728101 55.631201,133.860767 55.8627662,133.957252 C56.0943314,134.053738 56.3500141,134.10198 56.629822,134.10198 C56.9096299,134.10198 57.1653126,134.053738 57.3968777,133.957252 C57.6284429,133.860767 57.8286473,133.725689 57.9974969,133.552015 C58.1663465,133.378341 58.2965999,133.175725 58.3882612,132.94416 C58.4799224,132.712595 58.5257523,132.46656 58.5257523,132.20605 C58.5257523,131.945539 58.4799224,131.701917 58.3882612,131.475176 C58.2965999,131.248435 58.1663465,131.053055 57.9974969,130.889029 C57.8286473,130.725004 57.6284429,130.59475 57.3968777,130.498265 C57.1653126,130.401779 56.9096299,130.353537 56.629822,130.353537 C56.3500141,130.353537 56.0943314,130.399367 55.8627662,130.491029 C55.631201,130.58269 55.4309966,130.712943 55.262147,130.881793 C55.0932974,131.050642 54.963044,131.248435 54.8713828,131.475176 C54.7797216,131.701917 54.7338916,131.945539 54.7338916,132.20605 Z M61.2611021,132.234995 C61.2611021,131.752568 61.3407015,131.313565 61.4999025,130.917975 C61.6591036,130.522384 61.8810169,130.182278 62.165649,129.897646 C62.4502812,129.613014 62.7831512,129.3911 63.1642688,129.231899 C63.5453865,129.072698 63.96268,128.993099 64.4161617,128.993099 C64.7249153,128.993099 64.9950706,129.026868 65.2266358,129.094408 C65.4582009,129.161948 65.6559932,129.243959 65.8200185,129.340445 C65.9840439,129.43693 66.1167094,129.540651 66.2180192,129.651609 C66.3193289,129.762567 66.3989283,129.856639 66.4568196,129.933828 L66.4568196,124 L67.8462036,124 L67.8462036,135.303218 L66.4568196,135.303218 L66.4568196,134.897981 C66.4568196,134.849738 66.4616438,134.796672 66.4712923,134.738781 C66.4809409,134.68089 66.4857651,134.637472 66.4857651,134.608526 C66.3989281,134.695363 66.2927957,134.789435 66.1673646,134.890745 C66.0419334,134.992055 65.8923832,135.086126 65.7187093,135.172963 C65.5450354,135.2598 65.3496552,135.329751 65.1325629,135.382818 C64.9154706,135.435885 64.6670242,135.462418 64.3872162,135.462418 C63.8951403,135.462418 63.4537258,135.377995 63.0629596,135.209145 C62.6721934,135.040296 62.3441476,134.808734 62.0788125,134.514453 C61.8134774,134.220173 61.610861,133.877654 61.470957,133.486888 C61.3310531,133.096122 61.2611021,132.678828 61.2611021,132.234995 Z M62.6504862,132.20605 C62.6504862,132.476209 62.6963161,132.727067 62.7879773,132.958633 C62.8796385,133.190198 63.009892,133.390402 63.1787416,133.559252 C63.3475912,133.728101 63.5477956,133.860767 63.7793607,133.957252 C64.0109259,134.053738 64.2666086,134.10198 64.5464165,134.10198 C64.8262244,134.10198 65.0843192,134.053738 65.3207087,133.957252 C65.5570981,133.860767 65.7597146,133.725689 65.9285642,133.552015 C66.0974138,133.378341 66.2276672,133.175725 66.3193284,132.94416 C66.4109897,132.712595 66.4568196,132.46656 66.4568196,132.20605 C66.4568196,131.945539 66.4109897,131.701917 66.3193284,131.475176 C66.2276672,131.248435 66.0974138,131.053055 65.9285642,130.889029 C65.7597146,130.725004 65.5570981,130.59475 65.3207087,130.498265 C65.0843192,130.401779 64.8262244,130.353537 64.5464165,130.353537 C64.2666086,130.353537 64.0109259,130.399367 63.7793607,130.491029 C63.5477956,130.58269 63.3475912,130.712943 63.1787416,130.881793 C63.009892,131.050642 62.8796385,131.248435 62.7879773,131.475176 C62.6963161,131.701917 62.6504862,131.945539 62.6504862,132.20605 Z M73.2155941,124.289455 C73.2638368,124.356995 73.3699692,124.508957 73.5339946,124.745347 C73.6980199,124.981736 73.9030485,125.271188 74.1490865,125.613712 C74.3951245,125.956235 74.670104,126.334935 74.9740333,126.749823 C75.2779625,127.16471 75.5867115,127.586828 75.9002893,128.016188 C76.2138671,128.445549 76.5202039,128.865254 76.8193089,129.275318 C77.1184139,129.685381 77.3885693,130.059257 77.629783,130.396956 C77.8709967,130.734655 78.0760253,131.016871 78.2448749,131.243612 C78.4137245,131.470353 78.5174448,131.612666 78.556039,131.670558 C78.5753361,131.641612 78.6621717,131.518595 78.8165485,131.301503 C78.9709253,131.08441 79.1663055,130.811843 79.4026949,130.483792 C79.6390844,130.155742 79.9068276,129.781866 80.2059326,129.362154 C80.5050376,128.942442 80.8137865,128.5155 81.1321886,128.081316 C81.4505907,127.647131 81.7617517,127.217777 82.065681,126.793241 C82.3696103,126.368705 82.649414,125.982769 82.9051005,125.635421 C83.1607871,125.288073 83.3754641,124.993797 83.5491379,124.752583 C83.7228118,124.511369 83.8337685,124.356995 83.8820112,124.289455 L83.8820112,135.303218 L81.9860809,135.303218 L81.9860809,129.919355 C81.9860809,129.842167 81.9957293,129.760155 82.0150264,129.673318 C82.0343235,129.586481 82.0439719,129.533415 82.0439719,129.514118 L78.556039,134.536162 C78.5077963,134.478271 78.3896033,134.319072 78.2014566,134.058562 C78.0133099,133.798051 77.7889845,133.489302 77.5284737,133.132306 C77.2679629,132.775309 76.9929834,132.391785 76.7035269,131.981722 C76.4140705,131.571659 76.1415031,131.190547 75.8858165,130.838375 C75.63013,130.486203 75.4130409,130.187102 75.2345428,129.941064 C75.0560446,129.695026 74.9571485,129.552712 74.9378514,129.514118 C74.9378514,129.533415 74.9474998,129.586481 74.9667969,129.673318 C74.986094,129.760155 74.9957424,129.842167 74.9957424,129.919355 L74.9957424,135.303218 L73.2155941,135.303218 L73.2155941,124.289455 Z M85.3003407,132.220522 C85.3003407,131.776689 85.3847643,131.359396 85.5536139,130.968629 C85.7224635,130.577863 85.9564373,130.237757 86.2555423,129.9483 C86.5546473,129.658844 86.9044019,129.429694 87.3048167,129.260845 C87.7052315,129.091995 88.1321733,129.007572 88.5856551,129.007572 C89.0487854,129.007572 89.4781394,129.091995 89.8737299,129.260845 C90.2693204,129.429694 90.6094266,129.658844 90.8940588,129.9483 C91.178691,130.237757 91.4030164,130.577863 91.5670417,130.968629 C91.731067,131.359396 91.8130785,131.776689 91.8130785,132.220522 C91.8130785,132.664356 91.7334791,133.084061 91.5742781,133.479652 C91.415077,133.875242 91.1907517,134.220173 90.9012952,134.514453 C90.6118387,134.808734 90.2693204,135.040296 89.8737299,135.209145 C89.4781394,135.377995 89.0439612,135.462418 88.5711824,135.462418 C88.1177006,135.462418 87.6931708,135.385231 87.2975803,135.230854 C86.9019898,135.076478 86.5570594,134.856976 86.2627787,134.572344 C85.9684979,134.287712 85.7345241,133.945194 85.5608503,133.544779 C85.3871764,133.144364 85.3003407,132.70295 85.3003407,132.220522 Z M86.675252,132.234995 C86.675252,132.495506 86.7234941,132.739128 86.8199796,132.965869 C86.916465,133.19261 87.0491306,133.390402 87.2179802,133.559252 C87.3868298,133.728101 87.5846221,133.860767 87.811363,133.957252 C88.0381039,134.053738 88.2817261,134.10198 88.5422369,134.10198 C88.8027477,134.10198 89.0463699,134.053738 89.2731108,133.957252 C89.4998517,133.860767 89.6976439,133.728101 89.8664935,133.559252 C90.0353431,133.390402 90.1704208,133.19261 90.2717306,132.965869 C90.3730403,132.739128 90.4236944,132.495506 90.4236944,132.234995 C90.4236944,131.974484 90.3730403,131.730862 90.2717306,131.504121 C90.1704208,131.27738 90.0353431,131.079588 89.8664935,130.910738 C89.6976439,130.741889 89.4998517,130.606811 89.2731108,130.505501 C89.0463699,130.404192 88.8027477,130.353537 88.5422369,130.353537 C88.2817261,130.353537 88.0381039,130.404192 87.811363,130.505501 C87.5846221,130.606811 87.3868298,130.741889 87.2179802,130.910738 C87.0491306,131.079588 86.916465,131.27738 86.8199796,131.504121 C86.7234941,131.730862 86.675252,131.974484 86.675252,132.234995 Z M99.7152003,132.249468 C99.7152003,132.712598 99.638013,133.13954 99.4836363,133.530306 C99.3292595,133.921072 99.1097583,134.261179 98.8251261,134.550635 C98.5404939,134.840092 98.2003877,135.064417 97.8047972,135.223618 C97.4092067,135.382819 96.9750285,135.462418 96.5022497,135.462418 C96.0294708,135.462418 95.6121773,135.373171 95.2503567,135.194673 C94.8885362,135.016174 94.6400898,134.825618 94.5050101,134.622999 C94.5050101,134.661593 94.5074222,134.697775 94.5122465,134.731545 C94.5170707,134.765314 94.5194828,134.80632 94.5194828,134.854563 L94.5194828,135.303218 L93.1300988,135.303218 L93.1300988,124 L94.5194828,124 L94.5194828,129.933828 C94.5966712,129.837342 94.6955674,129.733622 94.8161742,129.622664 C94.9367811,129.511705 95.0839192,129.410397 95.2575931,129.318736 C95.431267,129.227075 95.6266472,129.149887 95.8437395,129.087172 C96.0608318,129.024456 96.2996298,128.993099 96.5601407,128.993099 C97.0329195,128.993099 97.4622735,129.067874 97.8482154,129.217427 C98.2341574,129.366979 98.5646152,129.584068 98.8395989,129.8687 C99.1145825,130.153333 99.3292595,130.495851 99.4836363,130.896266 C99.638013,131.29668 99.7152003,131.747743 99.7152003,132.249468 Z M98.2100342,132.220522 C98.2100342,131.680204 98.0532476,131.233965 97.7396698,130.881793 C97.426092,130.529621 96.9895017,130.353537 96.4298859,130.353537 C96.150078,130.353537 95.8943953,130.399367 95.6628301,130.491029 C95.431265,130.58269 95.2310606,130.712943 95.062211,130.881793 C94.8933614,131.050642 94.7606958,131.248435 94.6642103,131.475176 C94.5677248,131.701917 94.5194828,131.945539 94.5194828,132.20605 C94.5194828,132.476209 94.5677248,132.727067 94.6642103,132.958633 C94.7606958,133.190198 94.8933614,133.390402 95.062211,133.559252 C95.2310606,133.728101 95.431265,133.860767 95.6628301,133.957252 C95.8943953,134.053738 96.150078,134.10198 96.4298859,134.10198 C96.7096938,134.10198 96.9605523,134.053738 97.1824689,133.957252 C97.4043855,133.860767 97.5901173,133.725689 97.7396698,133.552015 C97.8892223,133.378341 98.0050032,133.178137 98.0870158,132.951396 C98.1690285,132.724655 98.2100342,132.481033 98.2100342,132.220522 Z M100.901966,126.764295 C100.901966,126.513433 100.993626,126.305992 101.176948,126.141967 C101.36027,125.977942 101.558063,125.89593 101.770331,125.89593 C101.982599,125.89593 102.177979,125.977942 102.356477,126.141967 C102.534975,126.305992 102.624223,126.513433 102.624223,126.764295 C102.624223,127.024806 102.534975,127.234659 102.356477,127.39386 C102.177979,127.553061 101.982599,127.63266 101.770331,127.63266 C101.558063,127.63266 101.36027,127.553061 101.176948,127.39386 C100.993626,127.234659 100.901966,127.024806 100.901966,126.764295 Z M102.45055,135.303218 L101.061166,135.303218 L101.061166,129.152299 L102.45055,129.152299 L102.45055,135.303218 Z M105.533246,135.303218 L104.158335,135.303218 L104.158335,124 L105.533246,124 L105.533246,135.303218 Z M112.523584,134.594053 C112.224479,134.864213 111.862664,135.076478 111.438128,135.230854 C111.013592,135.385231 110.579414,135.462418 110.135581,135.462418 C109.682099,135.462418 109.255157,135.377995 108.854742,135.209145 C108.454327,135.040296 108.106985,134.808734 107.812704,134.514453 C107.518423,134.220173 107.28445,133.877654 107.110776,133.486888 C106.937102,133.096122 106.850266,132.678828 106.850266,132.234995 C106.850266,131.791162 106.937102,131.373868 107.110776,130.983102 C107.28445,130.592336 107.518423,130.249818 107.812704,129.955537 C108.106985,129.661256 108.449503,129.429694 108.840269,129.260845 C109.231036,129.091995 109.643505,129.007572 110.07769,129.007572 C110.772385,129.007572 111.382647,129.217424 111.908493,129.637136 C112.434338,130.056848 112.808214,130.609219 113.030131,131.294266 C112.740674,131.4004 112.405392,131.528242 112.024275,131.677794 C111.643157,131.827347 111.24516,131.984133 110.830273,132.148159 C110.415385,132.312184 110.000504,132.478619 109.585616,132.647468 C109.170729,132.816318 108.789617,132.96828 108.442269,133.10336 C108.606294,133.402465 108.833032,133.643675 109.122488,133.826998 C109.411945,134.01032 109.73999,134.10198 110.106635,134.10198 C110.357497,134.10198 110.610768,134.05615 110.866455,133.964489 C111.122141,133.872828 111.331994,133.74981 111.496019,133.595434 L112.523584,134.594053 Z M111.307873,130.975866 C111.192091,130.763598 111.01842,130.606811 110.786854,130.505501 C110.555289,130.404192 110.328552,130.353537 110.106635,130.353537 C109.846124,130.353537 109.60009,130.404192 109.368525,130.505501 C109.13696,130.606811 108.939167,130.741889 108.775142,130.910738 C108.611117,131.079588 108.480863,131.272556 108.384378,131.489648 C108.287892,131.706741 108.23965,131.931066 108.23965,132.162631 L108.23965,132.220522 C108.480864,132.124037 108.738959,132.020316 109.013942,131.909358 C109.288926,131.7984 109.563906,131.685031 109.838889,131.569249 C110.113873,131.453466 110.376792,131.344921 110.627654,131.243612 C110.878516,131.142302 111.105254,131.053054 111.307873,130.975866 Z M123.826803,135.303218 C123.797857,135.235678 123.747203,135.115073 123.674839,134.941399 C123.602475,134.767726 123.513227,134.555461 123.407093,134.304598 C123.300959,134.053736 123.185178,133.776344 123.059747,133.472415 C122.934316,133.168486 122.804062,132.852501 122.668983,132.52445 L119.036322,132.52445 L117.878502,135.303218 L116.127299,135.303218 C116.165894,135.216381 116.257553,135.001704 116.402282,134.659181 C116.54701,134.316657 116.727917,133.892128 116.94501,133.385579 C117.162102,132.87903 117.403312,132.314598 117.668647,131.692267 C117.933982,131.069936 118.20655,130.435553 118.486358,129.7891 C118.766166,129.142647 119.038733,128.508265 119.304068,127.885934 C119.569403,127.263602 119.810613,126.699171 120.027706,126.192622 C120.244798,125.686073 120.425706,125.261543 120.570434,124.91902 C120.715162,124.576496 120.806822,124.361819 120.845416,124.274982 C120.88401,124.361819 120.978082,124.576496 121.127635,124.91902 C121.277187,125.261543 121.460507,125.686073 121.677599,126.192622 C121.894692,126.699171 122.135902,127.263602 122.401237,127.885934 C122.666572,128.508265 122.939139,129.142647 123.218947,129.7891 C123.498755,130.435553 123.771322,131.069936 124.036658,131.692267 C124.301993,132.314598 124.543203,132.87903 124.760295,133.385579 C124.977387,133.892128 125.158295,134.316657 125.303023,134.659181 C125.447751,135.001704 125.539411,135.216381 125.578005,135.303218 L123.826803,135.303218 Z M119.644178,131.033757 L122.046654,131.033757 L121.004616,128.515498 C120.994968,128.50585 120.970847,128.440723 120.932253,128.320116 C120.893658,128.199509 120.864713,128.090965 120.845416,127.994479 C120.826119,128.090965 120.797174,128.199509 120.75858,128.320116 C120.719985,128.440723 120.700689,128.50585 120.700689,128.515498 L119.644178,131.033757 Z M131.511833,132.220522 C131.511833,131.680204 131.355047,131.233965 131.041469,130.881793 C130.727891,130.529621 130.291301,130.353537 129.731685,130.353537 C129.451877,130.353537 129.196194,130.399367 128.964629,130.491029 C128.733064,130.58269 128.53286,130.712943 128.36401,130.881793 C128.19516,131.050642 128.062495,131.248435 127.966009,131.475176 C127.869524,131.701917 127.821282,131.945539 127.821282,132.20605 C127.821282,132.476209 127.869524,132.727067 127.966009,132.958633 C128.062495,133.190198 128.19516,133.390402 128.36401,133.559252 C128.53286,133.728101 128.733064,133.860767 128.964629,133.957252 C129.196194,134.053738 129.451877,134.10198 129.731685,134.10198 C130.011493,134.10198 130.262351,134.053738 130.484268,133.957252 C130.706184,133.860767 130.891916,133.725689 131.041469,133.552015 C131.191021,133.378341 131.306802,133.178137 131.388815,132.951396 C131.470827,132.724655 131.511833,132.481033 131.511833,132.220522 Z M133.016999,132.249468 C133.016999,132.712598 132.939812,133.13954 132.785435,133.530306 C132.631058,133.921072 132.411557,134.261179 132.126925,134.550635 C131.842293,134.840092 131.502187,135.064417 131.106596,135.223618 C130.711006,135.382819 130.276827,135.462418 129.804049,135.462418 C129.33127,135.462418 128.913976,135.373171 128.552156,135.194673 C128.190335,135.016174 127.941889,134.825618 127.806809,134.622999 C127.806809,134.661593 127.809221,134.697775 127.814045,134.731545 C127.81887,134.765314 127.821282,134.80632 127.821282,134.854563 L127.821282,138.255659 L126.431898,138.255659 L126.431898,129.152299 L127.763391,129.152299 C127.763391,129.287379 127.773039,129.422457 127.792336,129.557536 C127.811633,129.692616 127.821282,129.818045 127.821282,129.933828 C127.89847,129.837342 127.997366,129.733622 128.117973,129.622664 C128.23858,129.511705 128.385718,129.410397 128.559392,129.318736 C128.733066,129.227075 128.928446,129.149887 129.145538,129.087172 C129.362631,129.024456 129.601429,128.993099 129.86194,128.993099 C130.334718,128.993099 130.764072,129.067874 131.150014,129.217427 C131.535956,129.366979 131.866414,129.584068 132.141398,129.8687 C132.416381,130.153333 132.631058,130.495851 132.785435,130.896266 C132.939812,131.29668 133.016999,131.747743 133.016999,132.249468 Z M139.428428,132.220522 C139.428428,131.680204 139.271641,131.233965 138.958063,130.881793 C138.644485,130.529621 138.207895,130.353537 137.648279,130.353537 C137.368471,130.353537 137.112789,130.399367 136.881224,130.491029 C136.649658,130.58269 136.449454,130.712943 136.280604,130.881793 C136.111755,131.050642 135.979089,131.248435 135.882604,131.475176 C135.786118,131.701917 135.737876,131.945539 135.737876,132.20605 C135.737876,132.476209 135.786118,132.727067 135.882604,132.958633 C135.979089,133.190198 136.111755,133.390402 136.280604,133.559252 C136.449454,133.728101 136.649658,133.860767 136.881224,133.957252 C137.112789,134.053738 137.368471,134.10198 137.648279,134.10198 C137.928087,134.10198 138.178946,134.053738 138.400862,133.957252 C138.622779,133.860767 138.808511,133.725689 138.958063,133.552015 C139.107616,133.378341 139.223397,133.178137 139.305409,132.951396 C139.387422,132.724655 139.428428,132.481033 139.428428,132.220522 Z M140.933594,132.249468 C140.933594,132.712598 140.856407,133.13954 140.70203,133.530306 C140.547653,133.921072 140.328152,134.261179 140.04352,134.550635 C139.758887,134.840092 139.418781,135.064417 139.023191,135.223618 C138.6276,135.382819 138.193422,135.462418 137.720643,135.462418 C137.247864,135.462418 136.830571,135.373171 136.46875,135.194673 C136.10693,135.016174 135.858483,134.825618 135.723404,134.622999 C135.723404,134.661593 135.725816,134.697775 135.73064,134.731545 C135.735464,134.765314 135.737876,134.80632 135.737876,134.854563 L135.737876,138.255659 L134.348492,138.255659 L134.348492,129.152299 L135.679985,129.152299 C135.679985,129.287379 135.689634,129.422457 135.708931,129.557536 C135.728228,129.692616 135.737876,129.818045 135.737876,129.933828 C135.815065,129.837342 135.913961,129.733622 136.034568,129.622664 C136.155175,129.511705 136.302313,129.410397 136.475987,129.318736 C136.64966,129.227075 136.845041,129.149887 137.062133,129.087172 C137.279225,129.024456 137.518023,128.993099 137.778534,128.993099 C138.251313,128.993099 138.680667,129.067874 139.066609,129.217427 C139.452551,129.366979 139.783009,129.584068 140.057992,129.8687 C140.332976,130.153333 140.547653,130.495851 140.70203,130.896266 C140.856407,131.29668 140.933594,131.747743 140.933594,132.249468 Z" id="Download-Mobile-App"></path>
            <path d="M7,7 L7,144 L144,144 L144,7 L7,7 Z M5,5 L146,5 L146,146 L5,146 L5,5 Z" id="Rectangle-2" fill-rule="nonzero"></path>
        </g>
    </g>
</svg>