<?xml version="1.0" encoding="UTF-8"?>
<svg width="134px" height="80px" viewBox="0 0 134 80" version="1.1" xmlns="http://www.w3.org/2000/svg" xmlns:xlink="http://www.w3.org/1999/xlink">
    <!-- Generator: Sketch 45.2 (43514) - http://www.bohemiancoding.com/sketch -->
    <title>android-text-too-wideDL</title>
    <desc>Created with Sketch.</desc>
    <defs></defs>
    <g id="Page-1" stroke="none" stroke-width="1" fill="none" fill-rule="evenodd">
        <g id="android-text-too-wide" fill="#FFFFFF">
            <g id="Group" transform="translate(4.000000, 4.000000)">
                <path d="M52.790625,40.5578125 C52.790625,41.4915234 53.5545703,42.2554687 54.4882812,42.2554687 L56.1859375,42.2554687 L56.1859375,48.1972656 C56.1859375,49.6063203 57.3233672,50.74375 58.7324219,50.74375 C60.1414766,50.74375 61.2789063,49.6063203 61.2789063,48.1972656 L61.2789063,42.2554687 L64.6742188,42.2554687 L64.6742188,48.1972656 C64.6742188,49.6063203 65.8116484,50.74375 67.2207031,50.74375 C68.6297578,50.74375 69.7671875,49.6063203 69.7671875,48.1972656 L69.7671875,42.2554687 L71.4648438,42.2554687 C72.3985547,42.2554687 73.1625,41.4915234 73.1625,40.5578125 L73.1625,23.58125 L52.790625,23.58125 L52.790625,40.5578125 Z M48.5464844,23.58125 C47.1374297,23.58125 46,24.7186797 46,26.1277344 L46,38.0113281 C46,39.4203828 47.1374297,40.5578125 48.5464844,40.5578125 C49.9555391,40.5578125 51.0929687,39.4203828 51.0929687,38.0113281 L51.0929687,26.1277344 C51.0929687,24.7186797 49.9555391,23.58125 48.5464844,23.58125 Z M77.4066406,23.58125 C75.9975859,23.58125 74.8601563,24.7186797 74.8601563,26.1277344 L74.8601563,38.0113281 C74.8601563,39.4203828 75.9975859,40.5578125 77.4066406,40.5578125 C78.8156953,40.5578125 79.953125,39.4203828 79.953125,38.0113281 L79.953125,26.1277344 C79.953125,24.7186797 78.8156953,23.58125 77.4066406,23.58125 Z M68.9692891,13.6669375 L71.1762422,11.4599844 C71.5157734,11.1204531 71.5157734,10.5941797 71.1762422,10.2546484 C70.8367109,9.91511719 70.3104375,9.91511719 69.9709063,10.2546484 L67.458375,12.7671797 C66.1172266,12.0881172 64.5893359,11.6976562 62.9765625,11.6976562 C61.3468125,11.6976562 59.8189219,12.0881172 58.4607969,12.7671797 L55.9312891,10.2546484 C55.5917578,9.91511719 55.0654844,9.91511719 54.7259531,10.2546484 C54.3864219,10.5941797 54.3864219,11.1204531 54.7259531,11.4599844 L56.9498828,13.6839141 C54.4373516,15.5343594 52.790625,18.5052578 52.790625,21.8835937 L73.1625,21.8835937 C73.1625,18.5052578 71.5157734,15.5173828 68.9692891,13.6669375 L68.9692891,13.6669375 Z M59.58125,18.4882813 L57.8835938,18.4882813 L57.8835938,16.790625 L59.58125,16.790625 L59.58125,18.4882813 Z M68.0695313,18.4882813 L66.371875,18.4882813 L66.371875,16.790625 L68.0695313,16.790625 L68.0695313,18.4882813 Z" id="Shape" fill-rule="nonzero"></path>
                <path d="M2,2 L2,71.1464844 L124.082031,71.1464844 L124.082031,2 L2,2 Z M0,0 L126.082031,0 L126.082031,73.1464844 L0,73.1464844 L0,0 Z" id="Rectangle-3" fill-rule="nonzero"></path>
                <path d="M27.1203711,56.168 L28.6323711,56.168 C29.2190407,56.168 29.7163691,56.2573324 30.1243711,56.436 C30.5323731,56.6146676 30.8643698,56.8453319 31.1203711,57.128 C31.3763724,57.4106681 31.5617039,57.7319982 31.6763711,58.092 C31.7910383,58.4520018 31.8483711,58.8106649 31.8483711,59.168 C31.8483711,59.6053355 31.7697052,59.9986649 31.6123711,60.348 C31.455037,60.6973351 31.2430391,60.9946654 30.9763711,61.24 C30.7097031,61.4853346 30.3990395,61.6733327 30.0443711,61.804 C29.6897027,61.9346673 29.3150397,62 28.9203711,62 L27.1203711,62 L27.1203711,56.168 Z M28.7683711,61.072 C29.0723726,61.072 29.3523698,61.0293338 29.6083711,60.944 C29.8643724,60.8586662 30.0857035,60.7320008 30.2723711,60.564 C30.4590387,60.3959992 30.6043706,60.1906679 30.7083711,59.948 C30.8123716,59.7053321 30.8643711,59.4240016 30.8643711,59.104 C30.8643711,58.7413315 30.8017051,58.4333346 30.6763711,58.18 C30.5510371,57.9266654 30.3923721,57.7213341 30.2003711,57.564 C30.0083701,57.4066659 29.7950389,57.2920004 29.5603711,57.22 C29.3257033,57.1479996 29.1017055,57.112 28.8883711,57.112 L28.1043711,57.112 L28.1043711,61.072 L28.7683711,61.072 Z M32.3203711,60.296 C32.3203711,60.0506654 32.3670373,59.8200011 32.4603711,59.604 C32.5537049,59.3879989 32.6830369,59.2000008 32.8483711,59.04 C33.0137053,58.8799992 33.2070367,58.7533338 33.4283711,58.66 C33.6497055,58.5666662 33.8857032,58.52 34.1363711,58.52 C34.3923724,58.52 34.6297033,58.5666662 34.8483711,58.66 C35.0670389,58.7533338 35.255037,58.8799992 35.4123711,59.04 C35.5697052,59.2000008 35.693704,59.3879989 35.7843711,59.604 C35.8750382,59.8200011 35.9203711,60.0506654 35.9203711,60.296 C35.9203711,60.5413346 35.8763715,60.7733322 35.7883711,60.992 C35.7003707,61.2106678 35.5763719,61.4013325 35.4163711,61.564 C35.2563703,61.7266675 35.0670389,61.8546662 34.8483711,61.948 C34.6297033,62.0413338 34.3897057,62.088 34.1283711,62.088 C33.8777032,62.088 33.6430389,62.0453338 33.4243711,61.96 C33.2057033,61.8746662 33.0150386,61.7533341 32.8523711,61.596 C32.6897036,61.4386659 32.5603716,61.2493344 32.4643711,61.028 C32.3683706,60.8066656 32.3203711,60.562668 32.3203711,60.296 Z M33.0803711,60.304 C33.0803711,60.4480007 33.1070375,60.582666 33.1603711,60.708 C33.2137047,60.833334 33.2870373,60.9426662 33.3803711,61.036 C33.4737049,61.1293338 33.5830371,61.2026664 33.7083711,61.256 C33.8337051,61.3093336 33.9683704,61.336 34.1123711,61.336 C34.2563718,61.336 34.3910371,61.3093336 34.5163711,61.256 C34.6417051,61.2026664 34.7510373,61.1293338 34.8443711,61.036 C34.9377049,60.9426662 35.0123708,60.833334 35.0683711,60.708 C35.1243714,60.582666 35.1523711,60.4480007 35.1523711,60.304 C35.1523711,60.1599993 35.1243714,60.025334 35.0683711,59.9 C35.0123708,59.774666 34.9377049,59.6653338 34.8443711,59.572 C34.7510373,59.4786662 34.6417051,59.4040003 34.5163711,59.348 C34.3910371,59.2919997 34.2563718,59.264 34.1123711,59.264 C33.9683704,59.264 33.8337051,59.2919997 33.7083711,59.348 C33.5830371,59.4040003 33.4737049,59.4786662 33.3803711,59.572 C33.2870373,59.6653338 33.2137047,59.774666 33.1603711,59.9 C33.1070375,60.025334 33.0803711,60.1599993 33.0803711,60.304 Z M38.3843711,59.096 L38.1523711,58.6 L38.8163711,58.6 C38.9763719,58.9466684 39.1097039,59.2426654 39.2163711,59.488 C39.3230383,59.7333346 39.4110374,59.9399992 39.4803711,60.108 C39.5497048,60.2760008 39.6043709,60.4119995 39.6443711,60.516 C39.6843713,60.6200005 39.7150377,60.7039997 39.7363711,60.768 C39.7577045,60.6239993 39.7857043,60.4933339 39.8203711,60.376 C39.8550379,60.2586661 39.9043708,60.1253341 39.9683711,59.976 C40.0323714,59.8266659 40.1137039,59.6453344 40.2123711,59.432 C40.3110383,59.2186656 40.4323704,58.941335 40.5763711,58.6 L41.3443711,58.6 L39.7363711,62.2 C39.6350373,61.9973323 39.5443715,61.7986676 39.4643711,61.604 C39.3843707,61.4093324 39.3043715,61.216001 39.2243711,61.024 C39.1443707,60.831999 39.0630382,60.6386676 38.9803711,60.444 C38.897704,60.2493324 38.8057049,60.0506677 38.7043711,59.848 C38.5230369,60.2533354 38.3510386,60.6453314 38.1883711,61.024 C38.0257036,61.4026686 37.856372,61.7946646 37.6803711,62.2 L36.1523711,58.6 L36.9203711,58.6 C37.0643718,58.9466684 37.181704,59.2266656 37.2723711,59.44 C37.3630382,59.6533344 37.4350375,59.8346659 37.4883711,59.984 C37.5417047,60.1333341 37.5817043,60.2653328 37.6083711,60.38 C37.6350379,60.4946672 37.6590377,60.6239993 37.6803711,60.768 C37.6963712,60.7199998 37.716371,60.6640003 37.7403711,60.6 C37.7643712,60.5359997 37.8003709,60.4440006 37.8483711,60.324 C37.8963713,60.2039994 37.9630373,60.0466676 38.0483711,59.852 C38.1337049,59.6573324 38.2457037,59.4053349 38.3843711,59.096 Z M41.8483711,58.6 L42.5203711,58.6 C42.5310378,58.792001 42.5430377,58.9479994 42.5563711,59.068 C42.5697045,59.1880006 42.5817044,59.3226659 42.5923711,59.472 C42.7150384,59.1839986 42.88837,58.9520009 43.1123711,58.776 C43.3363722,58.5999991 43.6163694,58.512 43.9523711,58.512 C44.2990395,58.512 44.5750367,58.6066657 44.7803711,58.796 C44.9857055,58.9853343 45.0937044,59.2319985 45.1043711,59.536 L45.1043711,62 L44.3443711,62 L44.3443711,59.896 C44.3337044,59.7306658 44.2750383,59.5880006 44.1683711,59.468 C44.0617039,59.3479994 43.8963722,59.2826667 43.6723711,59.272 C43.5177037,59.272 43.3750384,59.2999997 43.2443711,59.356 C43.1137038,59.4120003 43.0017049,59.4879995 42.9083711,59.584 C42.8150373,59.6800005 42.743038,59.794666 42.6923711,59.928 C42.6417042,60.061334 42.6163711,60.2053326 42.6163711,60.36 L42.6163711,62 L41.8483711,62 L41.8483711,58.6 Z M46.7843711,62 L46.0243711,62 L46.0243711,55.752 L46.7843711,55.752 L46.7843711,62 Z M47.5123711,60.296 C47.5123711,60.0506654 47.5590373,59.8200011 47.6523711,59.604 C47.7457049,59.3879989 47.8750369,59.2000008 48.0403711,59.04 C48.2057053,58.8799992 48.3990367,58.7533338 48.6203711,58.66 C48.8417055,58.5666662 49.0777032,58.52 49.3283711,58.52 C49.5843724,58.52 49.8217033,58.5666662 50.0403711,58.66 C50.2590389,58.7533338 50.447037,58.8799992 50.6043711,59.04 C50.7617052,59.2000008 50.885704,59.3879989 50.9763711,59.604 C51.0670382,59.8200011 51.1123711,60.0506654 51.1123711,60.296 C51.1123711,60.5413346 51.0683715,60.7733322 50.9803711,60.992 C50.8923707,61.2106678 50.7683719,61.4013325 50.6083711,61.564 C50.4483703,61.7266675 50.2590389,61.8546662 50.0403711,61.948 C49.8217033,62.0413338 49.5817057,62.088 49.3203711,62.088 C49.0697032,62.088 48.8350389,62.0453338 48.6163711,61.96 C48.3977033,61.8746662 48.2070386,61.7533341 48.0443711,61.596 C47.8817036,61.4386659 47.7523716,61.2493344 47.6563711,61.028 C47.5603706,60.8066656 47.5123711,60.562668 47.5123711,60.296 Z M48.2723711,60.304 C48.2723711,60.4480007 48.2990375,60.582666 48.3523711,60.708 C48.4057047,60.833334 48.4790373,60.9426662 48.5723711,61.036 C48.6657049,61.1293338 48.7750371,61.2026664 48.9003711,61.256 C49.0257051,61.3093336 49.1603704,61.336 49.3043711,61.336 C49.4483718,61.336 49.5830371,61.3093336 49.7083711,61.256 C49.8337051,61.2026664 49.9430373,61.1293338 50.0363711,61.036 C50.1297049,60.9426662 50.2043708,60.833334 50.2603711,60.708 C50.3163714,60.582666 50.3443711,60.4480007 50.3443711,60.304 C50.3443711,60.1599993 50.3163714,60.025334 50.2603711,59.9 C50.2043708,59.774666 50.1297049,59.6653338 50.0363711,59.572 C49.9430373,59.4786662 49.8337051,59.4040003 49.7083711,59.348 C49.5830371,59.2919997 49.4483718,59.264 49.3043711,59.264 C49.1603704,59.264 49.0257051,59.2919997 48.9003711,59.348 C48.7750371,59.4040003 48.6657049,59.4786662 48.5723711,59.572 C48.4790373,59.6653338 48.4057047,59.774666 48.3523711,59.9 C48.2990375,60.025334 48.2723711,60.1599993 48.2723711,60.304 Z M51.6243711,60.336 C51.6243711,60.0906654 51.6723706,59.8573344 51.7683711,59.636 C51.8643716,59.4146656 51.9937036,59.2213342 52.1563711,59.056 C52.3190386,58.8906658 52.50837,58.7586672 52.7243711,58.66 C52.9403722,58.5613328 53.1683699,58.512 53.4083711,58.512 C53.5683719,58.512 53.7123705,58.5319998 53.8403711,58.572 C53.9683717,58.6120002 54.0790373,58.6586664 54.1723711,58.712 C54.2657049,58.7653336 54.3390375,58.8199997 54.3923711,58.876 C54.4457047,58.9320003 54.480371,58.9759998 54.4963711,59.008 L54.5283711,58.6 L55.2723711,58.6 L55.2723711,62 L54.4963711,62 L54.4963711,61.776 C54.4963711,61.7493332 54.4977044,61.7240001 54.5003711,61.7 C54.5030378,61.6759999 54.5043711,61.6586667 54.5043711,61.648 C54.4830377,61.6746668 54.4457047,61.7133331 54.3923711,61.764 C54.3390375,61.8146669 54.2670382,61.8639998 54.1763711,61.912 C54.085704,61.9600002 53.9777051,62.0013332 53.8523711,62.036 C53.7270371,62.0706668 53.5817053,62.088 53.4163711,62.088 C53.1550365,62.088 52.9150389,62.0400005 52.6963711,61.944 C52.4777033,61.8479995 52.2883719,61.7200008 52.1283711,61.56 C51.9683703,61.3999992 51.8443715,61.2146677 51.7563711,61.004 C51.6683707,60.7933323 51.6243711,60.5706678 51.6243711,60.336 Z M52.4003711,60.288 C52.4003711,60.4373341 52.4257042,60.5759994 52.4763711,60.704 C52.527038,60.8320006 52.5990373,60.9426662 52.6923711,61.036 C52.7857049,61.1293338 52.8963705,61.2026664 53.0243711,61.256 C53.1523717,61.3093336 53.2937037,61.336 53.4483711,61.336 C53.6030385,61.336 53.7443705,61.3093336 53.8723711,61.256 C54.0003717,61.2026664 54.1110373,61.1280005 54.2043711,61.032 C54.2977049,60.9359995 54.3697042,60.8240006 54.4203711,60.696 C54.471038,60.5679994 54.4963711,60.4320007 54.4963711,60.288 C54.4963711,60.1439993 54.471038,60.009334 54.4203711,59.884 C54.3697042,59.758666 54.2977049,59.6506671 54.2043711,59.56 C54.1110373,59.4693329 54.0003717,59.3973336 53.8723711,59.344 C53.7443705,59.2906664 53.6030385,59.264 53.4483711,59.264 C53.2937037,59.264 53.1523717,59.2893331 53.0243711,59.34 C52.8963705,59.3906669 52.7857049,59.4626662 52.6923711,59.556 C52.5990373,59.6493338 52.527038,59.758666 52.4763711,59.884 C52.4257042,60.009334 52.4003711,60.1439993 52.4003711,60.288 Z M56.0083711,60.304 C56.0083711,60.037332 56.0523707,59.7946678 56.1403711,59.576 C56.2283715,59.3573322 56.351037,59.1693341 56.5083711,59.012 C56.6657052,58.8546659 56.8497034,58.7320004 57.0603711,58.644 C57.2710388,58.5559996 57.5017032,58.512 57.7523711,58.512 C57.9230386,58.512 58.0723705,58.5306665 58.2003711,58.568 C58.3283717,58.6053335 58.437704,58.6506664 58.5283711,58.704 C58.6190382,58.7573336 58.6923708,58.8146664 58.7483711,58.876 C58.8043714,58.9373336 58.8483709,58.9893331 58.8803711,59.032 L58.8803711,55.752 L59.6483711,55.752 L59.6483711,62 L58.8803711,62 L58.8803711,61.776 C58.8803711,61.7493332 58.8830377,61.7200002 58.8883711,61.688 C58.8937045,61.6559998 58.8963711,61.6320001 58.8963711,61.616 C58.8483709,61.6640002 58.7897048,61.7159997 58.7203711,61.772 C58.6510374,61.8280003 58.5683716,61.8799998 58.4723711,61.928 C58.3763706,61.9760002 58.2683717,62.0146665 58.1483711,62.044 C58.0283705,62.0733335 57.8910385,62.088 57.7363711,62.088 C57.4643697,62.088 57.2203722,62.0413338 57.0043711,61.948 C56.78837,61.8546662 56.6070385,61.7266675 56.4603711,61.564 C56.3137037,61.4013325 56.2017048,61.2120011 56.1243711,60.996 C56.0470374,60.7799989 56.0083711,60.5493346 56.0083711,60.304 Z M56.7763711,60.288 C56.7763711,60.4373341 56.8017042,60.5759994 56.8523711,60.704 C56.903038,60.8320006 56.9750373,60.9426662 57.0683711,61.036 C57.1617049,61.1293338 57.2723705,61.2026664 57.4003711,61.256 C57.5283717,61.3093336 57.6697037,61.336 57.8243711,61.336 C57.9790385,61.336 58.1217038,61.3093336 58.2523711,61.256 C58.3830384,61.2026664 58.4950373,61.1280005 58.5883711,61.032 C58.6817049,60.9359995 58.7537042,60.8240006 58.8043711,60.696 C58.855038,60.5679994 58.8803711,60.4320007 58.8803711,60.288 C58.8803711,60.1439993 58.855038,60.009334 58.8043711,59.884 C58.7537042,59.758666 58.6817049,59.6506671 58.5883711,59.56 C58.4950373,59.4693329 58.3830384,59.3973336 58.2523711,59.344 C58.1217038,59.2906664 57.9790385,59.264 57.8243711,59.264 C57.6697037,59.264 57.5283717,59.2893331 57.4003711,59.34 C57.2723705,59.3906669 57.1617049,59.4626662 57.0683711,59.556 C56.9750373,59.6493338 56.903038,59.758666 56.8523711,59.884 C56.8017042,60.009334 56.7763711,60.1439993 56.7763711,60.288 Z M62.6163711,55.912 C62.6430379,55.9493335 62.701704,56.0333327 62.7923711,56.164 C62.8830382,56.2946673 62.9963704,56.4546657 63.1323711,56.644 C63.2683718,56.8333343 63.4203703,57.0426655 63.5883711,57.272 C63.7563719,57.5013345 63.9270369,57.7346655 64.1003711,57.972 C64.2737053,58.2093345 64.4430369,58.4413322 64.6083711,58.668 C64.7737053,58.8946678 64.9230371,59.1013324 65.0563711,59.288 C65.1897051,59.4746676 65.3030373,59.630666 65.3963711,59.756 C65.4897049,59.881334 65.5470377,59.9599998 65.5683711,59.992 C65.5790378,59.9759999 65.6270373,59.9080006 65.7123711,59.788 C65.7977049,59.6679994 65.9057038,59.5173342 66.0363711,59.336 C66.1670384,59.1546658 66.3150369,58.9480012 66.4803711,58.716 C66.6457053,58.4839988 66.8163702,58.2480012 66.9923711,58.008 C67.168372,57.7679988 67.3403703,57.5306678 67.5083711,57.296 C67.6763719,57.0613322 67.8310371,56.848001 67.9723711,56.656 C68.1137051,56.463999 68.2323706,56.301334 68.3283711,56.168 C68.4243716,56.034666 68.4857043,55.9493335 68.5123711,55.912 L68.5123711,62 L67.4643711,62 L67.4643711,59.024 C67.4643711,58.9813331 67.4697044,58.9360002 67.4803711,58.888 C67.4910378,58.8399998 67.4963711,58.8106667 67.4963711,58.8 L65.5683711,61.576 C65.5417043,61.5439998 65.4763716,61.4560007 65.3723711,61.312 C65.2683706,61.1679993 65.1443718,60.9973343 65.0003711,60.8 C64.8563704,60.6026657 64.7043719,60.3906678 64.5443711,60.164 C64.3843703,59.9373322 64.2337051,59.7266676 64.0923711,59.532 C63.9510371,59.3373324 63.8310383,59.1720007 63.7323711,59.036 C63.6337039,58.8999993 63.5790378,58.8213334 63.5683711,58.8 C63.5683711,58.8106667 63.5737044,58.8399998 63.5843711,58.888 C63.5950378,58.9360002 63.6003711,58.9813331 63.6003711,59.024 L63.6003711,62 L62.6163711,62 L62.6163711,55.912 Z M69.2963711,60.296 C69.2963711,60.0506654 69.3430373,59.8200011 69.4363711,59.604 C69.5297049,59.3879989 69.6590369,59.2000008 69.8243711,59.04 C69.9897053,58.8799992 70.1830367,58.7533338 70.4043711,58.66 C70.6257055,58.5666662 70.8617032,58.52 71.1123711,58.52 C71.3683724,58.52 71.6057033,58.5666662 71.8243711,58.66 C72.0430389,58.7533338 72.231037,58.8799992 72.3883711,59.04 C72.5457052,59.2000008 72.669704,59.3879989 72.7603711,59.604 C72.8510382,59.8200011 72.8963711,60.0506654 72.8963711,60.296 C72.8963711,60.5413346 72.8523715,60.7733322 72.7643711,60.992 C72.6763707,61.2106678 72.5523719,61.4013325 72.3923711,61.564 C72.2323703,61.7266675 72.0430389,61.8546662 71.8243711,61.948 C71.6057033,62.0413338 71.3657057,62.088 71.1043711,62.088 C70.8537032,62.088 70.6190389,62.0453338 70.4003711,61.96 C70.1817033,61.8746662 69.9910386,61.7533341 69.8283711,61.596 C69.6657036,61.4386659 69.5363716,61.2493344 69.4403711,61.028 C69.3443706,60.8066656 69.2963711,60.562668 69.2963711,60.296 Z M70.0563711,60.304 C70.0563711,60.4480007 70.0830375,60.582666 70.1363711,60.708 C70.1897047,60.833334 70.2630373,60.9426662 70.3563711,61.036 C70.4497049,61.1293338 70.5590371,61.2026664 70.6843711,61.256 C70.8097051,61.3093336 70.9443704,61.336 71.0883711,61.336 C71.2323718,61.336 71.3670371,61.3093336 71.4923711,61.256 C71.6177051,61.2026664 71.7270373,61.1293338 71.8203711,61.036 C71.9137049,60.9426662 71.9883708,60.833334 72.0443711,60.708 C72.1003714,60.582666 72.1283711,60.4480007 72.1283711,60.304 C72.1283711,60.1599993 72.1003714,60.025334 72.0443711,59.9 C71.9883708,59.774666 71.9137049,59.6653338 71.8203711,59.572 C71.7270373,59.4786662 71.6177051,59.4040003 71.4923711,59.348 C71.3670371,59.2919997 71.2323718,59.264 71.0883711,59.264 C70.9443704,59.264 70.8097051,59.2919997 70.6843711,59.348 C70.5590371,59.4040003 70.4497049,59.4786662 70.3563711,59.572 C70.2630373,59.6653338 70.1897047,59.774666 70.1363711,59.9 C70.0830375,60.025334 70.0563711,60.1599993 70.0563711,60.304 Z M77.2643711,60.312 C77.2643711,60.5680013 77.2217049,60.8039989 77.1363711,61.02 C77.0510373,61.2360011 76.9297052,61.4239992 76.7723711,61.584 C76.615037,61.7440008 76.4270389,61.8679996 76.2083711,61.956 C75.9897033,62.0440004 75.7497057,62.088 75.4883711,62.088 C75.2270365,62.088 74.9963721,62.0386672 74.7963711,61.94 C74.5963701,61.8413328 74.4590381,61.7360006 74.3843711,61.624 C74.3843711,61.6453334 74.3857044,61.6653332 74.3883711,61.684 C74.3910378,61.7026668 74.3923711,61.7253332 74.3923711,61.752 L74.3923711,62 L73.6243711,62 L73.6243711,55.752 L74.3923711,55.752 L74.3923711,59.032 C74.435038,58.9786664 74.4897041,58.9213336 74.5563711,58.86 C74.6230381,58.7986664 74.7043706,58.7426669 74.8003711,58.692 C74.8963716,58.6413331 75.0043705,58.5986668 75.1243711,58.564 C75.2443717,58.5293332 75.3763704,58.512 75.5203711,58.512 C75.7817057,58.512 76.0190367,58.5533329 76.2323711,58.636 C76.4457055,58.7186671 76.6283703,58.8386659 76.7803711,58.996 C76.9323719,59.1533341 77.0510373,59.3426656 77.1363711,59.564 C77.2217049,59.7853344 77.2643711,60.0346653 77.2643711,60.312 Z M76.4323711,60.296 C76.4323711,59.9973318 76.3457053,59.7506676 76.1723711,59.556 C75.9990369,59.3613324 75.757706,59.264 75.4483711,59.264 C75.2937037,59.264 75.1523717,59.2893331 75.0243711,59.34 C74.8963705,59.3906669 74.7857049,59.4626662 74.6923711,59.556 C74.5990373,59.6493338 74.5257047,59.758666 74.4723711,59.884 C74.4190375,60.009334 74.3923711,60.1439993 74.3923711,60.288 C74.3923711,60.4373341 74.4190375,60.5759994 74.4723711,60.704 C74.5257047,60.8320006 74.5990373,60.9426662 74.6923711,61.036 C74.7857049,61.1293338 74.8963705,61.2026664 75.0243711,61.256 C75.1523717,61.3093336 75.2937037,61.336 75.4483711,61.336 C75.6030385,61.336 75.7417038,61.3093336 75.8643711,61.256 C75.9870384,61.2026664 76.089704,61.1280005 76.1723711,61.032 C76.2550382,60.9359995 76.3190375,60.825334 76.3643711,60.7 C76.4097047,60.574666 76.4323711,60.4400007 76.4323711,60.296 Z M77.9203711,57.28 C77.9203711,57.1413326 77.9710373,57.0266671 78.0723711,56.936 C78.1737049,56.8453329 78.2830372,56.8 78.4003711,56.8 C78.517705,56.8 78.6257039,56.8453329 78.7243711,56.936 C78.8230383,57.0266671 78.8723711,57.1413326 78.8723711,57.28 C78.8723711,57.4240007 78.8230383,57.5399996 78.7243711,57.628 C78.6257039,57.7160004 78.517705,57.76 78.4003711,57.76 C78.2830372,57.76 78.1737049,57.7160004 78.0723711,57.628 C77.9710373,57.5399996 77.9203711,57.4240007 77.9203711,57.28 Z M78.7763711,62 L78.0083711,62 L78.0083711,58.6 L78.7763711,58.6 L78.7763711,62 Z M80.4803711,62 L79.7203711,62 L79.7203711,55.752 L80.4803711,55.752 L80.4803711,62 Z M84.3443711,61.608 C84.1790369,61.7573341 83.9790389,61.8746662 83.7443711,61.96 C83.5097033,62.0453338 83.2697057,62.088 83.0243711,62.088 C82.7737032,62.088 82.5377055,62.0413338 82.3163711,61.948 C82.0950367,61.8546662 81.9030386,61.7266675 81.7403711,61.564 C81.5777036,61.4013325 81.4483716,61.2120011 81.3523711,60.996 C81.2563706,60.7799989 81.2083711,60.5493346 81.2083711,60.304 C81.2083711,60.0586654 81.2563706,59.8280011 81.3523711,59.612 C81.4483716,59.3959989 81.5777036,59.2066675 81.7403711,59.044 C81.9030386,58.8813325 82.09237,58.7533338 82.3083711,58.66 C82.5243722,58.5666662 82.7523699,58.52 82.9923711,58.52 C83.376373,58.52 83.713703,58.6359988 84.0043711,58.868 C84.2950392,59.1000012 84.5017038,59.4053314 84.6243711,59.784 C84.4643703,59.842667 84.2790388,59.9133329 84.0683711,59.996 C83.8577034,60.0786671 83.6377056,60.1653329 83.4083711,60.256 C83.1790366,60.3466671 82.9497056,60.4386662 82.7203711,60.532 C82.4910366,60.6253338 82.2803721,60.709333 82.0883711,60.784 C82.1790382,60.9493342 82.3043703,61.0826662 82.4643711,61.184 C82.6243719,61.2853338 82.8057034,61.336 83.0083711,61.336 C83.1470385,61.336 83.2870371,61.3106669 83.4283711,61.26 C83.5697051,61.2093331 83.685704,61.1413338 83.7763711,61.056 L84.3443711,61.608 Z M83.6723711,59.608 C83.6083708,59.4906661 83.5123717,59.4040003 83.3843711,59.348 C83.2563705,59.2919997 83.1310384,59.264 83.0083711,59.264 C82.8643704,59.264 82.7283717,59.2919997 82.6003711,59.348 C82.4723705,59.4040003 82.3630382,59.4786662 82.2723711,59.572 C82.181704,59.6653338 82.1097047,59.7719994 82.0563711,59.892 C82.0030375,60.0120006 81.9763711,60.1359994 81.9763711,60.264 L81.9763711,60.296 C82.1097051,60.2426664 82.2523703,60.1853336 82.4043711,60.124 C82.5563719,60.0626664 82.7083703,60.0000003 82.8603711,59.936 C83.0123719,59.8719997 83.1577037,59.8120003 83.2963711,59.756 C83.4350385,59.6999997 83.5603705,59.6506669 83.6723711,59.608 Z M90.5923711,62 C90.576371,61.9626665 90.5483713,61.8960005 90.5083711,61.8 C90.4683709,61.7039995 90.4190381,61.5866674 90.3603711,61.448 C90.3017041,61.3093326 90.2377048,61.1560008 90.1683711,60.988 C90.0990374,60.8199992 90.0270381,60.6453342 89.9523711,60.464 L87.9443711,60.464 L87.3043711,62 L86.3363711,62 C86.3577045,61.9519998 86.4083707,61.8333343 86.4883711,61.644 C86.5683715,61.4546657 86.6683705,61.2200014 86.7883711,60.94 C86.9083717,60.6599986 87.0417037,60.3480017 87.1883711,60.004 C87.3350385,59.6599983 87.4857037,59.3093351 87.6403711,58.952 C87.7950385,58.5946649 87.9457037,58.2440017 88.0923711,57.9 C88.2390385,57.5559983 88.3723705,57.2440014 88.4923711,56.964 C88.6123717,56.6839986 88.7123707,56.4493343 88.7923711,56.26 C88.8723715,56.0706657 88.9230377,55.9520002 88.9443711,55.904 C88.9657045,55.9520002 89.017704,56.0706657 89.1003711,56.26 C89.1830382,56.4493343 89.2843705,56.6839986 89.4043711,56.964 C89.5243717,57.2440014 89.6577037,57.5559983 89.8043711,57.9 C89.9510385,58.2440017 90.1017037,58.5946649 90.2563711,58.952 C90.4110385,59.3093351 90.5617037,59.6599983 90.7083711,60.004 C90.8550385,60.3480017 90.9883705,60.6599986 91.1083711,60.94 C91.2283717,61.2200014 91.3283707,61.4546657 91.4083711,61.644 C91.4883715,61.8333343 91.5390377,61.9519998 91.5603711,62 L90.5923711,62 Z M88.2803711,59.64 L89.6083711,59.64 L89.0323711,58.248 C89.0270377,58.2426666 89.0137045,58.206667 88.9923711,58.14 C88.9710377,58.073333 88.9550378,58.0133336 88.9443711,57.96 C88.9337044,58.0133336 88.9177045,58.073333 88.8963711,58.14 C88.8750377,58.206667 88.8643711,58.2426666 88.8643711,58.248 L88.2803711,59.64 Z M94.8403711,60.296 C94.8403711,59.9973318 94.7537053,59.7506676 94.5803711,59.556 C94.4070369,59.3613324 94.165706,59.264 93.8563711,59.264 C93.7017037,59.264 93.5603717,59.2893331 93.4323711,59.34 C93.3043705,59.3906669 93.1937049,59.4626662 93.1003711,59.556 C93.0070373,59.6493338 92.9337047,59.758666 92.8803711,59.884 C92.8270375,60.009334 92.8003711,60.1439993 92.8003711,60.288 C92.8003711,60.4373341 92.8270375,60.5759994 92.8803711,60.704 C92.9337047,60.8320006 93.0070373,60.9426662 93.1003711,61.036 C93.1937049,61.1293338 93.3043705,61.2026664 93.4323711,61.256 C93.5603717,61.3093336 93.7017037,61.336 93.8563711,61.336 C94.0110385,61.336 94.1497038,61.3093336 94.2723711,61.256 C94.3950384,61.2026664 94.497704,61.1280005 94.5803711,61.032 C94.6630382,60.9359995 94.7270375,60.825334 94.7723711,60.7 C94.8177047,60.574666 94.8403711,60.4400007 94.8403711,60.296 Z M95.6723711,60.312 C95.6723711,60.5680013 95.6297049,60.8039989 95.5443711,61.02 C95.4590373,61.2360011 95.3377052,61.4239992 95.1803711,61.584 C95.023037,61.7440008 94.8350389,61.8679996 94.6163711,61.956 C94.3977033,62.0440004 94.1577057,62.088 93.8963711,62.088 C93.6350365,62.088 93.4043721,62.0386672 93.2043711,61.94 C93.0043701,61.8413328 92.8670381,61.7360006 92.7923711,61.624 C92.7923711,61.6453334 92.7937044,61.6653332 92.7963711,61.684 C92.7990378,61.7026668 92.8003711,61.7253332 92.8003711,61.752 L92.8003711,63.632 L92.0323711,63.632 L92.0323711,58.6 L92.7683711,58.6 C92.7683711,58.674667 92.7737044,58.749333 92.7843711,58.824 C92.7950378,58.898667 92.8003711,58.9679997 92.8003711,59.032 C92.843038,58.9786664 92.8977041,58.9213336 92.9643711,58.86 C93.0310381,58.7986664 93.1123706,58.7426669 93.2083711,58.692 C93.3043716,58.6413331 93.4123705,58.5986668 93.5323711,58.564 C93.6523717,58.5293332 93.7843704,58.512 93.9283711,58.512 C94.1897057,58.512 94.4270367,58.5533329 94.6403711,58.636 C94.8537055,58.7186671 95.0363703,58.8386659 95.1883711,58.996 C95.3403719,59.1533341 95.4590373,59.3426656 95.5443711,59.564 C95.6297049,59.7853344 95.6723711,60.0346653 95.6723711,60.312 Z M99.2163711,60.296 C99.2163711,59.9973318 99.1297053,59.7506676 98.9563711,59.556 C98.7830369,59.3613324 98.541706,59.264 98.2323711,59.264 C98.0777037,59.264 97.9363717,59.2893331 97.8083711,59.34 C97.6803705,59.3906669 97.5697049,59.4626662 97.4763711,59.556 C97.3830373,59.6493338 97.3097047,59.758666 97.2563711,59.884 C97.2030375,60.009334 97.1763711,60.1439993 97.1763711,60.288 C97.1763711,60.4373341 97.2030375,60.5759994 97.2563711,60.704 C97.3097047,60.8320006 97.3830373,60.9426662 97.4763711,61.036 C97.5697049,61.1293338 97.6803705,61.2026664 97.8083711,61.256 C97.9363717,61.3093336 98.0777037,61.336 98.2323711,61.336 C98.3870385,61.336 98.5257038,61.3093336 98.6483711,61.256 C98.7710384,61.2026664 98.873704,61.1280005 98.9563711,61.032 C99.0390382,60.9359995 99.1030375,60.825334 99.1483711,60.7 C99.1937047,60.574666 99.2163711,60.4400007 99.2163711,60.296 Z M100.048371,60.312 C100.048371,60.5680013 100.005705,60.8039989 99.9203711,61.02 C99.8350373,61.2360011 99.7137052,61.4239992 99.5563711,61.584 C99.399037,61.7440008 99.2110389,61.8679996 98.9923711,61.956 C98.7737033,62.0440004 98.5337057,62.088 98.2723711,62.088 C98.0110365,62.088 97.7803721,62.0386672 97.5803711,61.94 C97.3803701,61.8413328 97.2430381,61.7360006 97.1683711,61.624 C97.1683711,61.6453334 97.1697044,61.6653332 97.1723711,61.684 C97.1750378,61.7026668 97.1763711,61.7253332 97.1763711,61.752 L97.1763711,63.632 L96.4083711,63.632 L96.4083711,58.6 L97.1443711,58.6 C97.1443711,58.674667 97.1497044,58.749333 97.1603711,58.824 C97.1710378,58.898667 97.1763711,58.9679997 97.1763711,59.032 C97.219038,58.9786664 97.2737041,58.9213336 97.3403711,58.86 C97.4070381,58.7986664 97.4883706,58.7426669 97.5843711,58.692 C97.6803716,58.6413331 97.7883705,58.5986668 97.9083711,58.564 C98.0283717,58.5293332 98.1603704,58.512 98.3043711,58.512 C98.5657057,58.512 98.8030367,58.5533329 99.0163711,58.636 C99.2297055,58.7186671 99.4123703,58.8386659 99.5643711,58.996 C99.7163719,59.1533341 99.8350373,59.3426656 99.9203711,59.564 C100.005705,59.7853344 100.048371,60.0346653 100.048371,60.312 Z" id="Download-Mobile-App"></path>
            </g>
        </g>
    </g>
</svg>