<?xml version="1.0" encoding="UTF-8"?>
<svg width="134px" height="80px" viewBox="0 0 134 80" version="1.1" xmlns="http://www.w3.org/2000/svg" xmlns:xlink="http://www.w3.org/1999/xlink">
    <!-- Generator: Sketch 45.2 (43514) - http://www.bohemiancoding.com/sketch -->
    <title>android-text-too-wideDL</title>
    <desc>Created with Sketch.</desc>
    <defs></defs>
    <g id="Page-1" stroke="none" stroke-width="1" fill="none" fill-rule="evenodd">
        <g id="android-text-too-wide" fill="#FFFFFF">
            <g id="Group" transform="translate(4.000000, 4.000000)">
                <path d="M51.1356771,40.6105469 C51.1356771,41.7292025 52.0509408,42.6444661 53.1695964,42.6444661 L55.2035156,42.6444661 L55.2035156,49.7631836 C55.2035156,51.4513366 56.5662415,52.8140625 58.2543945,52.8140625 C59.9425475,52.8140625 61.3052734,51.4513366 61.3052734,49.7631836 L61.3052734,42.6444661 L65.373112,42.6444661 L65.373112,49.7631836 C65.373112,51.4513366 66.7358379,52.8140625 68.4239909,52.8140625 C70.1121439,52.8140625 71.4748698,51.4513366 71.4748698,49.7631836 L71.4748698,42.6444661 L73.5087891,42.6444661 C74.6274447,42.6444661 75.5427083,41.7292025 75.5427083,40.6105469 L75.5427083,20.2713542 L51.1356771,20.2713542 L51.1356771,40.6105469 Z M46.0508789,20.2713542 C44.3627259,20.2713542 43,21.6340801 43,23.3222331 L43,37.559668 C43,39.247821 44.3627259,40.6105469 46.0508789,40.6105469 C47.7390319,40.6105469 49.1017578,39.247821 49.1017578,37.559668 L49.1017578,23.3222331 C49.1017578,21.6340801 47.7390319,20.2713542 46.0508789,20.2713542 Z M80.6275065,20.2713542 C78.9393535,20.2713542 77.5766276,21.6340801 77.5766276,23.3222331 L77.5766276,37.559668 C77.5766276,39.247821 78.9393535,40.6105469 80.6275065,40.6105469 C82.3156595,40.6105469 83.6783854,39.247821 83.6783854,37.559668 L83.6783854,23.3222331 C83.6783854,21.6340801 82.3156595,20.2713542 80.6275065,20.2713542 Z M70.5189277,8.39326562 L73.1630228,5.74917057 C73.5698066,5.34238672 73.5698066,4.71187174 73.1630228,4.30508789 C72.7562389,3.89830404 72.125724,3.89830404 71.7189401,4.30508789 L68.7087396,7.31528841 C67.1019434,6.5017207 65.271416,6.03391927 63.3391927,6.03391927 C61.3866302,6.03391927 59.5561029,6.5017207 57.9289674,7.31528841 L54.8984277,4.30508789 C54.4916439,3.89830404 53.8611289,3.89830404 53.4543451,4.30508789 C53.0475612,4.71187174 53.0475612,5.34238672 53.4543451,5.74917057 L56.1187793,8.41360482 C53.1085788,10.6305768 51.1356771,14.1899355 51.1356771,18.2374349 L75.5427083,18.2374349 C75.5427083,14.1899355 73.5698066,10.6102376 70.5189277,8.39326562 L70.5189277,8.39326562 Z M59.2713542,14.1695964 L57.2374349,14.1695964 L57.2374349,12.1356771 L59.2713542,12.1356771 L59.2713542,14.1695964 Z M69.4409505,14.1695964 L67.4070312,14.1695964 L67.4070312,12.1356771 L69.4409505,12.1356771 L69.4409505,14.1695964 Z" id="Shape" fill-rule="nonzero"></path>
                <path d="M2,2 L2,71.1464844 L124.082031,71.1464844 L124.082031,2 L2,2 Z M0,0 L126.082031,0 L126.082031,73.1464844 L0,73.1464844 L0,0 Z" id="Rectangle-3" fill-rule="nonzero"></path>
                <path d="M10,55.6014121 L12.1859015,55.6014121 C13.034051,55.6014121 13.7530396,55.7305602 14.342889,55.9888602 C14.9327384,56.2471603 15.4127067,56.5806322 15.7828083,56.989286 C16.1529098,57.3979399 16.4208439,57.8624875 16.5866186,58.3829428 C16.7523933,58.9033982 16.8352794,59.4219181 16.8352794,59.9385183 C16.8352794,60.5707751 16.7215519,61.1394122 16.4940937,61.6444467 C16.2666354,62.1494811 15.9601496,62.5793322 15.5746272,62.9340129 C15.1891047,63.2886936 14.7399777,63.5604829 14.2272328,63.7493889 C13.7144879,63.9382949 13.172837,64.0327465 12.6022637,64.0327465 L10,64.0327465 L10,55.6014121 Z M12.382517,62.691135 C12.8220126,62.691135 13.2268052,62.6294523 13.5969067,62.5060851 C13.9670083,62.3827179 14.2869872,62.1995975 14.5568529,61.9567183 C14.8267186,61.7138392 15.0368252,61.4169913 15.187179,61.0661659 C15.3375328,60.7153404 15.4127085,60.3086203 15.4127085,59.8459933 C15.4127085,59.3216827 15.3221121,58.876411 15.1409165,58.5101646 C14.959721,58.1439183 14.7303385,57.8470704 14.4527624,57.6196121 C14.1751862,57.3921539 13.8667728,57.2263817 13.527513,57.1222906 C13.1882533,57.0181996 12.8644192,56.9661548 12.5560012,56.9661548 L11.4225708,56.9661548 L11.4225708,62.691135 L12.382517,62.691135 Z M17.5176507,61.5692702 C17.5176507,61.2145895 17.5851162,60.8811176 17.720049,60.5688444 C17.8549819,60.2565711 18.0419575,59.9847819 18.2809814,59.7534684 C18.5200054,59.5221549 18.799505,59.3390345 19.1194886,59.2041016 C19.4394723,59.0691687 19.7806546,59.0017033 20.1430457,59.0017033 C20.5131473,59.0017033 20.8562571,59.0691687 21.1723856,59.2041016 C21.488514,59.3390345 21.7603033,59.5221549 21.9877615,59.7534684 C22.2152198,59.9847819 22.394485,60.2565711 22.5255627,60.5688444 C22.6566403,60.8811176 22.7221782,61.2145895 22.7221782,61.5692702 C22.7221782,61.9239509 22.6585679,62.2593504 22.5313455,62.5754788 C22.4041231,62.8916072 22.2248578,63.1672517 21.9935443,63.4024204 C21.7622308,63.6375891 21.488514,63.8226371 21.1723856,63.95757 C20.8562571,64.0925029 20.5092921,64.1599683 20.1314801,64.1599683 C19.7690889,64.1599683 19.4298342,64.0982856 19.1137058,63.9749184 C18.7975774,63.8515512 18.5219329,63.6761411 18.2867642,63.4486829 C18.0515955,63.2212246 17.8646199,62.9475077 17.7258318,62.6275241 C17.5870437,62.3075404 17.5176507,61.9547927 17.5176507,61.5692702 Z M18.6163843,61.5808358 C18.6163843,61.7890179 18.654936,61.9837039 18.7320405,62.1648994 C18.809145,62.346095 18.9151621,62.5041568 19.0500949,62.6390897 C19.1850278,62.7740226 19.3430896,62.8800397 19.5242852,62.9571442 C19.7054808,63.0342487 19.9001667,63.0728003 20.1083488,63.0728003 C20.316531,63.0728003 20.5112169,63.0342487 20.6924125,62.9571442 C20.873608,62.8800397 21.0316699,62.7740226 21.1666027,62.6390897 C21.3015356,62.5041568 21.4094803,62.346095 21.49044,62.1648994 C21.5713997,61.9837039 21.611879,61.7890179 21.611879,61.5808358 C21.611879,61.3726537 21.5713997,61.1779677 21.49044,60.9967722 C21.4094803,60.8155766 21.3015356,60.6575148 21.1666027,60.5225819 C21.0316699,60.387649 20.873608,60.2797043 20.6924125,60.1987446 C20.5112169,60.1177849 20.316531,60.0773057 20.1083488,60.0773057 C19.9001667,60.0773057 19.7054808,60.1177849 19.5242852,60.1987446 C19.3430896,60.2797043 19.1850278,60.387649 19.0500949,60.5225819 C18.9151621,60.6575148 18.809145,60.8155766 18.7320405,60.9967722 C18.654936,61.1779677 18.6163843,61.3726537 18.6163843,61.5808358 Z M26.2843881,59.8344277 L25.9489852,59.1173595 L26.9089313,59.1173595 C27.1402448,59.6185387 27.3330032,60.0464622 27.4872122,60.4011429 C27.6414212,60.7558236 27.7686417,61.054599 27.8688775,61.2974782 C27.9691134,61.5403574 28.0481443,61.7369709 28.1059727,61.8873246 C28.163801,62.0376784 28.2081354,62.1591162 28.2389772,62.2516416 C28.269819,62.0434594 28.3102983,61.8545562 28.3604162,61.6849263 C28.4105341,61.5152965 28.4818547,61.3225381 28.5743801,61.1066455 C28.6669055,60.8907529 28.7844881,60.6286016 28.9271314,60.3201836 C29.0697747,60.0117656 29.2451848,59.6108283 29.453367,59.1173595 L30.5636662,59.1173595 L28.2389772,64.3218869 C28.0924787,64.0288898 27.961403,63.7416799 27.8457463,63.4602485 C27.7300895,63.1788171 27.6144345,62.8993175 27.4987778,62.6217413 C27.383121,62.3441651 27.2655385,62.0646655 27.1460265,61.7832341 C27.0265145,61.5018027 26.8935113,61.2145927 26.7470127,60.9215957 C26.4848574,61.5075898 26.2361992,62.0742994 26.0010304,62.6217413 C25.7658617,63.1691832 25.5210586,63.7358927 25.2666138,64.3218869 L23.057581,59.1173595 L24.1678802,59.1173595 C24.3760624,59.6185387 24.5456897,60.0233312 24.6767674,60.3317492 C24.807845,60.6401672 24.9119345,60.9023185 24.989039,61.1182111 C25.0661435,61.3341037 25.123971,61.5249345 25.1625233,61.6907092 C25.2010755,61.8564838 25.235772,62.0434594 25.2666138,62.2516416 C25.2897451,62.1822475 25.3186589,62.101289 25.3533559,62.0087636 C25.3880529,61.9162382 25.4400977,61.783235 25.5094917,61.6097498 C25.5788858,61.4362647 25.675265,61.2088099 25.7986322,60.9273785 C25.9219994,60.6459471 26.0839164,60.2816338 26.2843881,59.8344277 Z M31.2923,59.1173595 L32.2638118,59.1173595 C32.2792327,59.3949357 32.2965809,59.6204629 32.3158571,59.793948 C32.3351332,59.9674332 32.3524814,60.1621191 32.3679023,60.3780117 C32.5452427,59.9616474 32.7958285,59.6262479 33.1196674,59.371803 C33.4435063,59.1173582 33.8482988,58.9901377 34.3340571,58.9901377 C34.8352364,58.9901377 35.2342462,59.1269961 35.5310985,59.4007171 C35.8279508,59.674438 35.984085,60.031041 35.9995059,60.4705366 L35.9995059,64.0327465 L34.9007724,64.0327465 L34.9007724,60.9909894 C34.8853515,60.7519654 34.8005378,60.545714 34.6463288,60.3722289 C34.4921198,60.1987438 34.2530995,60.1042922 33.9292606,60.0888713 C33.7056575,60.0888713 33.4994061,60.1293505 33.3105001,60.2103102 C33.1215941,60.29127 32.9596771,60.4011422 32.8247442,60.5399303 C32.6898113,60.6787184 32.5857218,60.8444906 32.5124725,61.0372518 C32.4392233,61.2300131 32.4025992,61.4381921 32.4025992,61.6617951 L32.4025992,64.0327465 L31.2923,64.0327465 L31.2923,59.1173595 Z M38.4282854,64.0327465 L37.3295518,64.0327465 L37.3295518,55 L38.4282854,55 L38.4282854,64.0327465 Z M39.4807565,61.5692702 C39.4807565,61.2145895 39.5482219,60.8811176 39.6831548,60.5688444 C39.8180877,60.2565711 40.0050633,59.9847819 40.2440872,59.7534684 C40.4831111,59.5221549 40.7626107,59.3390345 41.0825944,59.2041016 C41.402578,59.0691687 41.7437603,59.0017033 42.1061514,59.0017033 C42.476253,59.0017033 42.8193629,59.0691687 43.1354913,59.2041016 C43.4516197,59.3390345 43.723409,59.5221549 43.9508673,59.7534684 C44.1783255,59.9847819 44.3575908,60.2565711 44.4886684,60.5688444 C44.6197461,60.8811176 44.6852839,61.2145895 44.6852839,61.5692702 C44.6852839,61.9239509 44.6216737,62.2593504 44.4944513,62.5754788 C44.3672288,62.8916072 44.1879636,63.1672517 43.9566501,63.4024204 C43.7253366,63.6375891 43.4516197,63.8226371 43.1354913,63.95757 C42.8193629,64.0925029 42.4723979,64.1599683 42.0945858,64.1599683 C41.7321947,64.1599683 41.39294,64.0982856 41.0768116,63.9749184 C40.7606831,63.8515512 40.4850387,63.6761411 40.24987,63.4486829 C40.0147013,63.2212246 39.8277257,62.9475077 39.6889376,62.6275241 C39.5501495,62.3075404 39.4807565,61.9547927 39.4807565,61.5692702 Z M40.5794901,61.5808358 C40.5794901,61.7890179 40.6180417,61.9837039 40.6951462,62.1648994 C40.7722507,62.346095 40.8782678,62.5041568 41.0132007,62.6390897 C41.1481336,62.7740226 41.3061954,62.8800397 41.487391,62.9571442 C41.6685865,63.0342487 41.8632725,63.0728003 42.0714546,63.0728003 C42.2796367,63.0728003 42.4743227,63.0342487 42.6555182,62.9571442 C42.8367138,62.8800397 42.9947756,62.7740226 43.1297085,62.6390897 C43.2646414,62.5041568 43.3725861,62.346095 43.4535458,62.1648994 C43.5345055,61.9837039 43.5749847,61.7890179 43.5749847,61.5808358 C43.5749847,61.3726537 43.5345055,61.1779677 43.4535458,60.9967722 C43.3725861,60.8155766 43.2646414,60.6575148 43.1297085,60.5225819 C42.9947756,60.387649 42.8367138,60.2797043 42.6555182,60.1987446 C42.4743227,60.1177849 42.2796367,60.0773057 42.0714546,60.0773057 C41.8632725,60.0773057 41.6685865,60.1177849 41.487391,60.1987446 C41.3061954,60.2797043 41.1481336,60.387649 41.0132007,60.5225819 C40.8782678,60.6575148 40.7722507,60.8155766 40.6951462,60.9967722 C40.6180417,61.1779677 40.5794901,61.3726537 40.5794901,61.5808358 Z M45.4254834,61.6270983 C45.4254834,61.2724176 45.4948764,60.9350905 45.6336645,60.6151068 C45.7724526,60.2951232 45.9594282,60.0156236 46.1945969,59.7765996 C46.4297656,59.5375757 46.7034825,59.3467449 47.0157557,59.2041016 C47.3280289,59.0614583 47.6576456,58.9901377 48.0046159,58.9901377 C48.2359294,58.9901377 48.4441084,59.0190515 48.6291592,59.0768798 C48.81421,59.1347082 48.9741994,59.2021736 49.1091322,59.2792781 C49.2440651,59.3563826 49.3500822,59.4354135 49.4271867,59.5163732 C49.5042912,59.597333 49.5544084,59.6609432 49.5775397,59.7072059 L49.6238022,59.1173595 L50.6994045,59.1173595 L50.6994045,64.0327465 L49.5775397,64.0327465 L49.5775397,63.7089092 C49.5775397,63.670357 49.5794673,63.6337329 49.5833225,63.5990359 C49.5871777,63.5643389 49.5891053,63.5392803 49.5891053,63.5238594 C49.5582635,63.5624116 49.5042912,63.6183115 49.4271867,63.6915608 C49.3500822,63.7648101 49.2459927,63.8361307 49.1149151,63.9055247 C48.9838374,63.9749188 48.8277032,64.0346739 48.6465076,64.0847918 C48.465312,64.1349097 48.2552054,64.1599683 48.0161815,64.1599683 C47.6383695,64.1599683 47.2914044,64.0905753 46.975276,63.9517872 C46.6591476,63.8129991 46.3854307,63.6279511 46.1541172,63.3966376 C45.9228037,63.1653241 45.7435385,62.89739 45.6163161,62.5928272 C45.4890936,62.2882645 45.4254834,61.966358 45.4254834,61.6270983 Z M46.5473482,61.5577046 C46.5473482,61.7735972 46.5839723,61.9740658 46.6572215,62.1591166 C46.7304708,62.3441674 46.8345603,62.5041568 46.9694932,62.6390897 C47.1044261,62.7740226 47.2644155,62.8800397 47.4494663,62.9571442 C47.6345171,63.0342487 47.8388409,63.0728003 48.062444,63.0728003 C48.286047,63.0728003 48.4903708,63.0342487 48.6754216,62.9571442 C48.8604724,62.8800397 49.0204618,62.772095 49.1553947,62.6333069 C49.2903276,62.4945188 49.3944171,62.3326018 49.4676664,62.147551 C49.5409156,61.9625002 49.5775397,61.7658867 49.5775397,61.5577046 C49.5775397,61.3495224 49.5409156,61.1548365 49.4676664,60.9736409 C49.3944171,60.7924454 49.2903276,60.6363111 49.1553947,60.5052335 C49.0204618,60.3741558 48.8604724,60.2700663 48.6754216,60.1929618 C48.4903708,60.1158573 48.286047,60.0773057 48.062444,60.0773057 C47.8388409,60.0773057 47.6345171,60.1139297 47.4494663,60.187179 C47.2644155,60.2604283 47.1044261,60.3645178 46.9694932,60.4994507 C46.8345603,60.6343835 46.7304708,60.7924454 46.6572215,60.9736409 C46.5839723,61.1548365 46.5473482,61.3495224 46.5473482,61.5577046 Z M51.7634412,61.5808358 C51.7634412,61.1953133 51.8270515,60.8444931 51.9542739,60.5283647 C52.0814963,60.2122363 52.258834,59.940447 52.4862923,59.7129887 C52.7137505,59.4855305 52.9797571,59.3081928 53.2843198,59.1809704 C53.5888826,59.053748 53.9223545,58.9901377 54.2847456,58.9901377 C54.53148,58.9901377 54.7473694,59.0171239 54.9324202,59.071097 C55.117471,59.1250702 55.2755328,59.190608 55.4066104,59.2677125 C55.5376881,59.344817 55.6437052,59.4277031 55.7246649,59.5163732 C55.8056246,59.6050434 55.8692349,59.6802192 55.9154976,59.7419028 L55.9154976,55 L57.0257968,55 L57.0257968,64.0327465 L55.9154976,64.0327465 L55.9154976,63.7089092 C55.9154976,63.670357 55.9193527,63.6279502 55.9270632,63.5816875 C55.9347736,63.5354248 55.9386288,63.5007283 55.9386288,63.4775969 C55.8692348,63.546991 55.7844211,63.6221667 55.6841852,63.7031264 C55.5839494,63.7840861 55.4644392,63.8592619 55.3256511,63.928656 C55.186863,63.99805 55.0307288,64.0539499 54.8572437,64.0963574 C54.6837585,64.1387649 54.4852174,64.1599683 54.2616144,64.1599683 C53.8683815,64.1599683 53.5156337,64.0925029 53.2033605,63.95757 C52.8910873,63.8226371 52.6289359,63.6375891 52.4168986,63.4024204 C52.2048612,63.1672517 52.0429442,62.8935348 51.9311427,62.5812616 C51.8193412,62.2689884 51.7634412,61.9355165 51.7634412,61.5808358 Z M52.8737404,61.5577046 C52.8737404,61.7735972 52.9103645,61.9740658 52.9836138,62.1591166 C53.0568631,62.3441674 53.1609526,62.5041568 53.2958854,62.6390897 C53.4308183,62.7740226 53.5908077,62.8800397 53.7758585,62.9571442 C53.9609093,63.0342487 54.1652331,63.0728003 54.3888362,63.0728003 C54.6124392,63.0728003 54.8186907,63.0342487 55.0075967,62.9571442 C55.1965027,62.8800397 55.3584197,62.772095 55.4933526,62.6333069 C55.6282854,62.4945188 55.7323749,62.3326018 55.8056242,62.147551 C55.8788735,61.9625002 55.9154976,61.7658867 55.9154976,61.5577046 C55.9154976,61.3495224 55.8788735,61.1548365 55.8056242,60.9736409 C55.7323749,60.7924454 55.6282854,60.6363111 55.4933526,60.5052335 C55.3584197,60.3741558 55.1965027,60.2700663 55.0075967,60.1929618 C54.8186907,60.1158573 54.6124392,60.0773057 54.3888362,60.0773057 C54.1652331,60.0773057 53.9609093,60.1139297 53.7758585,60.187179 C53.5908077,60.2604283 53.4308183,60.3645178 53.2958854,60.4994507 C53.1609526,60.6343835 53.0568631,60.7924454 52.9836138,60.9736409 C52.9103645,61.1548365 52.8737404,61.3495224 52.8737404,61.5577046 Z M61.3166405,55.2313123 C61.3551927,55.2852855 61.4400064,55.4067232 61.571084,55.5956293 C61.7021617,55.7845353 61.8660063,56.0158453 62.0626227,56.2895662 C62.2592392,56.5632872 62.4789837,56.8659178 62.7218629,57.1974671 C62.964742,57.5290165 63.2114727,57.8663436 63.4620623,58.2094586 C63.712652,58.5525736 63.9574551,58.8879731 64.196479,59.2156672 C64.4355029,59.5433613 64.6513923,59.8421368 64.8441535,60.1120025 C65.0369148,60.3818682 65.2007594,60.6073955 65.3356922,60.7885911 C65.4706251,60.9697866 65.5535112,61.0835141 65.584353,61.1297768 C65.5997739,61.1066454 65.6691669,61.0083386 65.7925341,60.8348535 C65.9159013,60.6613684 66.0720355,60.4435515 66.2609415,60.1813962 C66.4498476,59.9192409 66.6638093,59.6204655 66.9028333,59.2850609 C67.1418572,58.9496564 67.3885879,58.6084741 67.6430327,58.2615039 C67.8974775,57.9145336 68.1461358,57.5714238 68.389015,57.232164 C68.6318941,56.8929042 68.8554938,56.5844909 69.0598207,56.3069147 C69.2641477,56.0293385 69.4357026,55.7941733 69.5744907,55.6014121 C69.7132788,55.4086508 69.8019476,55.2852855 69.8404999,55.2313123 L69.8404999,64.0327465 L68.3254041,64.0327465 L68.3254041,59.7303372 C68.3254041,59.6686536 68.3331144,59.6031157 68.3485353,59.5337217 C68.3639562,59.4643276 68.3716666,59.4219208 68.3716666,59.4064999 L65.584353,63.4197688 C65.5458007,63.3735061 65.4513491,63.2462856 65.3009954,63.0381035 C65.1506416,62.8299213 64.9713763,62.5831907 64.7631942,62.297904 C64.5550121,62.0126174 64.3352675,61.7061316 64.1039541,61.3784375 C63.8726406,61.0507434 63.6548236,60.7461852 63.4504967,60.4647538 C63.2461698,60.1833224 63.0726873,59.944302 62.930044,59.7476856 C62.7874007,59.5510691 62.7083697,59.4373417 62.6929488,59.4064999 C62.6929488,59.4219208 62.7006592,59.4643276 62.7160801,59.5337217 C62.731501,59.6031157 62.7392113,59.6686536 62.7392113,59.7303372 L62.7392113,64.0327465 L61.3166405,64.0327465 L61.3166405,55.2313123 Z M70.9739303,61.5692702 C70.9739303,61.2145895 71.0413957,60.8811176 71.1763286,60.5688444 C71.3112614,60.2565711 71.498237,59.9847819 71.737261,59.7534684 C71.9762849,59.5221549 72.2557845,59.3390345 72.5757682,59.2041016 C72.8957518,59.0691687 73.2369341,59.0017033 73.5993252,59.0017033 C73.9694268,59.0017033 74.3125367,59.0691687 74.6286651,59.2041016 C74.9447935,59.3390345 75.2165828,59.5221549 75.4440411,59.7534684 C75.6714993,59.9847819 75.8507646,60.2565711 75.9818422,60.5688444 C76.1129199,60.8811176 76.1784577,61.2145895 76.1784577,61.5692702 C76.1784577,61.9239509 76.1148474,62.2593504 75.987625,62.5754788 C75.8604026,62.8916072 75.6811373,63.1672517 75.4498239,63.4024204 C75.2185104,63.6375891 74.9447935,63.8226371 74.6286651,63.95757 C74.3125367,64.0925029 73.9655716,64.1599683 73.5877596,64.1599683 C73.2253685,64.1599683 72.8861138,64.0982856 72.5699853,63.9749184 C72.2538569,63.8515512 71.9782125,63.6761411 71.7430438,63.4486829 C71.5078751,63.2212246 71.3208995,62.9475077 71.1821114,62.6275241 C71.0433233,62.3075404 70.9739303,61.9547927 70.9739303,61.5692702 Z M72.0726638,61.5808358 C72.0726638,61.7890179 72.1112155,61.9837039 72.18832,62.1648994 C72.2654245,62.346095 72.3714416,62.5041568 72.5063745,62.6390897 C72.6413073,62.7740226 72.7993692,62.8800397 72.9805647,62.9571442 C73.1617603,63.0342487 73.3564462,63.0728003 73.5646284,63.0728003 C73.7728105,63.0728003 73.9674964,63.0342487 74.148692,62.9571442 C74.3298876,62.8800397 74.4879494,62.7740226 74.6228823,62.6390897 C74.7578151,62.5041568 74.8657598,62.346095 74.9467195,62.1648994 C75.0276793,61.9837039 75.0681585,61.7890179 75.0681585,61.5808358 C75.0681585,61.3726537 75.0276793,61.1779677 74.9467195,60.9967722 C74.8657598,60.8155766 74.7578151,60.6575148 74.6228823,60.5225819 C74.4879494,60.387649 74.3298876,60.2797043 74.148692,60.1987446 C73.9674964,60.1177849 73.7728105,60.0773057 73.5646284,60.0773057 C73.3564462,60.0773057 73.1617603,60.1177849 72.9805647,60.1987446 C72.7993692,60.2797043 72.6413073,60.387649 72.5063745,60.5225819 C72.3714416,60.6575148 72.2654245,60.8155766 72.18832,60.9967722 C72.1112155,61.1779677 72.0726638,61.3726537 72.0726638,61.5808358 Z M82.4932843,61.5924014 C82.4932843,61.962503 82.4316016,62.3036853 82.3082345,62.6159585 C82.1848673,62.9282317 82.0094572,63.200021 81.7819989,63.4313344 C81.5545406,63.6626479 81.2827514,63.8419132 80.9666229,63.9691356 C80.6504945,64.096358 80.3035295,64.1599683 79.9257175,64.1599683 C79.5479054,64.1599683 79.2144335,64.0886477 78.9252916,63.9460044 C78.6361498,63.8033611 78.4376087,63.651082 78.3296624,63.4891625 C78.3296624,63.5200043 78.33159,63.5489181 78.3354452,63.5759046 C78.3393004,63.6028912 78.341228,63.6356601 78.341228,63.6742124 L78.341228,64.0327465 L77.2309288,64.0327465 L77.2309288,55 L78.341228,55 L78.341228,59.7419028 C78.4029116,59.6647983 78.4819425,59.5819122 78.5783231,59.493242 C78.6747037,59.4045718 78.7922863,59.3236133 78.9310744,59.2503641 C79.0698625,59.1771148 79.2259968,59.1154321 79.3994819,59.0653142 C79.572967,59.0151963 79.7637978,58.9901377 79.9719799,58.9901377 C80.3497919,58.9901377 80.6929018,59.0498928 81.0013198,59.1694048 C81.3097378,59.2889167 81.5738167,59.4623992 81.7935645,59.6898575 C82.0133123,59.9173158 82.1848673,60.1910326 82.3082345,60.5110163 C82.4316016,60.8309999 82.4932843,61.191458 82.4932843,61.5924014 Z M81.2904602,61.5692702 C81.2904602,61.137485 81.1651673,60.7808821 80.9145777,60.4994507 C80.6639881,60.2180192 80.3150954,60.0773057 79.8678894,60.0773057 C79.6442863,60.0773057 79.4399625,60.1139297 79.2549117,60.187179 C79.0698609,60.2604283 78.9098715,60.3645178 78.7749386,60.4994507 C78.6400057,60.6343835 78.5339887,60.7924454 78.4568842,60.9736409 C78.3797797,61.1548365 78.341228,61.3495224 78.341228,61.5577046 C78.341228,61.7735972 78.3797797,61.9740658 78.4568842,62.1591166 C78.5339887,62.3441674 78.6400057,62.5041568 78.7749386,62.6390897 C78.9098715,62.7740226 79.0698609,62.8800397 79.2549117,62.9571442 C79.4399625,63.0342487 79.6442863,63.0728003 79.8678894,63.0728003 C80.0914924,63.0728003 80.2919611,63.0342487 80.4693014,62.9571442 C80.6466418,62.8800397 80.7950657,62.772095 80.9145777,62.6333069 C81.0340896,62.4945188 81.1266136,62.3345294 81.1921525,62.1533338 C81.2576913,61.9721383 81.2904602,61.7774523 81.2904602,61.5692702 Z M83.4416649,57.2090328 C83.4416649,57.0085611 83.514913,56.8427889 83.6614116,56.7117112 C83.8079101,56.5806336 83.965972,56.5150958 84.1356019,56.5150958 C84.3052318,56.5150958 84.461366,56.5806336 84.6040093,56.7117112 C84.7466527,56.8427889 84.8179732,57.0085611 84.8179732,57.2090328 C84.8179732,57.4172149 84.7466527,57.5849147 84.6040093,57.7121371 C84.461366,57.8393595 84.3052318,57.9029697 84.1356019,57.9029697 C83.965972,57.9029697 83.8079101,57.8393595 83.6614116,57.7121371 C83.514913,57.5849147 83.4416649,57.4172149 83.4416649,57.2090328 Z M84.6791858,64.0327465 L83.5688867,64.0327465 L83.5688867,59.1173595 L84.6791858,59.1173595 L84.6791858,64.0327465 Z M87.1426622,64.0327465 L86.0439286,64.0327465 L86.0439286,55 L87.1426622,55 L87.1426622,64.0327465 Z M92.7288549,63.4660313 C92.489831,63.6819239 92.2006935,63.8515512 91.8614337,63.9749184 C91.5221739,64.0982856 91.1752089,64.1599683 90.8205282,64.1599683 C90.4581371,64.1599683 90.1169548,64.0925029 89.7969711,63.95757 C89.4769875,63.8226371 89.1994155,63.6375891 88.9642468,63.4024204 C88.729078,63.1672517 88.5421025,62.8935348 88.4033144,62.5812616 C88.2645263,62.2689884 88.1951333,61.9355165 88.1951333,61.5808358 C88.1951333,61.2261551 88.2645263,60.8926832 88.4033144,60.58041 C88.5421025,60.2681368 88.729078,59.9944199 88.9642468,59.7592512 C89.1994155,59.5240825 89.4731323,59.3390345 89.7854055,59.2041016 C90.0976787,59.0691687 90.4272955,59.0017033 90.7742657,59.0017033 C91.3294181,59.0017033 91.8170967,59.1694031 92.2373162,59.5048076 C92.6575357,59.8402122 92.9563112,60.2816288 93.1336515,60.8290707 C92.902338,60.9138857 92.6344039,61.0160476 92.3298412,61.1355596 C92.0252784,61.2550715 91.7072271,61.3803645 91.3756778,61.5114421 C91.0441285,61.6425197 90.7125841,61.775523 90.3810348,61.9104559 C90.0494855,62.0453887 89.7449273,62.1668265 89.4673511,62.2747728 C89.5984287,62.5137967 89.7796216,62.7065551 90.0109351,62.8530536 C90.2422485,62.9995522 90.5043999,63.0728003 90.797397,63.0728003 C90.9978687,63.0728003 91.2002649,63.0361762 91.4045918,62.962927 C91.6089188,62.8896777 91.7766185,62.7913709 91.9076962,62.6680037 L92.7288549,63.4660313 Z M91.7573431,60.5746272 C91.6648178,60.4049973 91.5260317,60.2797043 91.340981,60.1987446 C91.1559302,60.1177849 90.9747373,60.0773057 90.797397,60.0773057 C90.5892148,60.0773057 90.3926013,60.1177849 90.2075505,60.1987446 C90.0224997,60.2797043 89.8644379,60.387649 89.7333603,60.5225819 C89.6022826,60.6575148 89.4981931,60.8117214 89.4210886,60.9852065 C89.3439841,61.1586917 89.3054324,61.3379569 89.3054324,61.5230077 L89.3054324,61.5692702 C89.4981937,61.4921657 89.7044451,61.4092796 89.9241929,61.3206094 C90.1439407,61.2319393 90.3636853,61.1413428 90.5834331,61.0488174 C90.8031809,60.956292 91.0132875,60.8695508 91.2137592,60.7885911 C91.4142309,60.7076313 91.5954237,60.6363108 91.7573431,60.5746272 Z M101.761601,64.0327465 C101.73847,63.9787734 101.697991,63.8823942 101.640162,63.7436061 C101.582334,63.604818 101.511014,63.4351906 101.426199,63.234719 C101.341384,63.0342473 101.24886,62.8125752 101.148624,62.569696 C101.048388,62.3268168 100.944298,62.0743034 100.836352,61.8121481 L97.9333824,61.8121481 L97.008133,64.0327465 L95.6086934,64.0327465 C95.6395352,63.9633525 95.7127834,63.7917975 95.8284402,63.5180766 C95.9440969,63.2443556 96.0886657,62.9051009 96.2621508,62.5003023 C96.4356359,62.0955037 96.6283942,61.6444492 96.8404316,61.1471252 C97.052469,60.6498012 97.2702859,60.1428467 97.4938889,59.6262466 C97.717492,59.1096465 97.9353089,58.602692 98.1473463,58.105368 C98.3593836,57.608044 98.552142,57.1569895 98.7256271,56.7521909 C98.8991122,56.3473923 99.043681,56.0081376 99.1593377,55.7344166 C99.2749945,55.4606957 99.3482426,55.2891408 99.3790844,55.2197467 C99.4099262,55.2891408 99.485102,55.4606957 99.604614,55.7344166 C99.7241259,56.0081376 99.8706223,56.3473923 100.044107,56.7521909 C100.217592,57.1569895 100.410351,57.608044 100.622388,58.105368 C100.834426,58.602692 101.052243,59.1096465 101.275846,59.6262466 C101.499449,60.1428467 101.717266,60.6498012 101.929303,61.1471252 C102.14134,61.6444492 102.334099,62.0955037 102.507584,62.5003023 C102.681069,62.9051009 102.825638,63.2443556 102.941294,63.5180766 C103.056951,63.7917975 103.130199,63.9633525 103.161041,64.0327465 L101.761601,64.0327465 Z M98.4191383,60.6208896 L100.339031,60.6208896 L99.5063062,58.6084724 C99.4985958,58.6007619 99.4793199,58.5487171 99.4484781,58.4523365 C99.4176363,58.3559559 99.3945053,58.2692147 99.3790844,58.1921102 C99.3636635,58.2692147 99.3405325,58.3559559 99.3096907,58.4523365 C99.2788489,58.5487171 99.2634283,58.6007619 99.2634283,58.6084724 L98.4191383,60.6208896 Z M107.902944,61.5692702 C107.902944,61.137485 107.777651,60.7808821 107.527061,60.4994507 C107.276472,60.2180192 106.927579,60.0773057 106.480373,60.0773057 C106.25677,60.0773057 106.052446,60.1139297 105.867395,60.187179 C105.682345,60.2604283 105.522355,60.3645178 105.387422,60.4994507 C105.252489,60.6343835 105.146472,60.7924454 105.069368,60.9736409 C104.992263,61.1548365 104.953712,61.3495224 104.953712,61.5577046 C104.953712,61.7735972 104.992263,61.9740658 105.069368,62.1591166 C105.146472,62.3441674 105.252489,62.5041568 105.387422,62.6390897 C105.522355,62.7740226 105.682345,62.8800397 105.867395,62.9571442 C106.052446,63.0342487 106.25677,63.0728003 106.480373,63.0728003 C106.703976,63.0728003 106.904445,63.0342487 107.081785,62.9571442 C107.259125,62.8800397 107.407549,62.772095 107.527061,62.6333069 C107.646573,62.4945188 107.739097,62.3345294 107.804636,62.1533338 C107.870175,61.9721383 107.902944,61.7774523 107.902944,61.5692702 Z M109.105768,61.5924014 C109.105768,61.962503 109.044085,62.3036853 108.920718,62.6159585 C108.797351,62.9282317 108.621941,63.200021 108.394483,63.4313344 C108.167024,63.6626479 107.895235,63.8419132 107.579107,63.9691356 C107.262978,64.096358 106.916013,64.1599683 106.538201,64.1599683 C106.160389,64.1599683 105.826917,64.0886477 105.537775,63.9460044 C105.248633,63.8033611 105.050092,63.651082 104.942146,63.4891625 C104.942146,63.5200043 104.944074,63.5489181 104.947929,63.5759046 C104.951784,63.6028912 104.953712,63.6356601 104.953712,63.6742124 L104.953712,66.3921323 L103.843412,66.3921323 L103.843412,59.1173595 L104.907449,59.1173595 C104.907449,59.2253058 104.915159,59.3332504 104.93058,59.4411967 C104.946001,59.549143 104.953712,59.6493774 104.953712,59.7419028 C105.015395,59.6647983 105.094426,59.5819122 105.190807,59.493242 C105.287187,59.4045718 105.40477,59.3236133 105.543558,59.2503641 C105.682346,59.1771148 105.83848,59.1154321 106.011966,59.0653142 C106.185451,59.0151963 106.376281,58.9901377 106.584464,58.9901377 C106.962276,58.9901377 107.305385,59.0498928 107.613803,59.1694048 C107.922221,59.2889167 108.1863,59.4623992 108.406048,59.6898575 C108.625796,59.9173158 108.797351,60.1910326 108.920718,60.5110163 C109.044085,60.8309999 109.105768,61.191458 109.105768,61.5924014 Z M114.229336,61.5692702 C114.229336,61.137485 114.104043,60.7808821 113.853454,60.4994507 C113.602864,60.2180192 113.253971,60.0773057 112.806765,60.0773057 C112.583162,60.0773057 112.378838,60.1139297 112.193788,60.187179 C112.008737,60.2604283 111.848747,60.3645178 111.713814,60.4994507 C111.578882,60.6343835 111.472864,60.7924454 111.39576,60.9736409 C111.318655,61.1548365 111.280104,61.3495224 111.280104,61.5577046 C111.280104,61.7735972 111.318655,61.9740658 111.39576,62.1591166 C111.472864,62.3441674 111.578882,62.5041568 111.713814,62.6390897 C111.848747,62.7740226 112.008737,62.8800397 112.193788,62.9571442 C112.378838,63.0342487 112.583162,63.0728003 112.806765,63.0728003 C113.030368,63.0728003 113.230837,63.0342487 113.408177,62.9571442 C113.585518,62.8800397 113.733942,62.772095 113.853454,62.6333069 C113.972965,62.4945188 114.065489,62.3345294 114.131028,62.1533338 C114.196567,61.9721383 114.229336,61.7774523 114.229336,61.5692702 Z M115.43216,61.5924014 C115.43216,61.962503 115.370477,62.3036853 115.24711,62.6159585 C115.123743,62.9282317 114.948333,63.200021 114.720875,63.4313344 C114.493416,63.6626479 114.221627,63.8419132 113.905499,63.9691356 C113.58937,64.096358 113.242405,64.1599683 112.864593,64.1599683 C112.486781,64.1599683 112.153309,64.0886477 111.864167,63.9460044 C111.575026,63.8033611 111.376485,63.651082 111.268538,63.4891625 C111.268538,63.5200043 111.270466,63.5489181 111.274321,63.5759046 C111.278176,63.6028912 111.280104,63.6356601 111.280104,63.6742124 L111.280104,66.3921323 L110.169805,66.3921323 L110.169805,59.1173595 L111.233841,59.1173595 C111.233841,59.2253058 111.241552,59.3332504 111.256973,59.4411967 C111.272393,59.549143 111.280104,59.6493774 111.280104,59.7419028 C111.341787,59.6647983 111.420818,59.5819122 111.517199,59.493242 C111.61358,59.4045718 111.731162,59.3236133 111.86995,59.2503641 C112.008738,59.1771148 112.164873,59.1154321 112.338358,59.0653142 C112.511843,59.0151963 112.702674,58.9901377 112.910856,58.9901377 C113.288668,58.9901377 113.631778,59.0498928 113.940196,59.1694048 C114.248614,59.2889167 114.512693,59.4623992 114.73244,59.6898575 C114.952188,59.9173158 115.123743,60.1910326 115.24711,60.5110163 C115.370477,60.8309999 115.43216,61.191458 115.43216,61.5924014 Z" id="Download-Mobile-App"></path>
            </g>
        </g>
    </g>
</svg>