<?xml version="1.0" encoding="UTF-8"?>
<svg width="134px" height="80px" viewBox="0 0 134 80" version="1.1" xmlns="http://www.w3.org/2000/svg" xmlns:xlink="http://www.w3.org/1999/xlink">
    <!-- Generator: Sketch 45.2 (43514) - http://www.bohemiancoding.com/sketch -->
    <title>android-text-too-wideDL</title>
    <desc>Created with Sketch.</desc>
    <defs></defs>
    <g id="Page-1" stroke="none" stroke-width="1" fill="none" fill-rule="evenodd">
        <g id="android-text-too-wide" fill="#FFFFFF">
            <g id="Group" transform="translate(4.000000, 4.000000)">
                <path d="M49.1360001,45.1120003 C49.1360001,46.3682003 50.1638001,47.3960003 51.4200001,47.3960003 L53.7040001,47.3960003 L53.7040001,55.3900003 C53.7040001,57.2857204 55.2342801,58.8160004 57.1300001,58.8160004 C59.0257201,58.8160004 60.5560001,57.2857204 60.5560001,55.3900003 L60.5560001,47.3960003 L65.1240002,47.3960003 L65.1240002,55.3900003 C65.1240002,57.2857204 66.6542802,58.8160004 68.5500002,58.8160004 C70.4457202,58.8160004 71.9760002,57.2857204 71.9760002,55.3900003 L71.9760002,47.3960003 L74.2600002,47.3960003 C75.5162002,47.3960003 76.5440002,46.3682003 76.5440002,45.1120003 L76.5440002,22.2720001 L49.1360001,22.2720001 L49.1360001,45.1120003 Z M43.426,22.2720001 C41.53028,22.2720001 40,23.8022801 40,25.6980001 L40,41.6860003 C40,43.5817203 41.53028,45.1120003 43.426,45.1120003 C45.32172,45.1120003 46.852,43.5817203 46.852,41.6860003 L46.852,25.6980001 C46.852,23.8022801 45.32172,22.2720001 43.426,22.2720001 Z M82.2540003,22.2720001 C80.3582803,22.2720001 78.8280003,23.8022801 78.8280003,25.6980001 L78.8280003,41.6860003 C78.8280003,43.5817203 80.3582803,45.1120003 82.2540003,45.1120003 C84.1497203,45.1120003 85.6800003,43.5817203 85.6800003,41.6860003 L85.6800003,25.6980001 C85.6800003,23.8022801 84.1497203,22.2720001 82.2540003,22.2720001 Z M70.9025202,8.93344003 L73.8717202,5.96424001 C74.3285202,5.50744001 74.3285202,4.79940001 73.8717202,4.3426 C73.4149202,3.8858 72.7068802,3.8858 72.2500802,4.3426 L68.8697602,7.72292002 C67.0654002,6.80932002 65.0098002,6.28400002 62.8400002,6.28400002 C60.6473601,6.28400002 58.5917601,6.80932002 56.7645601,7.72292002 L53.3614001,4.3426 C52.9046001,3.8858 52.1965601,3.8858 51.7397601,4.3426 C51.2829601,4.79940001 51.2829601,5.50744001 51.7397601,5.96424001 L54.7318001,8.95628003 C51.3514801,11.44584 49.1360001,15.4428401 49.1360001,19.9880001 L76.5440002,19.9880001 C76.5440002,15.4428401 74.3285202,11.423 70.9025202,8.93344003 L70.9025202,8.93344003 Z M58.2720001,15.4200001 L55.9880001,15.4200001 L55.9880001,13.1360001 L58.2720001,13.1360001 L58.2720001,15.4200001 Z M69.6920002,15.4200001 L67.4080002,15.4200001 L67.4080002,13.1360001 L69.6920002,13.1360001 L69.6920002,15.4200001 Z" id="Shape" fill-rule="nonzero"></path>
                <path d="M2,2 L2,71.1464844 L124.082031,71.1464844 L124.082031,2 L2,2 Z M0,0 L126.082031,0 L126.082031,73.1464844 L0,73.1464844 L0,0 Z" id="Rectangle-3" fill-rule="nonzero"></path>
                <path d="M19,61.4987231 L20.8126667,61.4987231 C21.5159977,61.4987231 22.1122217,61.6058196 22.6013564,61.8200159 C23.0904912,62.0342122 23.4885066,62.310745 23.7954147,62.6496226 C24.1023227,62.9885003 24.3245081,63.3737281 24.4619773,63.8053176 C24.5994466,64.2369071 24.6681801,64.6668916 24.6681801,65.0952841 C24.6681801,65.6195854 24.5738713,66.0911298 24.3852507,66.5099315 C24.1966301,66.9287331 23.9424757,67.2851887 23.6227797,67.5793089 C23.3030838,67.8734292 22.9306437,68.0988114 22.5054481,68.2554624 C22.0802526,68.4121134 21.6310865,68.4904377 21.1579366,68.4904377 L19,68.4904377 L19,61.4987231 Z M20.9757108,67.3779015 C21.3401642,67.3779015 21.6758399,67.3267509 21.9827479,67.2244482 C22.289656,67.1221456 22.5549996,66.9702923 22.7787868,66.7688839 C23.0025739,66.5674754 23.1768056,66.3213133 23.301487,66.03039 C23.4261684,65.7394667 23.4885081,65.4021926 23.4885081,65.0185575 C23.4885081,64.5837711 23.4133807,64.2145278 23.2631236,63.9108167 C23.1128666,63.6071056 22.9226504,63.3609434 22.6924693,63.1723228 C22.4622882,62.9837023 22.2065354,62.8462351 21.925203,62.7599172 C21.6438705,62.6735993 21.37533,62.630441 21.1195733,62.630441 L20.179672,62.630441 L20.179672,67.3779015 L20.9757108,67.3779015 Z M25.2340391,66.4475911 C25.2340391,66.1534708 25.289985,65.876938 25.4018786,65.6179843 C25.5137722,65.3590306 25.6688223,65.1336484 25.8670338,64.9418309 C26.0652453,64.7500133 26.2970213,64.59816 26.5623689,64.4862665 C26.8277165,64.3743729 27.1106432,64.318427 27.4111573,64.318427 C27.7180654,64.318427 28.0025905,64.3743729 28.2647411,64.4862665 C28.5268918,64.59816 28.752274,64.7500133 28.9408946,64.9418309 C29.1295152,65.1336484 29.2781716,65.3590306 29.3868682,65.6179843 C29.4955648,65.876938 29.5499123,66.1534708 29.5499123,66.4475911 C29.5499123,66.7417113 29.4971632,67.0198426 29.3916636,67.2819932 C29.2861639,67.5441439 29.1375076,67.772723 28.94569,67.9677375 C28.7538725,68.162752 28.5268918,68.3162038 28.2647411,68.4280973 C28.0025905,68.5399909 27.7148685,68.5959368 27.4015665,68.5959368 C27.1010524,68.5959368 26.8197242,68.5447863 26.5575735,68.4424836 C26.2954229,68.3401809 26.0668437,68.1947214 25.8718292,68.0061008 C25.6768147,67.8174802 25.5217645,67.5904996 25.406674,67.325152 C25.2915835,67.0598043 25.2340391,66.767287 25.2340391,66.4475911 Z M26.1451679,66.4571819 C26.1451679,66.6298177 26.177137,66.7912617 26.2410762,66.9415188 C26.3050153,67.0917759 26.3929304,67.2228492 26.504824,67.3347428 C26.6167175,67.4466364 26.7477909,67.5345514 26.898048,67.5984906 C27.048305,67.6624298 27.2097491,67.6943989 27.3823848,67.6943989 C27.5550206,67.6943989 27.7164647,67.6624298 27.8667217,67.5984906 C28.0169788,67.5345514 28.1480522,67.4466364 28.2599457,67.3347428 C28.3718393,67.2228492 28.4613528,67.0917759 28.528489,66.9415188 C28.5956251,66.7912617 28.6291927,66.6298177 28.6291927,66.4571819 C28.6291927,66.2845461 28.5956251,66.1231021 28.528489,65.972845 C28.4613528,65.8225879 28.3718393,65.6915146 28.2599457,65.579621 C28.1480522,65.4677274 28.0169788,65.3782139 27.8667217,65.3110778 C27.7164647,65.2439416 27.5550206,65.2103741 27.3823848,65.2103741 C27.2097491,65.2103741 27.048305,65.2439416 26.898048,65.3110778 C26.7477909,65.3782139 26.6167175,65.4677274 26.504824,65.579621 C26.3929304,65.6915146 26.3050153,65.8225879 26.2410762,65.972845 C26.177137,66.1231021 26.1451679,66.2845461 26.1451679,66.4571819 Z M32.5038877,65.0089667 L32.2257537,64.4143352 L33.0217925,64.4143352 C33.21361,64.8299399 33.3734556,65.1847971 33.501334,65.4789173 C33.6292123,65.7730375 33.7347104,66.0207982 33.8178313,66.2222066 C33.9009523,66.423615 33.966489,66.5866575 34.0144433,66.7113389 C34.0623977,66.8360203 34.0991622,66.936723 34.1247379,67.01345 C34.1503135,66.8408142 34.1838811,66.6841656 34.2254416,66.5434994 C34.2670021,66.4028332 34.3261449,66.2429876 34.4028719,66.0639579 C34.4795989,65.8849282 34.5771047,65.6675382 34.6953922,65.4117815 C34.8136797,65.1560248 34.9591392,64.823546 35.131775,64.4143352 L36.0524946,64.4143352 L34.1247379,68.7302085 C34.0032534,68.4872396 33.8945585,68.2490697 33.7986497,68.0156917 C33.7027409,67.7823137 33.6068336,67.5505376 33.5109248,67.3203565 C33.415016,67.0901755 33.3175102,66.8583994 33.2184045,66.6250214 C33.1192988,66.3916434 33.0090053,66.1534735 32.8875209,65.9105046 C32.6701277,66.3964424 32.4639269,66.8663883 32.2689124,67.3203565 C32.0738979,67.7743247 31.870894,68.2442707 31.6598947,68.7302085 L29.8280463,64.4143352 L30.7487659,64.4143352 C30.9214017,64.8299399 31.0620658,65.1656156 31.1707624,65.4213723 C31.279459,65.6771291 31.3657756,65.894519 31.4297148,66.0735487 C31.493654,66.2525784 31.5416077,66.4108255 31.5735773,66.5482948 C31.6055469,66.685764 31.6343191,66.8408142 31.6598947,67.01345 C31.6790765,66.9559047 31.7030533,66.8887696 31.731826,66.8120426 C31.7605986,66.7353156 31.8037569,66.6250221 31.8613022,66.481159 C31.9188474,66.3372958 31.9987702,66.1486781 32.1010729,65.9153 C32.2033756,65.681922 32.3376458,65.3798139 32.5038877,65.0089667 Z M36.6567168,64.4143352 L37.4623465,64.4143352 C37.4751343,64.6445163 37.4895204,64.8315356 37.5055052,64.9753988 C37.52149,65.1192619 37.5358761,65.2807059 37.548664,65.4597356 C37.6957241,65.1144641 37.9035233,64.8363328 38.1720679,64.6253335 C38.4406124,64.4143342 38.7762881,64.3088361 39.1791049,64.3088361 C39.5947096,64.3088361 39.9255899,64.4223265 40.1717558,64.6493106 C40.4179216,64.8762947 40.5473965,65.1720089 40.5601844,65.5364623 L40.5601844,68.4904377 L39.6490556,68.4904377 L39.6490556,65.9680496 C39.6362677,65.7698381 39.5659357,65.5988034 39.4380573,65.4549402 C39.310179,65.3110771 39.1119705,65.2327527 38.8434259,65.2199649 C38.6580023,65.2199649 38.4869675,65.2535325 38.3303165,65.3206686 C38.1736655,65.3878048 38.0393953,65.4789167 37.9275017,65.5940073 C37.8156081,65.7090978 37.7292915,65.846565 37.6685493,66.0064129 C37.6078071,66.1662609 37.5774364,66.3388941 37.5774364,66.5243177 L37.5774364,68.4904377 L36.6567168,68.4904377 L36.6567168,64.4143352 Z M42.5742585,68.4904377 L41.6631297,68.4904377 L41.6631297,61 L42.5742585,61 L42.5742585,68.4904377 Z M43.447024,66.4475911 C43.447024,66.1534708 43.5029699,65.876938 43.6148635,65.6179843 C43.7267571,65.3590306 43.8818073,65.1336484 44.0800187,64.9418309 C44.2782302,64.7500133 44.5100063,64.59816 44.7753539,64.4862665 C45.0407015,64.3743729 45.3236281,64.318427 45.6241423,64.318427 C45.9310503,64.318427 46.2155754,64.3743729 46.4777261,64.4862665 C46.7398767,64.59816 46.965259,64.7500133 47.1538795,64.9418309 C47.3425001,65.1336484 47.4911565,65.3590306 47.5998531,65.6179843 C47.7085497,65.876938 47.7628972,66.1534708 47.7628972,66.4475911 C47.7628972,66.7417113 47.7101482,67.0198426 47.6046485,67.2819932 C47.4991489,67.5441439 47.3504925,67.772723 47.158675,67.9677375 C46.9668574,68.162752 46.7398767,68.3162038 46.4777261,68.4280973 C46.2155754,68.5399909 45.9278534,68.5959368 45.6145514,68.5959368 C45.3140373,68.5959368 45.0327091,68.5447863 44.7705584,68.4424836 C44.5084078,68.3401809 44.2798287,68.1947214 44.0848142,68.0061008 C43.8897996,67.8174802 43.7347495,67.5904996 43.6196589,67.325152 C43.5045684,67.0598043 43.447024,66.767287 43.447024,66.4475911 Z M44.3581528,66.4571819 C44.3581528,66.6298177 44.3901219,66.7912617 44.4540611,66.9415188 C44.5180003,67.0917759 44.6059153,67.2228492 44.7178089,67.3347428 C44.8297025,67.4466364 44.9607758,67.5345514 45.1110329,67.5984906 C45.26129,67.6624298 45.422734,67.6943989 45.5953698,67.6943989 C45.7680056,67.6943989 45.9294496,67.6624298 46.0797067,67.5984906 C46.2299637,67.5345514 46.3610371,67.4466364 46.4729307,67.3347428 C46.5848242,67.2228492 46.6743377,67.0917759 46.7414739,66.9415188 C46.80861,66.7912617 46.8421776,66.6298177 46.8421776,66.4571819 C46.8421776,66.2845461 46.80861,66.1231021 46.7414739,65.972845 C46.6743377,65.8225879 46.5848242,65.6915146 46.4729307,65.579621 C46.3610371,65.4677274 46.2299637,65.3782139 46.0797067,65.3110778 C45.9294496,65.2439416 45.7680056,65.2103741 45.5953698,65.2103741 C45.422734,65.2103741 45.26129,65.2439416 45.1110329,65.3110778 C44.9607758,65.3782139 44.8297025,65.4677274 44.7178089,65.579621 C44.6059153,65.6915146 44.5180003,65.8225879 44.4540611,65.972845 C44.3901219,66.1231021 44.3581528,66.2845461 44.3581528,66.4571819 Z M48.3767103,66.4955452 C48.3767103,66.201425 48.4342547,65.9216953 48.5493452,65.6563476 C48.6644357,65.391 48.8194859,65.159224 49.0145004,64.9610125 C49.2095149,64.7628011 49.4364956,64.604554 49.6954493,64.4862665 C49.954403,64.367979 50.2277389,64.3088361 50.5154652,64.3088361 C50.7072828,64.3088361 50.879916,64.332813 51.03337,64.3807673 C51.186824,64.4287217 51.3194959,64.4846677 51.4313894,64.5486069 C51.543283,64.612546 51.6311981,64.6780827 51.6951372,64.7452189 C51.7590764,64.812355 51.8006363,64.865104 51.819818,64.9034675 L51.8581813,64.4143352 L52.7501285,64.4143352 L52.7501285,68.4904377 L51.819818,68.4904377 L51.819818,68.2218945 C51.819818,68.1899249 51.8214165,68.1595542 51.8246134,68.1307816 C51.8278104,68.102009 51.8294088,68.0812291 51.8294088,68.0684412 C51.8038332,68.1004108 51.7590764,68.146766 51.6951372,68.2075083 C51.6311981,68.2682505 51.5448815,68.3273933 51.4361848,68.3849386 C51.3274882,68.4424839 51.1980133,68.492036 51.0477563,68.5335965 C50.8974992,68.5751569 50.7232675,68.5959368 50.5250561,68.5959368 C50.2117541,68.5959368 49.9240321,68.5383924 49.6618814,68.4233019 C49.3997308,68.3082114 49.1727501,68.1547597 48.9809325,67.9629421 C48.789115,67.7711246 48.6404586,67.5489392 48.534959,67.2963795 C48.4294593,67.0438197 48.3767103,66.7768776 48.3767103,66.4955452 Z M49.3070207,66.4380002 C49.3070207,66.6170299 49.3373914,66.7832693 49.3981336,66.9367234 C49.4588758,67.0901774 49.5451924,67.2228492 49.657086,67.3347428 C49.7689796,67.4466364 49.9016514,67.5345514 50.0551054,67.5984906 C50.2085595,67.6624298 50.3779957,67.6943989 50.5634194,67.6943989 C50.748843,67.6943989 50.9182793,67.6624298 51.0717333,67.5984906 C51.2251874,67.5345514 51.3578592,67.4450379 51.4697527,67.3299474 C51.5816463,67.2148568 51.6679629,67.0805866 51.7287051,66.9271325 C51.7894474,66.7736785 51.819818,66.610636 51.819818,66.4380002 C51.819818,66.2653644 51.7894474,66.1039204 51.7287051,65.9536634 C51.6679629,65.8034063 51.5816463,65.6739314 51.4697527,65.5652348 C51.3578592,65.4565382 51.2251874,65.3702216 51.0717333,65.3062824 C50.9182793,65.2423432 50.748843,65.2103741 50.5634194,65.2103741 C50.3779957,65.2103741 50.2085595,65.2407447 50.0551054,65.301487 C49.9016514,65.3622292 49.7689796,65.4485458 49.657086,65.5604394 C49.5451924,65.6723329 49.4588758,65.8034063 49.3981336,65.9536634 C49.3373914,66.1039204 49.3070207,66.2653644 49.3070207,66.4380002 Z M53.6324848,66.4571819 C53.6324848,66.137486 53.6852338,65.8465671 53.7907334,65.5844164 C53.8962331,65.3222658 54.043291,65.0968835 54.2319116,64.908263 C54.4205322,64.7196424 54.6411191,64.5725845 54.8936788,64.4670848 C55.1462386,64.3615852 55.4227714,64.3088361 55.7232856,64.3088361 C55.9278909,64.3088361 56.106918,64.3312145 56.260372,64.3759719 C56.413826,64.4207294 56.5448994,64.4750768 56.653596,64.539016 C56.7622926,64.6029552 56.8502077,64.6716888 56.9173438,64.7452189 C56.98448,64.8187489 57.037229,64.8810887 57.0755925,64.93224 L57.0755925,61 L57.9963121,61 L57.9963121,68.4904377 L57.0755925,68.4904377 L57.0755925,68.2218945 C57.0755925,68.1899249 57.0787894,68.1547589 57.0851833,68.1163954 C57.0915772,68.0780319 57.0947742,68.0492597 57.0947742,68.0300779 C57.0372289,68.0876232 56.9668968,68.1499629 56.8837759,68.2170991 C56.800655,68.2842352 56.7015507,68.346575 56.5864602,68.4041203 C56.4713697,68.4616655 56.3418948,68.5080207 56.1980316,68.5431873 C56.0541685,68.5783538 55.8895275,68.5959368 55.7041039,68.5959368 C55.3780141,68.5959368 55.0854967,68.5399909 54.826543,68.4280973 C54.5675893,68.3162038 54.3501994,68.162752 54.1743666,67.9677375 C53.9985339,67.772723 53.8642636,67.5457423 53.7715518,67.2867886 C53.67884,67.0278349 53.6324848,66.7513021 53.6324848,66.4571819 Z M54.5532044,66.4380002 C54.5532044,66.6170299 54.583575,66.7832693 54.6443173,66.9367234 C54.7050595,67.0901774 54.7913761,67.2228492 54.9032697,67.3347428 C55.0151632,67.4466364 55.147835,67.5345514 55.3012891,67.5984906 C55.4547431,67.6624298 55.6241794,67.6943989 55.809603,67.6943989 C55.9950267,67.6943989 56.1660614,67.6624298 56.3227124,67.5984906 C56.4793634,67.5345514 56.6136337,67.4450379 56.7255272,67.3299474 C56.8374208,67.2148568 56.9237374,67.0805866 56.9844796,66.9271325 C57.0452218,66.7736785 57.0755925,66.610636 57.0755925,66.4380002 C57.0755925,66.2653644 57.0452218,66.1039204 56.9844796,65.9536634 C56.9237374,65.8034063 56.8374208,65.6739314 56.7255272,65.5652348 C56.6136337,65.4565382 56.4793634,65.3702216 56.3227124,65.3062824 C56.1660614,65.2423432 55.9950267,65.2103741 55.809603,65.2103741 C55.6241794,65.2103741 55.4547431,65.2407447 55.3012891,65.301487 C55.147835,65.3622292 55.0151632,65.4485458 54.9032697,65.5604394 C54.7913761,65.6723329 54.7050595,65.8034063 54.6443173,65.9536634 C54.583575,66.1039204 54.5532044,66.2653644 54.5532044,66.4380002 Z M61.5545098,61.1918166 C61.5864794,61.236574 61.6568114,61.3372767 61.765508,61.4939277 C61.8742047,61.6505787 62.0100734,61.8423934 62.1731183,62.0693775 C62.3361632,62.2963616 62.5183871,62.5473191 62.7197956,62.8222576 C62.921204,63.0971961 63.1258063,63.3769258 63.3336086,63.6614551 C63.541411,63.9459845 63.7444148,64.2241158 63.9426263,64.4958573 C64.1408378,64.7675988 64.3198648,65.0153594 64.4797128,65.2391466 C64.6395607,65.4629337 64.7754294,65.649953 64.887323,65.8002101 C64.9992166,65.9504672 65.0679502,66.044776 65.0935258,66.0831396 C65.1063137,66.0639578 65.1638581,65.9824366 65.2661608,65.8385734 C65.3684634,65.6947102 65.4979384,65.5140848 65.6545893,65.2966915 C65.8112403,65.0792983 65.9886689,64.8315377 66.1868804,64.5534023 C66.3850918,64.2752668 66.5896942,63.9923402 66.8006935,63.7046139 C67.0116928,63.4168876 67.2178935,63.1323625 67.4193019,62.8510301 C67.6207104,62.5696977 67.8061312,62.3139448 67.97557,62.0837637 C68.1450089,61.8535827 68.2872714,61.6585711 68.402362,61.4987231 C68.5174525,61.3388752 68.5909814,61.236574 68.622951,61.1918166 L68.622951,68.4904377 L67.3665524,68.4904377 L67.3665524,64.9226492 C67.3665524,64.8714979 67.3729462,64.8171504 67.385734,64.7596051 C67.3985219,64.7020598 67.4049157,64.6668938 67.4049157,64.654106 L65.0935258,67.9821238 C65.0615562,67.9437603 64.9832319,67.8382622 64.8585505,67.6656264 C64.7338691,67.4929906 64.5852127,67.2883883 64.4125769,67.0518133 C64.2399412,66.8152383 64.0577172,66.5610839 63.8658997,66.2893424 C63.6740821,66.0176009 63.4934566,65.7650449 63.3240178,65.5316669 C63.154579,65.2982889 63.010718,65.1000804 62.8924305,64.9370354 C62.774143,64.7739905 62.7086063,64.6796817 62.6958185,64.654106 C62.6958185,64.6668938 62.7022123,64.7020598 62.7150002,64.7596051 C62.727788,64.8171504 62.7341818,64.8714979 62.7341818,64.9226492 L62.7341818,68.4904377 L61.5545098,68.4904377 L61.5545098,61.1918166 Z M69.5628523,66.4475911 C69.5628523,66.1534708 69.6187982,65.876938 69.7306918,65.6179843 C69.8425854,65.3590306 69.9976356,65.1336484 70.195847,64.9418309 C70.3940585,64.7500133 70.6258346,64.59816 70.8911822,64.4862665 C71.1565298,64.3743729 71.4394564,64.318427 71.7399706,64.318427 C72.0468786,64.318427 72.3314037,64.3743729 72.5935544,64.4862665 C72.855705,64.59816 73.0810873,64.7500133 73.2697078,64.9418309 C73.4583284,65.1336484 73.6069848,65.3590306 73.7156814,65.6179843 C73.824378,65.876938 73.8787255,66.1534708 73.8787255,66.4475911 C73.8787255,66.7417113 73.8259765,67.0198426 73.7204768,67.2819932 C73.6149772,67.5441439 73.4663208,67.772723 73.2745033,67.9677375 C73.0826857,68.162752 72.855705,68.3162038 72.5935544,68.4280973 C72.3314037,68.5399909 72.0436817,68.5959368 71.7303797,68.5959368 C71.4298656,68.5959368 71.1485374,68.5447863 70.8863868,68.4424836 C70.6242361,68.3401809 70.395657,68.1947214 70.2006425,68.0061008 C70.005628,67.8174802 69.8505778,67.5904996 69.7354872,67.325152 C69.6203967,67.0598043 69.5628523,66.767287 69.5628523,66.4475911 Z M70.4739811,66.4571819 C70.4739811,66.6298177 70.5059502,66.7912617 70.5698894,66.9415188 C70.6338286,67.0917759 70.7217436,67.2228492 70.8336372,67.3347428 C70.9455308,67.4466364 71.0766041,67.5345514 71.2268612,67.5984906 C71.3771183,67.6624298 71.5385623,67.6943989 71.7111981,67.6943989 C71.8838339,67.6943989 72.0452779,67.6624298 72.195535,67.5984906 C72.345792,67.5345514 72.4768654,67.4466364 72.588759,67.3347428 C72.7006525,67.2228492 72.790166,67.0917759 72.8573022,66.9415188 C72.9244383,66.7912617 72.9580059,66.6298177 72.9580059,66.4571819 C72.9580059,66.2845461 72.9244383,66.1231021 72.8573022,65.972845 C72.790166,65.8225879 72.7006525,65.6915146 72.588759,65.579621 C72.4768654,65.4677274 72.345792,65.3782139 72.195535,65.3110778 C72.0452779,65.2439416 71.8838339,65.2103741 71.7111981,65.2103741 C71.5385623,65.2103741 71.3771183,65.2439416 71.2268612,65.3110778 C71.0766041,65.3782139 70.9455308,65.4677274 70.8336372,65.579621 C70.7217436,65.6915146 70.6338286,65.8225879 70.5698894,65.972845 C70.5059502,66.1231021 70.4739811,66.2845461 70.4739811,66.4571819 Z M79.1153183,66.4667727 C79.1153183,66.7736808 79.0641678,67.0566074 78.9618651,67.3155611 C78.8595624,67.5745148 78.7141029,67.799897 78.5254823,67.9917146 C78.3368617,68.1835321 78.1114795,68.3321885 77.8493289,68.4376882 C77.5871782,68.5431878 77.2994562,68.5959368 76.9861542,68.5959368 C76.6728522,68.5959368 76.3963194,68.536794 76.1565475,68.4185065 C75.9167755,68.300219 75.7521346,68.173941 75.6626198,68.0396687 C75.6626198,68.0652444 75.6642182,68.0892212 75.6674152,68.1116 C75.6706121,68.1339787 75.6722106,68.1611524 75.6722106,68.193122 L75.6722106,68.4904377 L74.751491,68.4904377 L74.751491,61 L75.6722106,61 L75.6722106,64.93224 C75.7233619,64.8683008 75.7888986,64.7995673 75.8688226,64.7260372 C75.9487466,64.6525071 76.0462524,64.585372 76.1613429,64.5246298 C76.2764334,64.4638876 76.4059083,64.412737 76.5497715,64.3711765 C76.6936346,64.329616 76.8518817,64.3088361 77.0245175,64.3088361 C77.3378195,64.3088361 77.6223446,64.3583882 77.8781013,64.457494 C78.1338581,64.5565997 78.3528465,64.7004607 78.5350732,64.8890813 C78.7172998,65.0777019 78.8595624,65.3046826 78.9618651,65.5700302 C79.0641678,65.8353778 79.1153183,66.134289 79.1153183,66.4667727 Z M78.1178721,66.4475911 C78.1178721,66.0895316 78.0139725,65.7938174 77.8061701,65.5604394 C77.5983678,65.3270613 77.3090473,65.2103741 76.9382001,65.2103741 C76.7527764,65.2103741 76.5833402,65.2407447 76.4298861,65.301487 C76.2764321,65.3622292 76.1437603,65.4485458 76.0318667,65.5604394 C75.9199731,65.6723329 75.8320581,65.8034063 75.7681189,65.9536634 C75.7041797,66.1039204 75.6722106,66.2653644 75.6722106,66.4380002 C75.6722106,66.6170299 75.7041797,66.7832693 75.7681189,66.9367234 C75.8320581,67.0901774 75.9199731,67.2228492 76.0318667,67.3347428 C76.1437603,67.4466364 76.2764321,67.5345514 76.4298861,67.5984906 C76.5833402,67.6624298 76.7527764,67.6943989 76.9382001,67.6943989 C77.1236237,67.6943989 77.2898631,67.6624298 77.4369232,67.5984906 C77.5839833,67.5345514 77.7070644,67.4450379 77.8061701,67.3299474 C77.9052759,67.2148568 77.9820017,67.082185 78.03635,66.9319279 C78.0906983,66.7816709 78.1178721,66.6202269 78.1178721,66.4475911 Z M79.9017663,62.8318484 C79.9017663,62.6656065 79.9625076,62.5281394 80.0839921,62.4194427 C80.2054765,62.3107461 80.3365499,62.2563986 80.4772161,62.2563986 C80.6178823,62.2563986 80.7473572,62.3107461 80.8656447,62.4194427 C80.9839322,62.5281394 81.043075,62.6656065 81.043075,62.8318484 C81.043075,63.0044842 80.9839322,63.1435498 80.8656447,63.2490495 C80.7473572,63.3545491 80.6178823,63.4072982 80.4772161,63.4072982 C80.3365499,63.4072982 80.2054765,63.3545491 80.0839921,63.2490495 C79.9625076,63.1435498 79.9017663,63.0044842 79.9017663,62.8318484 Z M80.9279851,68.4904377 L80.0072655,68.4904377 L80.0072655,64.4143352 L80.9279851,64.4143352 L80.9279851,68.4904377 Z M82.9708317,68.4904377 L82.0597029,68.4904377 L82.0597029,61 L82.9708317,61 L82.9708317,68.4904377 Z M87.6032023,68.0204871 C87.4049908,68.1995168 87.1652225,68.3401809 86.8838901,68.4424836 C86.6025577,68.5447863 86.3148357,68.5959368 86.0207155,68.5959368 C85.7202013,68.5959368 85.4372747,68.5399909 85.1719271,68.4280973 C84.9065795,68.3162038 84.6764019,68.162752 84.4813874,67.9677375 C84.2863728,67.772723 84.1313227,67.5457423 84.0162321,67.2867886 C83.9011416,67.0278349 83.8435972,66.7513021 83.8435972,66.4571819 C83.8435972,66.1630617 83.9011416,65.8865288 84.0162321,65.6275752 C84.1313227,65.3686215 84.2863728,65.1416408 84.4813874,64.9466263 C84.6764019,64.7516118 84.9033825,64.59816 85.1623362,64.4862665 C85.4212899,64.3743729 85.6946258,64.318427 85.9823521,64.318427 C86.4427143,64.318427 86.8471235,64.4574926 87.1955921,64.735628 C87.5440606,65.0137635 87.7918212,65.3798098 87.9388813,65.833778 C87.7470638,65.9041111 87.5248785,65.9888292 87.2723187,66.087935 C87.0197589,66.1870407 86.7560138,66.2909403 86.4810753,66.3996369 C86.2061368,66.5083335 85.9312024,66.618627 85.6562639,66.7305205 C85.3813255,66.8424141 85.1287695,66.9431168 84.8985884,67.0326317 C85.007285,67.2308431 85.1575399,67.3906887 85.3493574,67.5121731 C85.541175,67.6336576 85.7585649,67.6943989 86.0015338,67.6943989 C86.1677757,67.6943989 86.3356135,67.6640282 86.5050523,67.603286 C86.6744912,67.5425438 86.8135568,67.4610225 86.9222534,67.3587199 L87.6032023,68.0204871 Z M86.7975726,65.6227797 C86.7208456,65.4821135 86.6057568,65.3782139 86.4523028,65.3110778 C86.2988487,65.2439416 86.1485939,65.2103741 86.0015338,65.2103741 C85.828898,65.2103741 85.6658555,65.2439416 85.5124015,65.3110778 C85.3589475,65.3782139 85.2278741,65.4677274 85.1191775,65.579621 C85.0104809,65.6915146 84.9241643,65.819391 84.8602251,65.9632542 C84.7962859,66.1071173 84.7643168,66.2557737 84.7643168,66.4092278 L84.7643168,66.4475911 C84.9241648,66.3836519 85.0951995,66.3149183 85.2774262,66.2413882 C85.4596529,66.1678582 85.6418768,66.0927308 85.8241035,66.0160037 C86.0063301,65.9392767 86.1805618,65.8673462 86.3468037,65.8002101 C86.5130455,65.7330739 86.6633004,65.6739311 86.7975726,65.6227797 Z M95.09364,68.4904377 C95.0744583,68.4456803 95.0408907,68.3657575 94.9929363,68.250667 C94.9449819,68.1355765 94.8858391,67.9949124 94.815506,67.8286705 C94.7451729,67.6624286 94.668447,67.4786062 94.5853261,67.2771978 C94.5022051,67.0757894 94.4158885,66.8663917 94.3263737,66.6489985 L91.9190755,66.6489985 L91.1518092,68.4904377 L89.9913188,68.4904377 C90.0168945,68.4328925 90.0776358,68.2906299 90.1735446,68.0636458 C90.2694533,67.8366617 90.3893375,67.5553335 90.5332007,67.2196528 C90.6770638,66.8839721 90.8369094,66.5099335 91.0127421,66.0975258 C91.1885749,65.6851181 91.3692004,65.2647243 91.554624,64.8363317 C91.7400476,64.4079392 91.9206731,63.9875454 92.0965058,63.5751377 C92.2723386,63.16273 92.4321842,62.7886914 92.5760473,62.4530106 C92.7199105,62.1173299 92.8397946,61.8360018 92.9357034,61.6090177 C93.0316122,61.3820336 93.0923535,61.239771 93.1179292,61.1822258 C93.1435048,61.239771 93.2058446,61.3820336 93.3049503,61.6090177 C93.4040561,61.8360018 93.5255387,62.1173299 93.6694019,62.4530106 C93.813265,62.7886914 93.9731106,63.16273 94.1489433,63.5751377 C94.3247761,63.9875454 94.5054016,64.4079392 94.6908252,64.8363317 C94.8762488,65.2647243 95.0568743,65.6851181 95.232707,66.0975258 C95.4085398,66.5099335 95.5683854,66.8839721 95.7122485,67.2196528 C95.8561117,67.5553335 95.9759958,67.8366617 96.0719046,68.0636458 C96.1678134,68.2906299 96.2285547,68.4328925 96.2541304,68.4904377 L95.09364,68.4904377 Z M92.3218903,65.6611431 L93.913968,65.6611431 L93.2234283,63.9923388 C93.2170344,63.9859448 93.2010498,63.9427865 93.1754742,63.8628626 C93.1498985,63.7829386 93.130717,63.7110081 93.1179292,63.6470689 C93.1051413,63.7110081 93.0859599,63.7829386 93.0603842,63.8628626 C93.0348085,63.9427865 93.0220209,63.9859448 93.0220209,63.9923388 L92.3218903,65.6611431 Z M100.18637,66.4475911 C100.18637,66.0895316 100.082471,65.7938174 99.8746684,65.5604394 C99.6668661,65.3270613 99.3775456,65.2103741 99.0066984,65.2103741 C98.8212748,65.2103741 98.6518385,65.2407447 98.4983844,65.301487 C98.3449304,65.3622292 98.2122586,65.4485458 98.100365,65.5604394 C97.9884715,65.6723329 97.9005564,65.8034063 97.8366172,65.9536634 C97.772678,66.1039204 97.7407089,66.2653644 97.7407089,66.4380002 C97.7407089,66.6170299 97.772678,66.7832693 97.8366172,66.9367234 C97.9005564,67.0901774 97.9884715,67.2228492 98.100365,67.3347428 C98.2122586,67.4466364 98.3449304,67.5345514 98.4983844,67.5984906 C98.6518385,67.6624298 98.8212748,67.6943989 99.0066984,67.6943989 C99.192122,67.6943989 99.3583614,67.6624298 99.5054215,67.5984906 C99.6524816,67.5345514 99.7755627,67.4450379 99.8746684,67.3299474 C99.9737742,67.2148568 100.0505,67.082185 100.104848,66.9319279 C100.159197,66.7816709 100.18637,66.6202269 100.18637,66.4475911 Z M101.183817,66.4667727 C101.183817,66.7736808 101.132666,67.0566074 101.030363,67.3155611 C100.928061,67.5745148 100.782601,67.799897 100.593981,67.9917146 C100.40536,68.1835321 100.179978,68.3321885 99.9178272,68.4376882 C99.6556765,68.5431878 99.3679545,68.5959368 99.0546525,68.5959368 C98.7413505,68.5959368 98.4648177,68.536794 98.2250458,68.4185065 C97.9852739,68.300219 97.8206329,68.173941 97.7311181,68.0396687 C97.7311181,68.0652444 97.7327165,68.0892212 97.7359135,68.1116 C97.7391105,68.1339787 97.7407089,68.1611524 97.7407089,68.193122 L97.7407089,70.4469669 L96.8199893,70.4469669 L96.8199893,64.4143352 L97.7023456,64.4143352 C97.7023456,64.5038501 97.7087394,64.5933636 97.7215273,64.6828785 C97.7343151,64.7723933 97.7407089,64.855513 97.7407089,64.93224 C97.7918603,64.8683008 97.8573969,64.7995673 97.9373209,64.7260372 C98.0172449,64.6525071 98.1147507,64.585372 98.2298412,64.5246298 C98.3449317,64.4638876 98.4744066,64.412737 98.6182698,64.3711765 C98.762133,64.329616 98.9203801,64.3088361 99.0930159,64.3088361 C99.4063178,64.3088361 99.6908429,64.3583882 99.9465997,64.457494 C100.202356,64.5565997 100.421345,64.7004607 100.603571,64.8890813 C100.785798,65.0777019 100.928061,65.3046826 101.030363,65.5700302 C101.132666,65.8353778 101.183817,66.134289 101.183817,66.4667727 Z M105.432554,66.4475911 C105.432554,66.0895316 105.328654,65.7938174 105.120852,65.5604394 C104.91305,65.3270613 104.623729,65.2103741 104.252882,65.2103741 C104.067458,65.2103741 103.898022,65.2407447 103.744568,65.301487 C103.591114,65.3622292 103.458442,65.4485458 103.346549,65.5604394 C103.234655,65.6723329 103.14674,65.8034063 103.082801,65.9536634 C103.018862,66.1039204 102.986893,66.2653644 102.986893,66.4380002 C102.986893,66.6170299 103.018862,66.7832693 103.082801,66.9367234 C103.14674,67.0901774 103.234655,67.2228492 103.346549,67.3347428 C103.458442,67.4466364 103.591114,67.5345514 103.744568,67.5984906 C103.898022,67.6624298 104.067458,67.6943989 104.252882,67.6943989 C104.438306,67.6943989 104.604545,67.6624298 104.751605,67.5984906 C104.898665,67.5345514 105.021746,67.4450379 105.120852,67.3299474 C105.219958,67.2148568 105.296684,67.082185 105.351032,66.9319279 C105.40538,66.7816709 105.432554,66.6202269 105.432554,66.4475911 Z M106.43,66.4667727 C106.43,66.7736808 106.37885,67.0566074 106.276547,67.3155611 C106.174244,67.5745148 106.028785,67.799897 105.840164,67.9917146 C105.651544,68.1835321 105.426161,68.3321885 105.164011,68.4376882 C104.90186,68.5431878 104.614138,68.5959368 104.300836,68.5959368 C103.987534,68.5959368 103.711001,68.536794 103.471229,68.4185065 C103.231458,68.300219 103.066817,68.173941 102.977302,68.0396687 C102.977302,68.0652444 102.9789,68.0892212 102.982097,68.1116 C102.985294,68.1339787 102.986893,68.1611524 102.986893,68.193122 L102.986893,70.4469669 L102.066173,70.4469669 L102.066173,64.4143352 L102.948529,64.4143352 C102.948529,64.5038501 102.954923,64.5933636 102.967711,64.6828785 C102.980499,64.7723933 102.986893,64.855513 102.986893,64.93224 C103.038044,64.8683008 103.103581,64.7995673 103.183505,64.7260372 C103.263429,64.6525071 103.360934,64.585372 103.476025,64.5246298 C103.591115,64.4638876 103.72059,64.412737 103.864453,64.3711765 C104.008317,64.329616 104.166564,64.3088361 104.3392,64.3088361 C104.652501,64.3088361 104.937027,64.3583882 105.192783,64.457494 C105.44854,64.5565997 105.667528,64.7004607 105.849755,64.8890813 C106.031982,65.0777019 106.174244,65.3046826 106.276547,65.5700302 C106.37885,65.8353778 106.43,66.134289 106.43,66.4667727 Z" id="Download-Mobile-App"></path>
            </g>
        </g>
    </g>
</svg>