<?xml version="1.0" encoding="UTF-8"?>
<svg width="44px" height="43px" viewBox="0 0 44 43" version="1.1" xmlns="http://www.w3.org/2000/svg" xmlns:xlink="http://www.w3.org/1999/xlink">
    <!-- Generator: Sketch 45.2 (43514) - http://www.bohemiancoding.com/sketch -->
    <title>Artboard 2</title>
    <desc>Created with Sketch.</desc>
    <defs></defs>
    <g id="Page-1" stroke="none" stroke-width="1" fill="none" fill-rule="evenodd">
        <g id="Artboard-2">
            <g id="Group" transform="translate(2.000000, 2.000000)">
                <circle id="Oval-2" fill="#FFFFFF" cx="20" cy="20" r="20"></circle>
                <g id="Logo-Mark" transform="translate(5.000000, 6.000000)" fill="#000000">
                    <ellipse id="Oval" cx="11.6359195" cy="3.0000062" rx="1.7331201" ry="1.78715614"></ellipse>
                    <rect id="Rectangle" transform="translate(12.839905, 8.445915) rotate(-45.000000) translate(-12.839905, -8.445915) " x="2.74776797" y="6.65875879" width="20.1842735" height="3.57431228" rx="1.78715614"></rect>
                    <rect id="Rectangle" transform="translate(4.840736, 8.756807) rotate(-45.000000) translate(-4.840736, -8.756807) " x="-0.175441655" y="6.96965113" width="10.0323562" height="3.57431228" rx="1.78715614"></rect>
                    <rect id="Rectangle" transform="translate(25.728434, 19.651867) rotate(-45.000000) translate(-25.728434, -19.651867) " x="22.2638561" y="17.8647105" width="6.92915523" height="3.57431228" rx="1.78715614"></rect>
                    <rect id="Rectangle" transform="translate(7.976425, 21.607311) rotate(-45.000000) translate(-7.976425, -21.607311) " x="2.96024693" y="19.8201548" width="10.0323562" height="3.57431228" rx="1.78715614"></rect>
                    <rect id="Rectangle" transform="translate(19.201339, 10.308014) rotate(-45.000000) translate(-19.201339, -10.308014) " x="10.8646477" y="8.52085776" width="16.6733825" height="3.57431228" rx="1.78715614"></rect>
                    <rect id="Rectangle" transform="translate(18.769011, 18.959449) rotate(-45.000000) translate(-18.769011, -18.959449) " x="5.30479238" y="17.1722927" width="26.9284377" height="3.57431228" rx="1.78715614"></rect>
                    <ellipse id="Oval" cx="18.6875987" cy="26.6450329" rx="1.7331201" ry="1.78715614"></ellipse>
                    <ellipse id="Oval" cx="2.7090768" cy="18.9006896" rx="1.7331201" ry="1.78715614"></ellipse>
                </g>
            </g>
        </g>
    </g>
</svg>