<?xml version="1.0" encoding="UTF-8"?>
<svg width="63px" height="54px" viewBox="0 0 63 54" version="1.1" xmlns="http://www.w3.org/2000/svg" xmlns:xlink="http://www.w3.org/1999/xlink">
    <!-- Generator: Sketch 45.2 (43514) - http://www.bohemiancoding.com/sketch -->
    <title>Searchico</title>
    <desc>Created with Sketch.</desc>
    <defs></defs>
    <g id="Page-1" stroke="none" stroke-width="1" fill="none" fill-rule="evenodd">
        <g id="Artboard-1" transform="translate(-1069.000000, -498.000000)">
            <g id="Search" transform="translate(1069.000000, 500.000000)">
                <g id="search">
                    <circle id="Oval-125" stroke="#B7A79F" stroke-width="3" fill="#FFFFFF" cx="32" cy="21" r="21"></circle>
                    <path d="M29.855694,7.00354287 C31.4068275,6.35701253 33.1088405,6 34.8942382,6 C42.1323506,6 48,11.8676494 48,19.1057618 C48,20.8911595 47.6429875,22.5931725 46.9964571,24.144306 C46.8093955,14.7617961 39.2382039,7.19060446 29.855694,7.00354287 Z" id="Oval-41-Copy-2" fill="#E7E3C0"></path>
                    <rect id="Rectangle-129" fill="#B7A79F" transform="translate(54.000000, 43.000000) rotate(-45.000000) translate(-54.000000, -43.000000) " x="52" y="32" width="4" height="22" rx="2"></rect>
                    <rect id="Rectangle-130" fill="#FFC107" x="0" y="37" width="11" height="3" rx="1.5"></rect>
                    <rect id="Rectangle-130-Copy" fill="#FFC107" x="0" y="43" width="18" height="3" rx="1.5"></rect>
                    <rect id="Rectangle-130-Copy-2" fill="#FFC107" x="0" y="49" width="24" height="3" rx="1.5"></rect>
                </g>
            </g>
        </g>
    </g>
</svg>