<?xml version="1.0" encoding="UTF-8"?>
<svg width="102px" height="110px" viewBox="0 0 102 110" version="1.1" xmlns="http://www.w3.org/2000/svg" xmlns:xlink="http://www.w3.org/1999/xlink">
    <!-- Generator: Sketch 46.2 (44496) - http://www.bohemiancoding.com/sketch -->
    <title>Artboard 2</title>
    <desc>Created with Sketch.</desc>
    <defs></defs>
    <g id="Page-1" stroke="none" stroke-width="1" fill="none" fill-rule="evenodd">
        <g id="Artboard-2">
            <g id="Group-7" transform="translate(0.000000, 3.000000)">
                <rect id="Rectangle" fill="#E7E3C0" x="44" y="87" width="18" height="10"></rect>
                <g id="light-bulb" fill-rule="nonzero">
                    <g id="Group" transform="translate(24.000000, 15.000000)">
                        <path d="M27.5311778,2.07729469 C12.6719551,2.07729469 1.93806919,13.3486527 0.235867131,25.455681 C-0.82550592,33.5270331 1.73781013,41.3945633 7.06470128,47.3461664 C11.7507634,52.4417171 14.3140795,59.2493727 14.3140795,66.2608504 L14.2940536,77.3080041 C14.2940536,81.7717065 17.9187427,85.3793563 22.4045457,85.3793563 L32.858069,85.3793563 C37.3438721,85.3793563 40.9685612,81.7717065 40.9685612,77.3080041 L40.9885871,66.2608504 C40.9885871,59.0455507 43.3316182,52.4417171 47.8174212,47.7741927 C52.7237684,42.6786421 55.2870844,36.0951907 55.2870844,29.287535 C55.2670585,14.184323 42.6707632,2.07729469 27.5311778,2.07729469 L27.5311778,2.07729469 Z M36.9033021,77.3080041 C36.9033021,79.4277532 35.2011001,81.1398582 33.0583281,81.1398582 L22.6048048,81.1398582 C20.4620328,81.1398582 18.7598307,79.4481354 18.7598307,77.3080041 L18.7598307,72.4162755 L36.8832762,72.4162755 L36.8832762,77.3080041 L36.9033021,77.3080041 Z M44.8335611,44.7983911 C39.50667,50.321968 36.723069,57.9652939 36.723069,66.2608504 L36.723069,68.1767774 L18.5996235,68.1767774 L18.5996235,66.2608504 C18.5996235,58.3933202 15.3954784,50.5461722 10.0685873,44.5945691 C5.38252513,39.4990185 3.46003809,32.9155671 4.30112617,26.1079114 C5.80306917,15.9168102 15.1151157,6.33717501 27.5512037,6.33717501 C40.568043,6.33717501 51.0215663,16.7524805 51.0215663,29.287535 C51.0215663,35.0149339 48.8787943,40.5385108 44.8335611,44.7983911 Z" id="Shape" fill="#FFC107"></path>
                        <path d="M28.6220098,0 C13.4297525,0 2.45529164,11.5239791 0.714938706,23.902358 C-0.370222534,32.1546106 2.25054423,40.1984731 7.69682517,46.2834674 C12.4879144,51.4932229 15.1086812,58.4534562 15.1086812,65.6220797 L15.0882064,76.9168295 C15.0882064,81.4805753 18.7941345,85.1690821 23.3804763,85.1690821 L34.0682908,85.1690821 C38.6546326,85.1690821 42.3605606,81.4805753 42.3605606,76.9168295 L42.3810354,65.6220797 C42.3810354,58.245066 44.77658,51.4932229 49.3629218,46.7210869 C54.3792332,41.5113314 57,34.7803274 57,27.8200941 C56.9795253,12.378379 44.1009136,2.96140311e-15 28.6220098,2.96140311e-15 L28.6220098,0 Z M38.2041883,76.9168295 C38.2041883,79.0840878 36.4638354,80.8345656 34.2730382,80.8345656 L23.5852237,80.8345656 C21.3944265,80.8345656 19.6540736,79.1049268 19.6540736,76.9168295 L19.6540736,71.9154643 L38.1837136,71.9154643 L38.1837136,76.9168295 L38.2041883,76.9168295 Z M46.3121855,43.6785897 C40.8659046,49.3259646 38.0199157,57.1405978 38.0199157,65.6220797 L38.0199157,67.5809477 L19.4902756,67.5809477 L19.4902756,65.6220797 C19.4902756,57.5782173 16.2143172,49.5551939 10.7680362,43.4701995 C5.97694698,38.260444 4.01137191,31.52944 4.871311,24.5692067 C6.40691653,14.1496958 15.9276708,4.35535556 28.6424846,4.35535556 C41.9510658,4.35535556 52.6388803,15.0040957 52.6388803,27.8200941 C52.6388803,33.6758592 50.4480831,39.3232341 46.3121855,43.6785897 Z" id="shape" fill="#B7A79F"></path>
                    </g>
                </g>
            </g>
            <path d="M24.2958984,23.8242188 L16.8558974,16.3842177" id="Path-2" stroke="#FFC107"></path>
            <path d="M78.9658203,23.8154297 L86.3354419,16.4458081" id="Path-4" stroke="#FFC107"></path>
            <path d="M12.1572266,51.4853516 L1.26893477,51.4853516" id="Path-6" stroke="#FFC107"></path>
        </g>
        <path d="M48.3935547,11.7158203 L48.3935547,3.06340354" id="Path-3" stroke="#FFC107"></path>
        <path d="M90.0117188,51.9521484 L101.205634,51.9521484" id="Path-5" stroke="#FFC107"></path>
    </g>
</svg>