<?xml version="1.0" encoding="UTF-8"?>
<svg width="70px" height="70px" viewBox="0 0 70 70" version="1.1" xmlns="http://www.w3.org/2000/svg" xmlns:xlink="http://www.w3.org/1999/xlink">
    <!-- Generator: Sketch 46.2 (44496) - http://www.bohemiancoding.com/sketch -->
    <title>Artboard</title>
    <desc>Created with Sketch.</desc>
    <defs></defs>
    <g id="Page-1" stroke="none" stroke-width="1" fill="none" fill-rule="evenodd">
        <g id="Artboard" fill-rule="nonzero" fill="#FFC107">
            <g id="dials" transform="translate(5.000000, 1.000000)">
                <path d="M50.2474218,43.3375598 C49.2835037,43.3375598 48.4948435,44.1173976 48.4948435,45.0705327 L48.4948435,60.4651085 C48.4948435,60.6239644 48.2903761,60.8694689 48.1297231,60.8983517 L21.9140737,65.4907299 L21.8994689,58.5443969 C21.8994689,58.0389465 21.6803966,57.5623789 21.2860665,57.2302258 C20.9063412,56.8980727 20.3951726,56.7536583 19.8840039,56.8258655 L12.6838284,57.8800906 C10.7559923,57.8223249 9.20788155,56.2482078 9.20788155,54.3274962 L9.20788155,45.0272084 C9.20788155,44.0740733 8.41922134,43.2942355 7.45530332,43.2942355 L5.01629861,43.2942355 C4.31526732,43.2942355 3.77488903,43.1064968 3.59963121,42.8032265 C3.40976857,42.4999562 3.49739748,41.9367401 3.83330831,41.3301995 L9.0180189,31.5389027 C9.47076828,30.6868577 9.13485745,29.647074 8.27317316,29.1993893 C7.41148886,28.7517047 6.35994192,29.0838578 5.90719255,29.9359028 L0.722481948,39.7271996 C-0.197621623,41.4601725 -0.241436079,43.2364697 0.605643399,44.6084066 C1.43811806,45.9803435 3.05925292,46.7601813 5.03090343,46.7601813 L5.7173299,46.7601813 L5.7173299,54.3274962 C5.7173299,58.1978023 8.90118036,61.3460364 12.8152717,61.3460364 C12.9029006,61.3460364 12.9905296,61.3460364 13.0781585,61.331595 L18.4089173,60.5517572 L18.4089173,65.8662074 C18.4089173,65.9384146 18.4089173,66.0106218 18.4235221,66.082829 C18.4965462,66.9637569 18.9200859,67.7580361 19.5919076,68.2923694 C20.1761003,68.7544955 20.9063412,69 21.6657918,69 C21.8702593,69 22.0747267,68.9855586 22.2791942,68.9422342 L48.7431255,64.3065318 C50.5687278,63.9888201 52,62.2991715 52,60.4651085 L52,45.0705327 C52,44.1173976 51.2113398,43.3375598 50.2474218,43.3375598 Z" id="Shape"></path>
                <path d="M10.6359372,13.7247511 C10.8989128,13.9124208 11.1994564,14 11.5,14 C11.9758607,14 12.4391987,13.7747963 12.7272197,13.361923 C13.2030803,12.686312 13.0402859,11.7479634 12.3640628,11.2725334 C11.6878397,10.7971035 10.748641,10.9597506 10.2727803,11.6353616 C9.79691967,12.3109725 9.95971411,13.2493211 10.6359372,13.7247511 Z" id="Shape"></path>
                <path d="M45.6647403,6.7492916 C45.9140715,6.92478748 46.213269,7 46.5,7 C46.986196,7 47.4599254,6.76182702 47.7466563,6.33562273 C48.2079192,5.64617462 48.0209207,4.70601811 47.3352597,4.25474298 C46.6495988,3.79093243 45.7146065,3.97896373 45.2533437,4.66841185 C44.7920808,5.35785996 44.9790793,6.28548105 45.6647403,6.7492916 Z" id="Shape"></path>
                <path d="M7.3677449,25.9875263 C7.41777327,25.9875263 7.46780164,26 7.50532292,26 C8.26825561,26 8.93113156,25.4137369 8.99366702,24.6403685 C9.06870958,23.8171055 8.4683691,23.0811582 7.64290095,23.0063161 C6.81743279,22.931474 6.07951429,23.5302108 6.00447173,24.3534738 C5.94193626,25.1767369 6.54227674,25.9002105 7.3677449,25.9875263 Z" id="Shape"></path>
                <path d="M16.5,9 C16.8380098,9 17.1885384,8.8874151 17.4639538,8.64973587 C18.1024167,8.11183024 18.17753,7.17362275 17.651737,6.53564165 C17.1134252,5.89766055 16.1745091,5.82260396 15.5360462,6.34800015 C14.8975833,6.88590578 14.82247,7.82411327 15.348263,8.46209437 C15.6487161,8.82486793 16.0743581,9 16.5,9 Z" id="Shape"></path>
                <path d="M7.96963848,18.9123028 C8.14460479,18.9749436 8.31957109,19 8.4945374,19 C9.10691947,19 9.68180876,18.6241547 9.90676544,18.0228021 C10.1942101,17.2460551 9.7942871,16.3816108 9.01943631,16.0934627 C8.24458553,15.8053146 7.3822516,16.2062163 7.09480695,16.9829634 C6.80736231,17.7597104 7.1947877,18.6241547 7.96963848,18.9123028 Z" id="Shape"></path>
                <path d="M56.9561496,33.0712647 C56.1697866,32.8220106 55.3210138,33.2457425 55.0713748,34.0433556 L55.0713748,34.0433556 C54.8217357,34.8285059 55.2461221,35.6759697 56.0449671,35.9252238 C56.1947505,35.9750746 56.3570159,36 56.5067993,36 C57.1433789,36 57.7300306,35.5887308 57.9297419,34.9655956 C58.1793809,34.1679826 57.7425126,33.3329815 56.9561496,33.0712647 Z" id="Shape"></path>
                <path d="M58.5749353,26.0016015 C57.7508076,25.9641215 57.039061,26.5887879 57.0016006,27.4258408 C56.9641403,28.2504004 57.5884794,28.96252 58.4250939,29 C58.4500675,29 58.475041,29 58.5000146,29 C59.2991687,29 59.9609682,28.3753336 59.9984286,27.5757607 C60.0358889,26.7512011 59.399063,26.0515748 58.5749353,26.0016015 Z" id="Shape"></path>
                <path d="M55.3109964,39.2400585 C54.6122918,38.7904752 53.6890036,38.99029 53.2398364,39.6896417 L53.2398364,39.6896417 C52.7906691,40.3889934 52.990299,41.3131367 53.6890036,41.76272 C53.9385409,41.9250695 54.2255089,42 54.5,42 C54.9865978,42 55.4731957,41.7502315 55.7601636,41.3131367 C56.2093309,40.613785 56.009701,39.6896417 55.3109964,39.2400585 Z" id="Shape"></path>
                <path d="M55.5,17 C55.7251118,17 55.9627299,16.9499876 56.1753355,16.8374596 C56.9132021,16.4623665 57.2133512,15.5621428 56.8381648,14.8244596 C56.4629784,14.0867764 55.5625311,13.7867018 54.8246645,14.161795 C54.0867979,14.5368882 53.7866488,15.4371118 54.1618352,16.174795 C54.4244657,16.6999255 54.9497266,17 55.5,17 Z" id="Shape"></path>
                <path d="M56.0336121,21.8034565 C56.1833709,22.5139042 56.8073657,23 57.4937601,23 C57.5935992,23 57.6934384,22.987536 57.8057575,22.962608 C58.6169508,22.7881121 59.1411064,22.0028804 58.9663879,21.1927208 C58.7916693,20.3825611 58.0054358,19.8590734 57.1942425,20.0335693 C56.3830492,20.2080652 55.8588936,20.9932969 56.0336121,21.8034565 Z" id="Shape"></path>
                <path d="M52.6224777,9.50673823 C52.0706451,8.88029055 51.1174797,8.83017474 50.5029388,9.3814487 C49.888398,9.93272266 49.8256897,10.8849231 50.3775223,11.4988419 C50.6785219,11.8371236 51.0923964,12 51.5062708,12 C51.857437,12 52.2211449,11.8747105 52.4970612,11.6241314 C53.111602,11.0853864 53.1743103,10.1331859 52.6224777,9.50673823 Z" id="Shape"></path>
                <path d="M40.0171929,3.91224917 C40.1800117,3.9623925 40.3428305,4 40.5056493,4 C41.1318755,4 41.7080036,3.61138918 41.9209205,2.98459754 C42.1839354,2.19484008 41.7706262,1.34240345 40.9815812,1.07915096 C40.1925362,0.815898468 39.3408686,1.22958095 39.0778536,2.01933842 C38.8148387,2.78402422 39.2406725,3.64899668 40.0171929,3.91224917 Z" id="Shape"></path>
                <path d="M21.50623,6 C21.7180498,6 21.9298696,5.9499761 22.1416894,5.86243428 C22.8892886,5.51226701 23.2132483,4.61183688 22.8519087,3.86147843 C22.503029,3.11111998 21.6059099,2.78596466 20.8583106,3.14863791 C20.1107114,3.49880518 19.7867517,4.39923532 20.1480913,5.14959376 C20.4097511,5.68735065 20.9455305,6 21.50623,6 Z" id="Shape"></path>
                <path d="M34.3936123,3 L34.3936123,3 C34.4311609,3 34.4687095,3 34.4937419,3 C35.2697464,3 35.9331051,2.40086042 35.9956861,1.60200765 C36.0582671,0.778190733 35.432457,0.0667124851 34.6063877,0.00430211245 C33.7803184,-0.0581082602 33.0543787,0.565995466 33.0043139,1.38981239 C32.9417329,2.22611138 33.567543,2.9500717 34.3936123,3 Z" id="Shape"></path>
                <path d="M27.4875009,4 C27.5749945,4 27.6749873,3.98750045 27.77498,3.97500091 C28.5874209,3.82500637 29.1248818,3.03753502 28.9748927,2.22506458 C28.8249036,1.41259414 28.0374609,0.87511369 27.22502,1.02510823 C26.4125791,1.17510278 25.8751182,1.96257413 26.0251073,2.77504457 C26.1500982,3.50001819 26.7875518,4 27.4875009,4 Z" id="Shape"></path>
            </g>
        </g>
    </g>
</svg>