<?xml version="1.0" encoding="UTF-8"?>
<svg width="70px" height="70px" viewBox="0 0 70 70" version="1.1" xmlns="http://www.w3.org/2000/svg" xmlns:xlink="http://www.w3.org/1999/xlink">
    <!-- Generator: Sketch 46.2 (44496) - http://www.bohemiancoding.com/sketch -->
    <title>Artboard</title>
    <desc>Created with Sketch.</desc>
    <defs></defs>
    <g id="Page-1" stroke="none" stroke-width="1" fill="none" fill-rule="evenodd">
        <g id="Artboard" fill-rule="nonzero" fill="#FFC107">
            <g id="heart-like">
                <path d="M70,20.7873013 C70,23.1721538 69.713424,25.5249754 69.1398605,27.8452806 C68.5658857,30.1657476 67.8561644,32.2927346 67.0093254,34.2264031 C66.162075,36.1600717 64.9739499,38.2386886 63.4445388,40.4624156 C61.9145793,42.6861426 60.4531786,44.636312 59.0597883,46.3117914 C57.6665351,47.9875943 55.8775602,49.9536175 53.692178,52.2095372 C51.5066586,54.4657805 49.5808402,56.38311 47.9145856,57.9626582 C46.2484682,59.5418829 44.1310963,61.5396135 41.5637041,63.9571441 C38.9960376,66.3745129 36.8653653,68.3885825 35.1716872,70 C33.3141535,68.0017841 30.8283463,65.5206769 27.7142657,62.5552223 C24.6001851,59.590253 21.8822376,57.0122439 19.5602861,54.8203861 C17.2383346,52.6291755 14.7526645,50.0510046 12.1028646,47.0858735 C9.45306458,44.1209043 7.28153122,41.3492533 5.58785311,38.7710824 C3.89417501,36.1932351 2.51477073,33.3248441 1.44936603,30.1665565 C0.383961326,27.0081071 -0.0940310535,23.8818505 0.015251771,20.7879484 C0.015251771,15.0514899 1.73607918,10.1525285 5.17800824,6.091873 C8.6199373,2.0312175 12.771999,0.000808863293 17.6343306,0.000808863293 C19.4371544,0.000808863293 21.2812506,0.612471285 23.1660708,1.83725208 C25.0508911,3.06203288 26.6354235,4.41526117 27.9192567,5.89774581 C29.2030899,7.38023046 30.4733485,9.08822619 31.7298953,11.0220565 C32.9864421,12.9558869 33.8059947,14.3094387 34.1884161,15.0828738 C34.5708374,15.8563089 34.8712623,16.4686184 35.089828,16.9198024 L35.9908285,15.1794521 C36.5371055,14.0192186 37.3839446,12.6172967 38.5312085,10.9736865 C39.6784725,9.33007631 40.9487311,7.67028883 42.3418472,5.99448586 C43.7349632,4.31868289 45.3739314,2.90058377 47.2587516,1.74035026 C49.1437089,0.580116754 50.9875309,0 52.7904918,0 C57.6528234,0 61.7368747,2.01423137 65.0419603,6.04285589 C68.3473201,10.0714804 70,14.9862955 70,20.7873013 Z" id="Shape"></path>
            </g>
        </g>
    </g>
</svg>