<?xml version="1.0" encoding="UTF-8"?>
<svg width="56px" height="70px" viewBox="0 0 56 70" version="1.1" xmlns="http://www.w3.org/2000/svg" xmlns:xlink="http://www.w3.org/1999/xlink">
    <!-- Generator: Sketch 46.2 (44496) - http://www.bohemiancoding.com/sketch -->
    <title>Artboard 2</title>
    <desc>Created with Sketch.</desc>
    <defs></defs>
    <g id="Page-1" stroke="none" stroke-width="1" fill="none" fill-rule="evenodd">
        <g id="Artboard-2" fill-rule="nonzero">
            <g id="Group" transform="translate(2.000000, 10.000000)">
                <g id="settings" transform="translate(2.000000, 2.000000)" fill="#B7A79F">
                    <path d="M51,15.1450338 C51,16.8825692 50.7912089,18.5967678 50.3733269,20.2872759 C49.9551453,21.9779018 49.4380626,23.5275638 48.8210799,24.9363794 C48.2037975,26.3451951 47.3381635,27.859616 46.2238783,29.4797599 C45.1091935,31.0999039 44.0444587,32.5207416 43.0292743,33.741448 C42.0141899,34.9623901 40.7107939,36.3947785 39.1185868,38.0383771 C37.5262798,39.6822115 36.1231836,41.079123 34.9091981,42.2299367 C33.6953125,43.3805147 32.1526559,44.8360041 30.2821273,46.5973478 C28.4113988,48.3585737 26.8590519,49.8259672 25.6250864,51 C24.2717404,49.544157 22.4606523,47.7364932 20.1918222,45.5759477 C17.922992,43.4157558 15.9427731,41.537492 14.2510656,39.940567 C12.5593581,38.3441136 10.7483699,36.4657319 8.81780135,34.3054221 C6.88723277,32.1452303 5.3051156,30.1258845 4.07115012,28.2475029 C2.83718465,26.369357 1.8321901,24.2795293 1.05596668,21.9784912 C0.279743252,19.6773352 -0.068508339,17.3996339 0.0111120046,15.1455053 C0.0111120046,10.9660855 1.26485769,7.39684219 3.77254886,4.43836461 C6.28024003,1.47988704 9.30531356,0.000589314685 12.8478694,0.000589314685 C14.1613553,0.000589314685 15.5049112,0.446229079 16.8781373,1.33856937 C18.2513635,2.23090967 19.4058086,3.21683314 20.3411727,4.29692909 C21.2765369,5.37702505 22.2020111,6.62142194 23.1174951,8.03035545 C24.0329792,9.43928903 24.6300819,10.4254482 24.9087032,10.9889509 C25.1873244,11.5524536 25.4062054,11.9985648 25.5654461,12.3272846 L26.2218893,11.0593151 C26.6198912,10.2140021 27.2368739,9.19260188 28.0727376,7.99511445 C28.9086014,6.79762703 29.8340755,5.58835329 30.8490601,4.36741113 C31.8640446,3.14646896 33.05815,2.11328246 34.4313762,1.26796948 C35.8047022,0.422656492 37.1480582,0 38.461644,0 C42.0041999,0 44.979723,1.46751143 47.3877139,4.40265215 C49.7959046,7.33779286 51,10.9185867 51,15.1450338 Z" id="Shape"></path>
                </g>
                <g id="settings" fill="#FFC107">
                    <path d="M51,15.1450338 C51,16.8825692 50.7912089,18.5967678 50.3733269,20.2872759 C49.9551453,21.9779018 49.4380626,23.5275638 48.8210799,24.9363794 C48.2037975,26.3451951 47.3381635,27.859616 46.2238783,29.4797599 C45.1091935,31.0999039 44.0444587,32.5207416 43.0292743,33.741448 C42.0141899,34.9623901 40.7107939,36.3947785 39.1185868,38.0383771 C37.5262798,39.6822115 36.1231836,41.079123 34.9091981,42.2299367 C33.6953125,43.3805147 32.1526559,44.8360041 30.2821273,46.5973478 C28.4113988,48.3585737 26.8590519,49.8259672 25.6250864,51 C24.2717404,49.544157 22.4606523,47.7364932 20.1918222,45.5759477 C17.922992,43.4157558 15.9427731,41.537492 14.2510656,39.940567 C12.5593581,38.3441136 10.7483699,36.4657319 8.81780135,34.3054221 C6.88723277,32.1452303 5.3051156,30.1258845 4.07115012,28.2475029 C2.83718465,26.369357 1.8321901,24.2795293 1.05596668,21.9784912 C0.279743252,19.6773352 -0.068508339,17.3996339 0.0111120046,15.1455053 C0.0111120046,10.9660855 1.26485769,7.39684219 3.77254886,4.43836461 C6.28024003,1.47988704 9.30531356,0.000589314685 12.8478694,0.000589314685 C14.1613553,0.000589314685 15.5049112,0.446229079 16.8781373,1.33856937 C18.2513635,2.23090967 19.4058086,3.21683314 20.3411727,4.29692909 C21.2765369,5.37702505 22.2020111,6.62142194 23.1174951,8.03035545 C24.0329792,9.43928903 24.6300819,10.4254482 24.9087032,10.9889509 C25.1873244,11.5524536 25.4062054,11.9985648 25.5654461,12.3272846 L26.2218893,11.0593151 C26.6198912,10.2140021 27.2368739,9.19260188 28.0727376,7.99511445 C28.9086014,6.79762703 29.8340755,5.58835329 30.8490601,4.36741113 C31.8640446,3.14646896 33.05815,2.11328246 34.4313762,1.26796948 C35.8047022,0.422656492 37.1480582,0 38.461644,0 C42.0041999,0 44.979723,1.46751143 47.3877139,4.40265215 C49.7959046,7.33779286 51,10.9185867 51,15.1450338 Z" id="Shape"></path>
                </g>
            </g>
        </g>
    </g>
</svg>